{"glyphs":{"0":{"ha":729,"x_min":54,"x_max":682,"o":"m 414 713 q 613 636 543 713 q 682 404 682 560 q 640 188 682 282 q 516 40 597 93 q 324 -12 435 -12 q 124 65 193 -12 q 54 294 54 142 q 97 510 54 415 q 222 659 140 606 q 414 713 303 713 m 389 546 q 244 486 292 546 q 196 318 196 426 q 231 188 196 229 q 344 146 265 146 q 490 205 440 146 q 539 372 539 264 q 503 504 539 463 q 389 546 468 546 z "},"1":{"ha":499,"x_min":31,"x_max":404,"o":"m 344 289 l 318 0 l 136 0 l 178 269 l 206 504 l 43 463 l 31 472 l 49 617 l 381 710 l 404 690 l 344 289 z "},"2":{"ha":653,"x_min":17,"x_max":596,"o":"m 367 710 q 519 665 460 710 q 578 546 578 621 q 533 428 578 490 q 375 253 489 367 l 269 144 l 272 138 l 461 138 l 588 149 l 596 138 l 557 -8 l 392 0 l 76 0 l 25 -3 l 17 4 l 31 114 l 236 303 q 356 423 319 379 q 393 500 393 467 q 374 542 393 526 q 319 557 356 557 q 125 472 225 557 l 104 472 l 93 613 q 367 710 238 710 z "},"3":{"ha":597,"x_min":-7,"x_max":549,"o":"m 314 711 q 484 663 419 711 q 549 538 549 615 q 507 417 549 478 q 389 321 465 357 l 389 314 q 521 144 521 265 q 473 2 521 65 q 340 -97 425 -61 q 149 -132 256 -132 q -7 -117 61 -132 l 0 26 l 15 39 q 164 7 90 7 q 297 42 247 7 q 346 136 346 76 q 228 226 346 222 l 132 226 l 124 238 l 144 361 l 214 364 q 280 382 246 365 q 336 428 314 399 q 358 493 358 457 q 336 546 358 526 q 274 565 314 565 q 99 497 201 565 l 81 497 l 71 629 q 314 711 194 711 z "},"4":{"ha":696,"x_min":1,"x_max":643,"o":"m 504 79 l 488 -111 l 475 -125 l 335 -133 l 326 -122 l 357 81 l 131 81 l 11 76 l 1 92 l 15 208 l 414 701 l 582 701 l 518 218 l 635 218 l 643 203 l 619 76 l 504 79 m 376 218 l 413 497 l 400 497 l 174 218 l 376 218 z "},"5":{"ha":599,"x_min":-10,"x_max":593,"o":"m 558 558 l 544 546 l 421 558 l 257 558 l 236 400 l 321 382 q 526 175 526 339 q 476 17 526 88 q 339 -94 426 -54 q 144 -135 251 -135 q -10 -118 71 -135 l -4 24 l 10 36 q 171 4 92 4 q 303 44 253 4 q 353 146 353 83 q 236 251 353 229 l 96 276 l 85 290 l 133 685 l 158 706 l 238 701 l 440 701 l 583 710 l 593 697 l 558 558 z "},"6":{"ha":671,"x_min":42,"x_max":642,"o":"m 640 729 q 254 474 347 640 l 264 460 q 399 501 336 501 q 514 471 464 501 q 591 388 564 440 q 618 275 618 336 q 586 143 618 210 q 486 31 554 76 q 314 -14 418 -14 q 113 60 183 -14 q 42 261 42 133 q 92 474 42 368 q 249 672 143 579 q 514 828 354 764 l 524 828 l 642 747 l 640 729 m 349 374 q 207 321 276 374 q 204 265 204 285 q 230 149 204 189 q 321 108 256 108 q 422 151 392 108 q 453 258 453 194 q 349 374 453 374 z "},"7":{"ha":600,"x_min":49,"x_max":608,"o":"m 540 701 l 608 704 l 594 572 l 300 67 l 197 -139 l 57 -96 l 49 -68 l 417 553 l 188 553 l 60 539 l 51 556 l 82 707 l 235 701 l 540 701 z "},"8":{"ha":685,"x_min":44,"x_max":632,"o":"m 394 825 q 568 774 504 825 q 632 635 632 724 q 485 432 632 508 l 483 422 q 579 347 546 389 q 613 233 613 306 q 576 106 613 161 q 472 19 539 50 q 315 -12 404 -12 q 117 43 190 -12 q 44 190 44 99 q 90 315 44 267 q 221 399 136 363 l 222 407 q 143 478 171 438 q 115 586 115 519 q 150 711 115 657 q 248 795 185 765 q 394 825 311 825 m 386 701 q 297 672 331 701 q 263 597 263 643 q 290 526 263 553 q 375 476 318 500 q 458 535 429 504 q 488 613 488 567 q 386 701 488 701 m 331 350 q 231 296 265 325 q 197 215 197 267 q 228 136 197 164 q 319 108 260 108 q 424 142 385 108 q 464 224 464 175 q 432 295 464 269 q 331 350 400 321 z "},"9":{"ha":671,"x_min":36,"x_max":636,"o":"m 38 -28 q 424 228 331 61 l 414 242 q 279 200 342 200 q 164 231 214 200 q 87 313 114 261 q 60 426 60 365 q 92 558 60 492 q 192 670 124 625 q 364 715 260 715 q 565 642 494 715 q 636 440 636 568 q 585 228 636 333 q 429 30 535 122 q 164 -126 324 -62 l 154 -126 l 36 -46 l 38 -28 m 329 328 q 471 381 401 328 q 474 436 474 417 q 448 553 474 513 q 357 593 422 593 q 256 550 286 593 q 225 443 225 507 q 329 328 225 328 z "}," ":{"ha":192,"x_min":0,"x_max":0,"o":""},"!":{"ha":379,"x_min":72,"x_max":371,"o":"m 251 328 l 147 314 l 131 332 l 190 894 l 208 915 l 353 924 l 371 903 l 251 328 m 171 183 q 238 159 214 183 q 261 92 261 135 q 235 17 261 44 q 164 -10 208 -10 q 97 15 121 -10 q 72 83 72 39 q 99 156 72 129 q 171 183 125 183 z "},"\"":{"ha":485,"x_min":110,"x_max":499,"o":"m 208 578 l 122 564 l 110 576 l 144 882 l 285 892 l 294 879 l 208 578 m 413 578 l 326 564 l 314 576 l 349 882 l 489 892 l 499 879 l 413 578 z "},"#":{"ha":760,"x_min":28,"x_max":731,"o":"m 549 350 l 674 350 l 685 338 l 676 246 l 528 246 l 488 44 l 385 44 l 375 57 l 413 246 l 271 246 l 232 44 l 128 44 l 119 57 l 157 246 l 39 246 l 28 257 l 36 350 l 176 350 l 206 496 l 85 496 l 74 507 l 82 600 l 225 600 l 264 796 l 365 796 l 376 782 l 340 600 l 481 600 l 519 796 l 621 796 l 633 782 l 597 600 l 719 600 l 731 588 l 722 496 l 576 496 l 549 350 m 321 496 l 292 350 l 432 350 l 461 496 l 321 496 z "},"$":{"ha":619,"x_min":21,"x_max":565,"o":"m 260 511 q 285 465 260 483 q 363 424 310 447 q 450 378 415 400 q 510 320 485 357 q 535 229 535 283 q 482 86 535 151 q 331 -1 429 21 l 308 -186 l 219 -186 l 207 -172 l 225 -11 q 21 32 114 -8 l 60 192 l 79 203 q 173 137 119 161 q 269 113 226 113 q 337 135 310 113 q 364 188 364 157 q 338 234 364 215 q 260 276 313 253 q 172 323 206 301 q 113 381 138 344 q 88 472 88 418 q 149 624 88 558 q 314 706 210 689 l 335 893 l 422 893 l 438 878 l 417 710 q 565 675 497 703 l 524 524 l 497 517 q 347 582 422 582 q 283 561 307 582 q 260 511 260 540 z "},"%":{"ha":1193,"x_min":81,"x_max":1142,"o":"m 1006 882 l 232 -128 l 161 -82 l 156 -62 l 931 951 l 999 907 l 1006 882 m 343 901 q 477 850 431 901 q 524 704 524 799 q 456 478 524 560 q 263 397 388 397 q 127 449 174 397 q 81 594 81 500 q 150 819 81 738 q 343 901 219 901 m 318 785 q 194 614 194 785 q 282 506 194 506 q 408 678 408 506 q 318 785 408 785 m 963 496 q 1096 445 1050 496 q 1142 299 1142 394 q 1074 73 1142 154 q 881 -8 1006 -8 q 747 42 793 -8 q 700 189 700 93 q 769 415 700 333 q 963 496 838 496 m 936 379 q 813 208 813 379 q 900 100 813 100 q 1028 272 1028 100 q 936 379 1028 379 z "},"&":{"ha":990,"x_min":43,"x_max":964,"o":"m 961 381 l 944 268 l 767 268 q 643 57 735 131 q 408 -17 551 -17 q 141 82 239 -17 q 43 354 43 181 q 81 542 43 461 q 188 668 119 624 q 347 713 257 713 q 477 676 432 713 q 522 581 522 639 l 521 564 q 878 988 772 754 l 893 988 q 964 872 946 939 q 806 655 922 775 q 531 425 689 535 q 214 249 372 315 q 421 111 261 111 q 594 183 532 111 q 657 381 656 254 l 668 394 l 950 394 l 961 381 m 343 597 q 235 538 275 597 q 194 374 196 478 q 367 460 283 411 q 411 540 411 493 q 343 597 411 597 z "},"'":{"ha":281,"x_min":110,"x_max":294,"o":"m 208 578 l 122 564 l 110 576 l 144 882 l 285 892 l 294 879 l 208 578 z "},"(":{"ha":411,"x_min":82,"x_max":460,"o":"m 458 847 q 278 563 329 746 q 226 206 226 381 q 252 14 226 92 q 339 -124 278 -64 l 338 -139 l 265 -193 l 249 -193 q 121 -26 160 -121 q 82 211 82 69 q 150 612 82 417 q 386 918 218 807 l 403 918 l 460 863 l 458 847 z "},")":{"ha":411,"x_min":-40,"x_max":338,"o":"m -39 -124 q 142 160 90 -22 q 193 518 193 343 q 167 710 193 632 q 81 847 142 788 l 82 863 l 154 917 l 171 917 q 299 749 260 844 q 338 513 338 654 q 269 112 338 307 q 33 -194 201 -83 l 17 -194 l -40 -139 l -39 -124 z "},"*":{"ha":532,"x_min":104,"x_max":574,"o":"m 360 847 l 303 842 l 292 851 l 288 1013 q 393 1029 336 1029 l 400 1018 l 360 847 m 265 775 l 251 769 l 104 814 q 119 921 104 874 l 132 925 l 274 833 l 265 775 m 525 889 q 574 793 558 842 l 567 783 l 400 769 l 375 821 l 381 835 l 525 889 m 488 617 q 413 539 465 582 l 400 542 l 338 707 l 379 744 l 393 743 l 488 617 m 313 703 l 229 569 q 131 617 188 582 l 132 629 l 260 743 l 311 717 l 313 703 z "},"+":{"ha":663,"x_min":31,"x_max":642,"o":"m 404 424 l 631 424 l 642 411 l 619 301 l 390 301 l 363 71 l 251 61 l 239 74 l 267 301 l 40 301 l 31 314 l 53 424 l 282 424 l 310 654 l 421 663 l 433 650 l 404 424 z "},",":{"ha":318,"x_min":3,"x_max":228,"o":"m 167 179 q 228 63 228 131 q 63 -175 228 -58 l 4 -124 l 3 -110 q 79 25 79 -47 q 36 107 79 72 l 36 124 q 167 179 101 163 z "},"-":{"ha":422,"x_min":33,"x_max":396,"o":"m 383 315 l 46 265 l 33 279 l 47 392 l 383 440 l 396 428 l 383 315 z "},".":{"ha":319,"x_min":36,"x_max":225,"o":"m 135 183 q 201 159 178 183 q 225 92 225 135 q 199 17 225 44 q 128 -10 172 -10 q 60 15 83 -10 q 36 83 36 39 q 63 156 36 129 q 135 183 89 183 z "},"/":{"ha":394,"x_min":-36,"x_max":461,"o":"m 97 -160 l -26 -160 l -36 -144 l 326 944 l 447 944 l 461 928 l 97 -160 z "},":":{"ha":319,"x_min":36,"x_max":269,"o":"m 135 183 q 201 159 178 183 q 225 92 225 135 q 199 17 225 44 q 128 -10 172 -10 q 60 15 83 -10 q 36 83 36 39 q 63 156 36 129 q 135 183 89 183 m 179 549 q 246 524 222 549 q 269 457 269 500 q 243 383 269 410 q 172 356 217 356 q 104 380 128 356 q 81 449 81 404 q 107 522 81 494 q 179 549 133 549 z "},";":{"ha":318,"x_min":-1,"x_max":264,"o":"m 163 179 q 224 63 224 131 q 58 -175 224 -58 l 0 -124 l -1 -110 q 75 25 75 -47 q 32 107 75 72 l 32 124 q 163 179 97 163 m 174 549 q 240 524 217 549 q 264 457 264 500 q 238 383 264 410 q 167 356 211 356 q 99 380 122 356 q 75 449 75 404 q 101 522 75 494 q 174 549 128 549 z "},"<":{"ha":689,"x_min":46,"x_max":647,"o":"m 638 536 l 183 371 l 183 361 l 597 203 l 560 101 l 542 89 l 46 289 l 63 435 l 78 451 l 621 653 l 647 550 l 638 536 z "},"=":{"ha":664,"x_min":24,"x_max":657,"o":"m 647 429 l 68 429 l 56 442 l 65 551 l 644 551 l 657 539 l 647 429 m 615 172 l 36 172 l 24 185 l 33 294 l 613 294 l 625 282 l 615 172 z "},">":{"ha":699,"x_min":67,"x_max":658,"o":"m 658 435 l 642 289 l 94 89 l 79 101 l 67 203 l 521 361 l 522 371 l 108 536 l 103 550 l 153 653 l 647 451 l 658 435 z "},"?":{"ha":472,"x_min":93,"x_max":536,"o":"m 183 928 q 445 865 354 918 q 536 721 536 813 q 497 606 536 660 q 385 513 457 551 l 276 451 l 274 444 l 268 326 l 139 310 l 128 322 l 135 494 l 144 508 l 278 575 q 369 692 369 618 q 313 770 369 742 q 132 807 257 799 l 121 824 l 165 918 l 183 928 m 192 183 q 258 159 235 183 q 282 92 282 135 q 256 17 282 44 q 185 -10 229 -10 q 117 15 140 -10 q 93 83 93 39 q 119 156 93 129 q 192 183 146 183 z "},"@":{"ha":1171,"x_min":40,"x_max":1140,"o":"m 1140 432 q 1006 115 1140 226 q 621 -3 871 3 l 651 221 l 635 221 q 465 -10 556 82 l 440 -10 q 335 73 367 18 q 303 213 303 128 q 339 394 303 304 q 449 550 375 483 q 628 642 522 617 l 635 642 l 742 614 l 839 644 l 853 636 l 786 156 l 785 122 q 959 222 896 140 q 1022 426 1022 303 q 977 605 1022 528 q 848 724 932 682 q 651 767 764 767 q 394 704 506 767 q 221 531 282 642 q 160 278 160 419 q 225 27 160 132 q 410 -133 290 -78 q 689 -189 529 -189 l 696 -207 l 646 -292 q 327 -225 464 -290 q 115 -37 190 -160 q 40 257 40 86 q 117 576 40 435 q 333 799 193 718 q 656 879 472 879 q 911 825 801 879 q 1081 669 1021 771 q 1140 432 1140 568 m 486 150 q 532 185 501 150 q 602 290 563 221 q 683 456 642 360 l 688 483 l 688 490 l 600 519 q 490 449 531 519 q 450 269 450 379 q 486 150 450 150 z "},"A":{"ha":810,"x_min":-28,"x_max":749,"o":"m 564 0 l 556 115 l 543 203 l 375 206 l 226 203 l 193 125 l 153 0 l -28 0 l 376 893 l 594 893 l 749 0 l 564 0 m 467 721 l 454 721 l 290 346 l 404 343 l 522 344 l 467 721 z "},"B":{"ha":785,"x_min":68,"x_max":744,"o":"m 585 464 q 699 392 664 436 q 735 276 735 347 q 308 -7 735 -7 q 69 0 185 -7 l 68 0 l 111 267 l 179 893 l 479 894 q 674 844 603 894 q 744 699 744 794 q 703 558 744 619 q 585 464 663 497 m 433 511 q 554 667 554 543 q 522 740 554 718 q 413 763 490 763 l 343 763 l 308 515 l 433 511 m 353 125 q 497 165 446 125 q 549 275 549 204 q 439 386 549 365 l 289 383 l 275 283 l 260 131 q 353 125 329 125 z "},"C":{"ha":704,"x_min":51,"x_max":751,"o":"m 522 904 q 751 851 654 904 l 700 696 l 685 690 q 503 754 606 754 q 311 661 376 754 q 246 389 246 568 q 433 142 246 142 q 640 203 542 142 l 656 193 l 621 36 q 407 -12 514 -12 q 144 84 236 -12 q 51 360 51 181 q 107 651 51 529 q 268 839 163 774 q 522 904 374 904 z "},"D":{"ha":890,"x_min":68,"x_max":872,"o":"m 518 899 q 780 808 688 899 q 872 550 872 717 q 744 139 872 288 q 381 -10 617 -10 q 68 0 224 -10 l 111 267 l 179 893 l 518 899 m 421 132 q 612 228 544 132 q 679 521 679 325 q 634 697 679 640 q 496 753 589 753 q 344 747 442 753 l 278 283 l 265 143 q 421 132 351 132 z "},"E":{"ha":690,"x_min":67,"x_max":738,"o":"m 314 526 l 463 525 l 604 529 l 614 515 l 583 378 l 431 382 l 293 381 l 279 283 l 265 146 l 419 144 l 633 151 l 640 138 l 613 0 l 67 0 l 110 267 l 179 893 l 729 893 l 738 879 l 707 742 l 500 749 l 344 747 l 314 526 z "},"F":{"ha":617,"x_min":67,"x_max":704,"o":"m 310 501 l 429 500 l 579 504 l 588 490 l 558 354 l 399 358 l 290 357 l 279 283 l 251 0 l 67 0 l 110 267 l 179 893 l 696 893 l 704 879 l 674 740 l 469 749 l 344 747 l 310 501 z "},"G":{"ha":813,"x_min":49,"x_max":815,"o":"m 556 904 q 815 851 701 904 l 754 685 l 738 683 q 626 739 675 722 q 517 756 576 756 q 310 662 379 756 q 240 357 240 568 q 288 185 240 238 q 440 132 336 132 q 556 154 488 132 l 568 231 l 582 369 l 753 381 l 735 260 l 711 43 q 419 -12 553 -12 q 144 83 239 -12 q 49 350 49 178 q 180 760 49 617 q 556 904 311 904 z "},"H":{"ha":943,"x_min":67,"x_max":907,"o":"m 821 283 l 793 0 l 610 0 l 653 267 l 664 372 l 467 376 l 290 371 l 278 283 l 251 0 l 67 0 l 110 267 l 178 893 l 364 893 l 313 525 l 497 521 l 681 525 l 719 893 l 907 893 l 821 283 z "},"I":{"ha":401,"x_min":67,"x_max":364,"o":"m 251 0 l 67 0 l 110 267 l 178 893 l 364 893 l 278 283 l 251 0 z "},"J":{"ha":456,"x_min":-36,"x_max":413,"o":"m 326 294 l 315 167 q 231 -19 300 51 q 8 -147 163 -89 l -36 -50 l -35 -32 q 96 57 56 13 q 146 171 136 101 l 160 278 l 211 758 l 68 756 l 57 768 l 81 893 l 413 893 l 326 294 z "},"K":{"ha":790,"x_min":67,"x_max":847,"o":"m 489 465 q 767 39 600 269 l 761 18 q 578 -14 678 -3 l 560 -3 q 303 458 396 274 l 278 283 l 250 0 l 67 0 l 110 267 l 178 893 l 364 893 l 306 479 l 589 808 l 650 893 l 847 893 l 489 465 z "},"L":{"ha":585,"x_min":63,"x_max":561,"o":"m 532 0 l 63 0 l 106 267 l 174 893 l 360 893 l 274 283 l 261 151 l 553 151 l 561 138 l 532 0 z "},"M":{"ha":1078,"x_min":21,"x_max":1007,"o":"m 811 0 l 832 271 l 843 622 l 831 622 l 571 94 l 428 94 l 317 622 l 303 622 l 229 288 l 175 0 l 21 0 l 221 893 l 431 893 l 450 761 l 533 332 l 546 332 l 744 763 l 799 893 l 1007 893 l 974 0 l 811 0 z "},"N":{"ha":942,"x_min":68,"x_max":908,"o":"m 793 0 l 596 0 l 318 613 l 306 613 l 267 307 l 236 0 l 68 0 l 110 264 l 179 893 l 376 893 l 654 281 l 667 281 l 738 886 l 908 897 l 819 275 l 793 0 z "},"O":{"ha":876,"x_min":51,"x_max":860,"o":"m 513 906 q 769 810 678 906 q 860 533 860 715 q 806 246 860 369 q 647 54 751 122 q 397 -14 543 -14 q 142 84 233 -14 q 51 365 51 182 q 105 651 51 529 q 262 840 158 774 q 513 906 365 906 m 490 757 q 303 665 365 757 q 242 369 242 572 q 283 185 242 243 q 415 128 324 128 q 603 221 540 128 q 665 518 665 314 q 624 701 665 644 q 490 757 583 757 z "},"P":{"ha":750,"x_min":68,"x_max":764,"o":"m 499 894 q 694 834 624 894 q 764 657 764 774 q 716 466 764 550 q 579 335 668 382 q 372 288 490 288 l 279 288 l 279 283 l 251 0 l 68 0 l 111 267 l 179 893 l 499 894 m 431 424 q 535 494 497 440 q 572 628 572 549 q 540 724 572 692 q 438 760 508 756 l 346 756 l 300 428 l 431 424 z "},"Q":{"ha":878,"x_min":51,"x_max":956,"o":"m 956 -156 q 863 -272 914 -228 l 849 -279 q 411 -14 592 -186 l 396 -14 q 142 84 233 -14 q 51 365 51 182 q 105 651 51 529 q 263 840 158 774 q 514 906 367 906 q 769 810 679 906 q 860 533 860 715 q 789 211 860 344 q 586 22 718 78 q 950 -136 750 -87 l 956 -156 m 242 369 q 283 185 242 243 q 415 128 324 128 q 603 221 540 128 q 665 518 665 314 q 624 701 665 644 q 490 757 583 757 q 303 665 365 757 q 242 369 242 572 z "},"R":{"ha":797,"x_min":67,"x_max":765,"o":"m 765 668 q 713 485 765 568 q 567 353 660 403 q 738 43 642 197 l 733 22 q 549 -14 639 -8 l 532 0 q 410 304 464 157 l 281 304 l 278 283 l 251 0 l 67 0 l 110 267 l 179 893 l 501 894 q 695 835 625 894 q 765 668 765 776 m 433 440 q 572 638 572 488 q 438 760 572 753 l 346 756 l 301 446 l 433 440 z "},"S":{"ha":674,"x_min":13,"x_max":671,"o":"m 446 906 q 671 860 560 906 l 622 701 l 594 690 q 415 761 504 761 q 322 731 358 761 q 286 660 286 701 q 318 593 286 621 q 419 526 350 565 q 525 460 483 490 q 596 384 567 431 q 625 275 625 338 q 580 131 625 196 q 454 26 535 65 q 274 -12 374 -12 q 13 46 136 -12 l 57 215 l 78 226 q 188 153 128 178 q 301 128 249 128 q 401 158 364 128 q 438 233 438 189 q 405 303 438 275 q 303 371 372 332 q 200 435 240 406 q 131 510 160 464 q 103 619 103 556 q 147 765 103 699 q 270 868 192 831 q 446 906 349 906 z "},"T":{"ha":679,"x_min":75,"x_max":729,"o":"m 701 743 l 539 751 l 486 751 l 421 283 l 393 0 l 210 0 l 254 267 l 307 751 l 253 751 l 85 743 l 75 757 l 106 893 l 721 893 l 729 879 l 701 743 z "},"U":{"ha":864,"x_min":81,"x_max":851,"o":"m 774 324 q 658 74 756 161 q 393 -12 561 -12 q 164 55 247 -12 q 81 247 81 122 q 86 315 81 283 l 104 444 l 154 893 l 338 893 l 261 340 q 257 288 257 311 q 407 139 257 139 q 606 331 583 139 l 667 893 l 851 893 l 789 440 l 774 324 z "},"V":{"ha":792,"x_min":83,"x_max":860,"o":"m 240 0 l 83 893 l 269 893 l 278 778 l 368 172 l 379 172 l 640 768 l 681 893 l 860 893 l 458 0 l 240 0 z "},"W":{"ha":1218,"x_min":97,"x_max":1283,"o":"m 694 0 l 619 433 l 607 433 l 424 0 l 228 0 l 97 893 l 276 893 l 276 785 l 357 190 l 368 190 l 575 676 l 540 893 l 728 893 l 732 767 l 817 190 l 829 190 l 1076 775 l 1113 893 l 1283 893 l 886 0 l 694 0 z "},"X":{"ha":824,"x_min":-19,"x_max":861,"o":"m 763 0 l 549 0 l 519 89 l 404 324 l 217 78 l 168 0 l -19 0 l 311 451 l 97 893 l 313 893 l 342 806 l 450 582 l 619 813 l 668 893 l 861 893 l 546 458 l 763 0 z "},"Y":{"ha":754,"x_min":78,"x_max":828,"o":"m 440 250 l 417 0 l 233 0 l 275 250 l 281 307 l 78 893 l 268 893 l 279 833 l 385 489 l 397 489 l 603 828 l 636 893 l 828 893 l 450 306 l 440 250 z "},"Z":{"ha":739,"x_min":1,"x_max":763,"o":"m 236 140 l 528 140 l 675 151 l 681 142 l 649 -4 l 453 0 l 107 0 l 1 -6 l 18 126 l 532 753 l 257 753 l 108 740 l 101 750 l 135 896 l 310 893 l 679 893 l 763 894 l 746 761 l 236 140 z "},"[":{"ha":410,"x_min":46,"x_max":471,"o":"m 461 808 l 308 790 l 203 -67 l 351 -85 l 340 -167 l 332 -176 l 46 -162 l 119 363 l 174 886 l 464 900 l 471 890 l 461 808 z "},"\\":{"ha":486,"x_min":49,"x_max":471,"o":"m 471 -144 l 460 -160 l 336 -160 l 49 928 l 64 944 l 185 944 l 471 -144 z "},"]":{"ha":410,"x_min":-53,"x_max":372,"o":"m -43 -85 l 110 -67 l 215 790 l 67 808 l 78 890 l 86 900 l 372 886 l 299 361 l 244 -162 l -46 -176 l -53 -167 l -43 -85 z "},"^":{"ha":611,"x_min":8,"x_max":574,"o":"m 558 186 l 456 163 l 346 563 l 335 563 l 121 163 l 106 156 l 8 193 l 269 679 l 288 689 l 433 689 l 574 203 l 558 186 z "},"_":{"ha":618,"x_min":-87,"x_max":582,"o":"m 561 -237 l -78 -237 l -87 -225 l -67 -124 l 572 -124 l 582 -136 l 561 -237 z "},"`":{"ha":542,"x_min":168,"x_max":501,"o":"m 250 1003 q 501 792 374 892 l 457 724 l 440 722 q 172 888 322 790 l 168 904 l 233 1001 l 250 1003 z "},"a":{"ha":718,"x_min":-17,"x_max":644,"o":"m 474 0 l 469 99 l 463 143 l 322 146 l 200 143 l 183 108 l 149 0 l -17 0 l 313 701 l 513 701 l 644 0 l 474 0 m 394 546 l 383 546 l 258 272 l 349 271 l 440 272 l 394 546 z "},"b":{"ha":704,"x_min":61,"x_max":644,"o":"m 514 363 q 606 303 575 340 q 636 206 636 267 q 289 -6 636 -6 q 61 0 206 -6 l 94 208 l 149 701 l 419 701 q 585 660 525 701 q 644 542 644 619 q 610 435 644 482 q 514 363 576 389 m 382 408 q 465 514 465 429 q 441 566 465 551 q 361 581 417 581 l 299 581 l 275 413 l 382 408 m 315 114 q 424 140 385 114 q 463 217 463 167 q 386 293 463 275 l 258 290 l 249 224 l 239 118 q 315 114 281 114 z "},"c":{"ha":619,"x_min":46,"x_max":635,"o":"m 444 710 q 635 674 558 710 l 588 526 l 572 519 q 418 571 513 571 q 226 317 226 571 q 375 131 226 131 q 542 178 465 131 l 557 169 l 526 22 q 360 -11 438 -11 q 125 68 204 -11 q 46 294 46 147 q 151 599 46 489 q 444 710 256 710 z "},"d":{"ha":779,"x_min":61,"x_max":742,"o":"m 440 706 q 663 633 583 706 q 742 428 742 561 q 635 107 742 222 q 329 -8 528 -8 q 61 0 217 -8 l 94 208 l 149 701 l 440 706 m 365 122 q 563 399 563 122 q 526 528 563 488 q 418 569 490 569 q 301 564 353 569 l 251 224 l 243 131 q 365 122 360 122 z "},"e":{"ha":619,"x_min":61,"x_max":631,"o":"m 281 422 l 404 421 l 522 425 l 529 413 l 504 285 l 375 289 l 261 288 l 251 224 l 243 133 l 363 133 l 549 139 l 557 126 l 531 0 l 61 0 l 94 208 l 149 701 l 624 701 l 631 688 l 603 561 l 429 568 l 301 568 l 281 422 z "},"f":{"ha":551,"x_min":56,"x_max":596,"o":"m 271 399 l 367 399 l 493 403 l 501 389 l 475 263 l 338 265 l 251 264 l 246 224 l 225 0 l 56 0 l 88 208 l 142 701 l 588 701 l 596 688 l 568 561 l 394 568 l 294 568 l 271 399 z "},"g":{"ha":710,"x_min":44,"x_max":690,"o":"m 471 710 q 690 672 585 710 l 626 515 l 613 515 q 519 560 558 547 q 432 572 481 572 q 274 508 326 572 q 222 300 222 443 q 256 163 222 204 q 378 122 289 122 q 469 140 421 122 l 475 186 l 486 297 l 643 307 l 629 214 l 607 35 q 361 -11 468 -11 q 125 68 206 -11 q 44 303 44 147 q 156 601 44 492 q 471 710 268 710 z "},"h":{"ha":824,"x_min":63,"x_max":771,"o":"m 703 224 l 682 0 l 513 0 l 546 208 l 553 279 l 260 278 l 251 224 l 232 0 l 63 0 l 96 208 l 149 701 l 321 701 l 281 421 l 428 419 l 568 421 l 599 701 l 771 701 l 703 224 z "},"i":{"ha":382,"x_min":63,"x_max":321,"o":"m 232 0 l 63 0 l 96 208 l 149 701 l 321 701 l 251 224 l 232 0 z "},"j":{"ha":436,"x_min":-8,"x_max":360,"o":"m 294 231 l 285 132 q 217 -17 272 39 q 36 -122 163 -74 l -8 -31 l -7 -17 q 90 49 60 15 q 126 136 119 82 l 136 214 l 175 575 l 54 572 l 44 583 l 71 701 l 360 701 l 294 231 z "},"k":{"ha":706,"x_min":61,"x_max":731,"o":"m 440 368 q 668 36 544 199 l 663 15 q 492 -12 574 -7 l 469 -3 q 269 350 353 193 l 251 224 l 231 0 l 61 0 l 94 208 l 149 701 l 321 701 l 275 383 l 493 631 l 544 701 l 731 701 l 440 368 z "},"l":{"ha":531,"x_min":57,"x_max":486,"o":"m 458 0 l 57 0 l 90 208 l 143 701 l 315 701 l 247 224 l 239 140 l 476 140 l 486 128 l 458 0 z "},"m":{"ha":933,"x_min":22,"x_max":853,"o":"m 681 0 l 699 213 l 703 451 l 693 451 l 492 71 l 361 71 l 272 451 l 261 451 l 207 229 l 165 0 l 22 0 l 183 701 l 379 701 l 393 599 l 458 290 l 469 290 l 618 596 l 661 701 l 853 701 l 829 0 l 681 0 z "},"n":{"ha":825,"x_min":61,"x_max":772,"o":"m 681 0 l 499 0 l 274 444 l 265 444 l 239 244 l 214 0 l 61 0 l 94 206 l 149 701 l 329 701 l 556 256 l 567 256 l 615 694 l 772 704 l 701 219 l 681 0 z "},"o":{"ha":767,"x_min":44,"x_max":729,"o":"m 433 711 q 652 635 575 711 q 729 403 729 558 q 683 188 729 282 q 550 40 638 93 q 342 -12 463 -12 q 122 66 199 -12 q 44 301 44 144 q 90 515 44 422 q 224 659 136 607 q 433 711 311 711 m 411 574 q 269 512 317 574 q 222 306 222 450 q 253 162 222 203 q 361 121 285 121 q 503 183 457 121 q 550 389 550 246 q 519 533 550 492 q 411 574 489 574 z "},"p":{"ha":672,"x_min":61,"x_max":660,"o":"m 428 701 q 597 647 533 701 q 660 497 660 593 q 617 355 660 419 q 500 253 575 290 q 333 217 425 217 l 251 217 l 231 0 l 61 0 l 94 208 l 149 701 l 428 701 m 375 340 q 479 485 479 376 q 456 553 479 531 q 379 578 432 575 l 303 575 l 269 344 l 375 340 z "},"q":{"ha":768,"x_min":44,"x_max":794,"o":"m 794 -112 q 704 -217 747 -183 l 690 -222 q 358 -12 506 -149 l 342 -12 q 122 66 199 -12 q 44 301 44 144 q 90 515 44 422 q 224 659 136 607 q 433 711 311 711 q 652 635 575 711 q 729 403 729 558 q 672 166 729 267 q 510 19 615 65 q 789 -96 638 -58 l 794 -112 m 222 306 q 253 162 222 203 q 361 121 285 121 q 503 183 457 121 q 550 389 550 246 q 519 533 550 492 q 411 574 489 574 q 269 512 317 574 q 222 306 222 450 z "},"r":{"ha":713,"x_min":61,"x_max":661,"o":"m 661 513 q 619 376 661 438 q 501 276 576 315 q 644 40 561 165 l 638 21 q 471 -11 553 -6 l 449 6 q 357 229 390 138 l 253 228 l 251 224 l 231 0 l 61 0 l 94 208 l 149 701 l 433 701 q 600 651 539 701 q 661 513 661 601 m 376 353 q 479 488 479 388 q 456 553 479 532 q 381 578 432 575 l 303 574 l 271 358 l 376 353 z "},"s":{"ha":606,"x_min":22,"x_max":567,"o":"m 379 711 q 567 675 479 711 l 525 524 l 499 517 q 349 582 424 582 q 285 561 308 582 q 261 511 261 540 q 286 465 261 483 q 364 424 311 447 q 451 378 417 400 q 511 320 486 357 q 536 229 536 283 q 503 113 536 168 q 404 24 471 58 q 242 -11 338 -11 q 22 32 119 -11 l 61 192 l 81 203 q 174 137 121 161 q 271 113 228 113 q 338 135 311 113 q 365 188 365 157 q 340 234 365 215 q 261 276 314 253 q 173 323 207 301 q 114 381 139 344 q 89 472 89 418 q 124 592 89 538 q 226 678 160 646 q 379 711 292 711 z "},"t":{"ha":607,"x_min":61,"x_max":619,"o":"m 593 557 l 456 565 l 417 565 l 369 224 l 349 0 l 179 0 l 213 208 l 253 565 l 213 565 l 71 557 l 61 569 l 89 701 l 613 701 l 619 688 l 593 557 z "},"u":{"ha":757,"x_min":69,"x_max":722,"o":"m 660 238 q 563 53 644 118 q 338 -11 481 -11 q 140 41 210 -11 q 69 190 69 93 q 74 238 69 213 l 89 347 l 129 701 l 299 701 l 236 263 q 233 232 233 240 q 354 126 233 126 q 504 263 490 126 l 551 701 l 722 701 l 674 344 l 660 238 z "},"v":{"ha":704,"x_min":74,"x_max":733,"o":"m 203 0 l 74 701 l 244 701 l 253 600 l 324 156 l 333 156 l 533 590 l 565 701 l 733 701 l 407 0 l 203 0 z "},"w":{"ha":1051,"x_min":85,"x_max":1082,"o":"m 582 0 l 521 307 l 511 307 l 375 0 l 193 0 l 85 701 l 251 701 l 251 606 l 313 176 l 322 176 l 479 533 l 454 701 l 628 701 l 631 589 l 696 176 l 708 176 l 890 597 l 924 701 l 1082 701 l 763 0 l 582 0 z "},"x":{"ha":729,"x_min":-10,"x_max":738,"o":"m 664 0 l 464 0 l 439 75 l 349 240 l 210 67 l 168 0 l -10 0 l 269 353 l 76 701 l 279 701 l 304 625 l 389 467 l 514 632 l 554 701 l 738 701 l 472 358 l 664 0 z "},"y":{"ha":674,"x_min":64,"x_max":710,"o":"m 389 192 l 372 0 l 203 0 l 235 192 l 239 228 l 64 701 l 244 701 l 254 650 l 338 401 l 349 401 l 506 643 l 535 701 l 710 701 l 394 226 l 389 192 z "},"z":{"ha":657,"x_min":10,"x_max":647,"o":"m 228 128 l 453 128 l 585 140 l 590 132 l 558 -4 l 382 0 l 103 0 l 10 -4 l 25 117 l 433 571 l 214 571 l 88 558 l 83 568 l 113 703 l 647 701 l 632 578 l 228 128 z "},"{":{"ha":410,"x_min":44,"x_max":463,"o":"m 371 913 q 457 900 407 913 l 463 886 l 436 794 q 389 801 408 801 q 300 689 300 801 q 306 615 300 665 q 311 543 311 563 q 197 376 311 426 l 196 369 q 275 244 275 331 q 244 128 275 208 q 215 14 215 46 q 283 -57 215 -57 q 333 -50 301 -57 l 338 -142 l 328 -154 q 238 -167 282 -167 q 113 -131 156 -167 q 69 -26 69 -94 q 103 125 69 19 q 129 233 129 201 q 44 331 129 308 l 54 414 q 167 554 167 443 q 164 622 167 572 q 160 703 160 663 q 371 913 160 913 z "},"|":{"ha":428,"x_min":63,"x_max":381,"o":"m 290 403 l 199 -351 l 74 -361 l 63 -344 l 153 390 l 242 1104 l 369 1115 l 381 1103 l 290 403 z "},"}":{"ha":410,"x_min":-40,"x_max":378,"o":"m 51 -168 q -35 -156 15 -168 l -40 -142 l -14 -50 q 33 -57 14 -57 q 122 56 122 -57 q 117 129 122 79 q 111 201 111 182 q 225 368 111 318 l 226 375 q 147 500 147 414 q 178 617 147 536 q 207 731 207 699 q 139 801 207 801 q 89 794 121 801 l 85 886 l 94 899 q 185 911 140 911 q 310 875 267 911 q 353 771 353 839 q 319 619 353 725 q 293 511 293 543 q 378 414 293 436 l 368 331 q 256 190 256 301 q 258 122 256 172 q 263 42 263 82 q 51 -168 263 -168 z "},"~":{"ha":667,"x_min":42,"x_max":635,"o":"m 208 331 q 174 317 192 331 q 121 272 156 304 l 100 253 l 83 253 l 42 313 l 44 329 l 174 456 l 192 464 q 321 428 229 457 q 469 390 442 390 q 505 403 486 390 q 546 437 524 417 q 579 467 568 457 l 596 467 l 635 408 l 633 392 l 506 264 l 486 258 q 340 297 450 263 q 208 331 229 331 z "}," ":{"ha":192,"x_min":0,"x_max":0,"o":""},"¡":{"ha":379,"x_min":15,"x_max":314,"o":"m 135 322 l 239 336 l 256 318 l 196 -244 l 178 -265 l 33 -274 l 15 -253 l 135 322 m 215 467 q 149 491 172 467 q 125 558 125 515 q 151 633 125 606 q 222 660 178 660 q 290 635 265 660 q 314 567 314 611 q 288 494 314 521 q 215 467 261 467 z "},"¢":{"ha":539,"x_min":40,"x_max":522,"o":"m 354 593 q 228 522 274 593 q 183 324 183 451 q 203 209 183 244 q 267 174 224 174 q 404 285 339 174 l 425 283 l 475 221 q 304 63 404 106 l 267 -171 l 178 -171 l 168 -156 l 199 53 q 78 128 117 72 q 40 296 40 185 q 106 556 40 447 q 301 696 172 664 l 333 910 l 421 910 l 436 896 l 407 708 l 514 678 l 522 660 l 481 547 l 449 544 q 354 593 400 593 z "},"£":{"ha":621,"x_min":-8,"x_max":629,"o":"m 474 826 q 629 804 543 826 l 606 675 l 593 667 q 449 711 514 711 q 326 601 340 711 l 310 476 l 486 476 l 492 467 l 472 379 l 297 379 l 281 257 q 259 180 275 210 q 211 126 243 150 l 211 122 l 413 122 l 551 132 l 557 122 l 529 -4 l 358 0 l -3 0 l -8 10 l 10 107 q 129 246 115 132 l 144 379 l 44 379 l 40 389 l 58 476 l 157 476 l 168 575 q 261 761 182 696 q 474 826 340 826 z "},"¤":{"ha":604,"x_min":13,"x_max":629,"o":"m 626 679 l 521 593 q 539 507 539 558 q 497 386 539 440 l 585 303 l 585 286 l 497 204 l 481 206 l 407 300 q 294 268 354 268 q 196 297 239 268 l 103 201 l 86 200 l 13 278 l 17 294 l 121 379 q 101 465 101 415 q 144 589 101 528 l 60 671 l 60 688 l 147 769 l 163 768 l 238 672 q 347 703 290 703 q 443 675 403 703 l 539 772 l 557 774 l 629 696 l 626 679 m 336 606 q 240 567 279 606 q 200 472 200 529 q 229 394 200 424 q 306 365 258 365 q 403 403 364 365 q 443 500 443 442 q 413 576 443 547 q 336 606 383 606 z "},"¥":{"ha":765,"x_min":33,"x_max":760,"o":"m 728 419 l 713 344 l 514 344 l 440 238 l 696 238 l 704 229 l 690 156 l 422 156 l 408 0 l 256 0 l 281 156 l 40 156 l 33 164 l 47 238 l 288 238 l 244 344 l 63 344 l 57 354 l 71 428 l 211 428 l 103 699 l 265 699 l 276 650 l 379 389 l 390 389 l 572 644 l 601 699 l 760 699 l 572 428 l 721 428 l 728 419 z "},"¦":{"ha":428,"x_min":63,"x_max":381,"o":"m 306 524 l 181 508 l 169 519 l 240 1104 l 369 1115 l 381 1103 l 306 524 m 199 -351 l 75 -361 l 63 -344 l 131 208 l 254 222 l 267 207 l 199 -351 z "},"§":{"ha":611,"x_min":-1,"x_max":597,"o":"m 300 719 q 324 673 300 693 q 404 619 349 653 q 494 561 460 586 q 553 498 528 536 q 578 411 578 460 q 535 292 578 347 q 422 206 493 238 q 483 79 483 147 q 446 -29 483 21 q 344 -108 408 -79 q 203 -137 281 -137 q 99 -126 156 -137 q -1 -96 42 -114 l 36 42 l 53 53 q 140 -6 92 15 q 231 -28 189 -28 q 304 -5 275 -28 q 333 46 333 18 q 307 94 333 72 q 226 147 281 117 q 138 203 172 178 q 78 267 103 229 q 53 354 53 306 q 95 475 53 419 q 208 564 138 531 q 149 688 149 621 q 185 796 149 746 q 287 875 222 846 q 428 904 351 904 q 597 872 521 904 l 561 740 l 539 733 q 393 790 461 790 q 326 768 353 790 q 300 719 300 746 m 338 267 q 426 367 426 306 q 395 433 426 406 q 296 501 364 460 q 206 399 206 460 q 238 334 206 361 q 338 267 269 307 z "},"¨":{"ha":542,"x_min":129,"x_max":542,"o":"m 219 944 q 278 922 257 944 q 300 861 300 900 q 276 794 300 818 q 213 769 253 769 q 129 854 129 769 q 153 920 129 896 q 219 944 178 944 m 461 943 q 521 921 500 943 q 542 860 542 899 q 518 793 542 818 q 454 768 494 768 q 372 853 372 768 q 396 919 372 894 q 461 943 419 943 z "},"©":{"ha":963,"x_min":75,"x_max":907,"o":"m 490 831 q 708 778 614 831 q 855 629 803 725 q 907 407 907 533 q 855 185 907 281 q 708 36 803 89 q 490 -17 614 -17 q 273 36 367 -17 q 127 185 179 89 q 75 407 75 281 q 127 629 75 533 q 273 778 179 725 q 490 831 367 831 m 490 767 q 306 722 386 767 q 183 596 226 678 q 139 407 139 514 q 183 218 139 300 q 306 92 226 136 q 490 47 386 47 q 675 92 594 47 q 799 218 756 136 q 843 407 843 300 q 799 596 843 514 q 675 722 756 678 q 490 767 594 767 m 521 646 q 644 622 581 646 l 622 526 l 615 522 q 517 546 572 546 q 435 516 461 546 q 408 419 408 486 q 521 276 408 276 q 624 296 576 276 l 635 292 l 625 196 q 513 176 572 176 q 340 235 397 176 q 282 407 282 294 q 344 583 282 521 q 521 646 407 646 z "},"ª":{"ha":449,"x_min":71,"x_max":463,"o":"m 417 561 l 411 460 l 294 451 l 315 613 l 303 613 q 190 449 247 506 l 172 449 q 93 503 115 468 q 71 597 71 538 q 128 786 71 701 q 293 897 185 871 l 300 897 l 378 886 l 451 903 l 463 896 l 417 561 m 206 556 q 256 608 221 556 q 333 753 292 661 l 338 788 l 339 800 l 276 813 q 206 765 231 811 q 181 643 181 718 q 188 577 181 599 q 206 556 196 556 z "},"«":{"ha":594,"x_min":46,"x_max":603,"o":"m 50 335 l 268 575 l 347 529 l 349 511 l 179 315 l 301 119 l 296 103 l 206 57 l 46 306 l 50 335 m 304 335 l 522 575 l 601 529 l 603 511 l 433 315 l 556 119 l 550 103 l 460 57 l 300 306 l 304 335 z "},"¬":{"ha":667,"x_min":31,"x_max":610,"o":"m 568 71 l 458 61 l 446 74 l 474 301 l 42 301 l 31 314 l 54 424 l 603 424 l 610 413 l 568 71 z "},"­":{"ha":422,"x_min":33,"x_max":396,"o":"m 383 315 l 46 265 l 33 279 l 47 392 l 383 440 l 396 428 l 383 315 z "},"®":{"ha":618,"x_min":51,"x_max":568,"o":"m 310 975 q 497 904 426 975 q 568 718 568 833 q 497 530 568 601 q 310 458 426 458 q 122 530 193 458 q 51 718 51 601 q 122 904 51 833 q 310 975 193 975 m 310 504 q 464 563 406 504 q 522 718 522 622 q 464 872 522 814 q 310 929 406 929 q 156 872 214 929 q 97 718 97 814 q 156 563 97 622 q 310 504 215 504 m 422 779 q 371 697 422 729 q 440 606 399 657 l 439 599 q 374 586 421 592 l 365 592 q 315 679 338 636 l 272 679 l 272 678 l 276 592 l 210 592 l 213 671 l 210 861 l 326 863 q 422 779 422 863 m 318 728 q 353 774 353 742 q 304 813 353 811 l 276 811 l 274 731 l 318 728 z "},"¯":{"ha":542,"x_min":131,"x_max":542,"o":"m 532 801 l 143 801 l 131 814 l 140 915 l 529 915 l 542 903 l 532 801 z "},"°":{"ha":407,"x_min":71,"x_max":435,"o":"m 275 906 q 390 860 344 906 q 435 746 435 814 q 406 647 435 692 q 331 574 378 601 q 232 547 285 547 q 117 594 163 547 q 71 708 71 640 q 99 806 71 761 q 175 878 128 851 q 275 906 222 906 m 265 828 q 184 795 218 828 q 150 717 150 763 q 176 652 150 678 q 240 626 201 626 q 322 659 288 626 q 356 738 356 692 q 330 802 356 776 q 265 828 304 828 z "},"±":{"ha":664,"x_min":-19,"x_max":642,"o":"m 404 424 l 631 424 l 642 411 l 619 301 l 390 301 l 363 71 l 251 61 l 239 74 l 267 301 l 40 301 l 31 314 l 53 424 l 282 424 l 310 654 l 421 663 l 433 650 l 404 424 m 572 -158 l -7 -158 l -19 -146 l -10 -36 l 569 -36 l 582 -49 l 572 -158 z "},"²":{"ha":500,"x_min":40,"x_max":474,"o":"m 307 979 q 420 947 375 979 q 465 860 465 914 q 433 769 465 818 q 324 640 401 721 l 238 550 l 240 546 l 374 546 l 468 553 l 474 543 l 446 433 l 317 439 l 85 439 l 47 438 l 40 442 l 50 525 l 200 668 q 290 763 264 731 q 317 824 317 796 q 303 853 317 842 q 265 865 289 865 q 197 848 235 865 q 125 801 158 831 l 110 801 l 97 907 q 307 979 210 979 z "},"³":{"ha":444,"x_min":67,"x_max":454,"o":"m 286 981 q 406 947 358 981 q 454 861 454 914 q 429 787 454 824 q 351 726 404 750 l 350 721 q 439 611 439 696 q 365 481 439 531 q 171 431 290 431 q 67 442 115 431 l 71 540 l 81 549 q 185 533 139 533 q 270 553 239 533 q 301 604 301 572 q 232 656 301 653 l 163 656 l 156 664 l 168 757 l 213 758 q 278 780 250 760 q 307 831 307 800 q 250 872 307 872 q 136 835 207 872 l 121 835 l 110 928 q 286 981 200 981 z "},"´":{"ha":542,"x_min":168,"x_max":501,"o":"m 501 904 l 497 888 q 229 722 347 790 l 213 724 l 168 792 q 418 1003 300 894 l 436 1001 l 501 904 z "},"µ":{"ha":693,"x_min":11,"x_max":646,"o":"m 578 156 l 572 7 l 406 -6 l 440 246 l 426 246 q 222 -6 322 76 l 207 -6 l 197 -4 l 183 -106 l 178 -257 l 11 -269 l 115 494 l 121 639 l 286 650 l 226 211 l 225 200 q 253 169 225 169 q 341 242 285 169 q 469 456 397 314 l 475 494 l 481 639 l 646 650 l 578 156 z "},"¶":{"ha":724,"x_min":68,"x_max":767,"o":"m 739 756 l 644 756 l 579 272 l 571 189 q 489 11 557 82 q 268 -118 421 -60 l 229 -36 l 232 -18 q 353 70 314 24 q 399 181 392 117 l 408 250 l 465 757 l 400 757 q 297 697 333 746 q 261 569 261 647 q 371 389 261 446 l 297 296 q 127 391 186 322 q 68 563 68 460 q 171 805 68 717 q 453 893 274 893 l 756 893 l 767 879 l 739 756 z "},"·":{"ha":319,"x_min":68,"x_max":257,"o":"m 167 446 q 233 422 210 446 q 257 354 257 397 q 231 280 257 307 q 160 253 204 253 q 92 277 115 253 q 68 346 68 301 q 94 419 68 392 q 167 446 121 446 z "},"¸":{"ha":542,"x_min":83,"x_max":326,"o":"m 269 -93 q 326 -175 326 -124 q 291 -250 326 -221 q 197 -279 256 -279 q 83 -239 136 -279 l 97 -162 l 106 -160 q 186 -201 147 -201 q 221 -171 221 -201 q 197 -143 221 -156 l 129 -104 l 161 35 l 249 35 l 222 -67 l 269 -93 z "},"¹":{"ha":381,"x_min":74,"x_max":356,"o":"m 308 629 l 290 439 l 147 439 l 174 614 l 199 825 l 82 801 l 74 808 l 88 917 l 339 981 l 356 967 l 308 629 z "},"º":{"ha":429,"x_min":71,"x_max":439,"o":"m 317 901 q 439 746 439 879 q 376 533 439 613 q 204 447 314 454 l 193 450 q 71 611 71 468 q 134 817 71 738 q 304 901 197 896 l 317 901 m 285 814 q 183 610 183 814 q 194 549 183 567 q 228 532 204 532 q 325 738 325 532 q 316 797 325 779 q 285 814 307 814 z "},"»":{"ha":590,"x_min":-6,"x_max":550,"o":"m 546 300 l 328 60 l 249 106 l 247 124 l 417 319 l 294 515 l 300 532 l 390 578 l 550 329 l 546 300 m 293 300 l 75 60 l -4 106 l -6 124 l 164 319 l 42 515 l 47 532 l 138 578 l 297 329 l 293 300 z "},"¼":{"ha":1031,"x_min":13,"x_max":981,"o":"m 89 -128 l 18 -82 l 13 -62 l 788 951 l 856 907 l 864 882 l 89 -128 m 64 729 l 78 838 l 329 901 l 346 888 l 299 550 l 281 360 l 138 360 l 164 535 l 189 746 l 72 722 l 64 729 m 888 122 l 881 10 l 871 0 l 758 -6 l 753 1 l 771 124 l 626 124 l 536 119 l 529 131 l 539 218 l 808 535 l 939 535 l 899 228 l 974 228 l 981 215 l 963 119 l 888 122 m 785 228 l 804 383 l 796 383 l 663 228 l 785 228 z "},"½":{"ha":1024,"x_min":14,"x_max":964,"o":"m 865 882 l 90 -128 l 19 -82 l 14 -62 l 789 951 l 857 907 l 865 882 m 299 550 l 281 360 l 138 360 l 164 535 l 189 746 l 72 722 l 64 729 l 78 838 l 329 901 l 346 888 l 299 550 m 797 540 q 910 508 865 540 q 956 421 956 475 q 924 331 956 379 q 814 201 892 282 l 728 111 l 731 107 l 864 107 l 958 114 l 964 104 l 936 -6 l 807 0 l 575 0 l 538 -1 l 531 3 l 540 86 l 690 229 q 781 324 754 292 q 807 385 807 357 q 793 415 807 403 q 756 426 779 426 q 687 409 725 426 q 615 363 649 392 l 600 363 l 588 468 q 797 540 700 540 z "},"¾":{"ha":1094,"x_min":50,"x_max":1044,"o":"m 153 -128 l 82 -82 l 76 -62 l 851 951 l 919 907 l 928 882 l 153 -128 m 422 532 q 348 401 422 451 q 154 351 274 351 q 50 363 99 351 l 54 461 l 64 469 q 168 454 122 454 q 253 474 222 454 q 285 525 285 493 q 215 576 285 574 l 146 576 l 139 585 l 151 678 l 196 679 q 262 701 233 681 q 290 751 290 721 q 233 793 290 793 q 119 756 190 793 l 104 756 l 93 849 q 269 901 183 901 q 390 868 342 901 q 438 782 438 835 q 413 708 438 744 q 335 647 388 671 l 333 642 q 422 532 422 617 m 951 122 l 944 10 l 935 0 l 822 -6 l 817 1 l 835 124 l 690 124 l 600 119 l 593 131 l 603 218 l 872 535 l 1003 535 l 963 228 l 1038 228 l 1044 215 l 1026 119 l 951 122 m 849 228 l 868 383 l 860 383 l 726 228 l 849 228 z "},"¿":{"ha":472,"x_min":-57,"x_max":386,"o":"m 296 -278 q 34 -215 125 -268 q -57 -71 -57 -162 q -17 44 -57 -10 q 94 138 22 99 l 203 199 l 206 206 l 211 324 l 340 340 l 351 328 l 344 156 l 335 142 l 201 75 q 110 -42 110 32 q 166 -120 110 -92 q 347 -157 222 -149 l 358 -174 l 314 -268 l 296 -278 m 288 467 q 221 491 244 467 q 197 558 197 515 q 224 633 197 606 q 294 660 250 660 q 363 635 339 660 q 386 567 386 611 q 360 494 386 521 q 288 467 333 467 z "},"À":{"ha":810,"x_min":-28,"x_max":749,"o":"m 564 0 l 556 115 l 543 203 l 375 206 l 226 203 l 193 125 l 153 0 l -28 0 l 376 893 l 594 893 l 749 0 l 564 0 m 467 721 l 454 721 l 290 346 l 404 343 l 522 344 l 467 721 m 393 1235 q 681 1079 518 1160 l 651 1003 l 633 997 q 336 1107 431 1069 l 331 1124 l 376 1231 l 393 1235 z "},"Á":{"ha":810,"x_min":-28,"x_max":749,"o":"m 564 0 l 556 115 l 543 203 l 375 206 l 226 203 l 193 125 l 153 0 l -28 0 l 376 893 l 594 893 l 749 0 l 564 0 m 467 721 l 454 721 l 290 346 l 404 343 l 522 344 l 467 721 m 690 1121 l 685 1104 q 388 996 561 1056 l 369 1001 l 340 1076 q 628 1232 490 1151 l 644 1228 l 690 1121 z "},"Â":{"ha":810,"x_min":-28,"x_max":749,"o":"m 564 0 l 556 115 l 543 203 l 375 206 l 226 203 l 193 125 l 153 0 l -28 0 l 376 893 l 594 893 l 749 0 l 564 0 m 467 721 l 454 721 l 290 346 l 404 343 l 522 344 l 467 721 m 303 1082 q 497 1225 415 1154 l 536 1225 q 708 1082 606 1157 l 667 1010 l 649 1010 q 511 1099 592 1044 q 401 1039 463 1071 l 346 1010 l 328 1010 l 303 1082 z "},"Ã":{"ha":810,"x_min":-28,"x_max":749,"o":"m 564 0 l 556 115 l 543 203 l 375 206 l 226 203 l 193 125 l 153 0 l -28 0 l 376 893 l 594 893 l 749 0 l 564 0 m 467 721 l 454 721 l 290 346 l 404 343 l 522 344 l 467 721 m 747 1151 l 650 1029 l 633 1022 q 517 1050 608 1025 q 418 1072 433 1072 q 388 1060 403 1072 q 358 1028 374 1047 q 333 1000 342 1010 l 317 1000 l 263 1054 l 263 1069 l 360 1192 l 376 1197 q 493 1171 393 1194 q 592 1149 567 1149 q 622 1160 607 1149 q 652 1191 636 1172 q 678 1219 668 1210 l 693 1219 l 747 1167 l 747 1151 z "},"Ä":{"ha":810,"x_min":-28,"x_max":749,"o":"m 564 0 l 556 115 l 543 203 l 375 206 l 226 203 l 193 125 l 153 0 l -28 0 l 376 893 l 594 893 l 749 0 l 564 0 m 467 721 l 454 721 l 290 346 l 404 343 l 522 344 l 467 721 m 388 1193 q 447 1171 425 1193 q 468 1110 468 1149 q 444 1042 468 1067 q 381 1018 421 1018 q 297 1103 297 1018 q 322 1169 297 1144 q 388 1193 346 1193 m 629 1192 q 689 1169 668 1192 q 710 1108 710 1147 q 686 1042 710 1067 q 622 1017 663 1017 q 540 1101 540 1017 q 564 1167 540 1143 q 629 1192 588 1192 z "},"Å":{"ha":810,"x_min":-28,"x_max":749,"o":"m 564 0 l 556 115 l 543 203 l 375 206 l 226 203 l 193 125 l 153 0 l -28 0 l 376 893 l 594 893 l 749 0 l 564 0 m 467 721 l 454 721 l 290 346 l 404 343 l 522 344 l 467 721 m 510 1253 q 606 1219 572 1253 q 639 1126 639 1186 q 602 1026 639 1061 q 503 990 565 990 q 409 1024 443 990 q 375 1121 375 1058 q 410 1218 375 1183 q 510 1253 444 1253 m 506 1175 q 450 1124 450 1175 q 507 1067 450 1067 q 564 1119 564 1067 q 506 1175 564 1175 z "},"Æ":{"ha":1108,"x_min":-62,"x_max":1075,"o":"m 1046 0 l 522 0 l 529 115 l 531 310 l 236 233 l 174 125 l 119 0 l -62 0 l 465 893 l 1058 893 l 1067 879 l 1038 742 l 828 749 l 710 749 l 707 494 l 978 563 l 990 551 l 989 422 l 706 356 l 704 143 l 843 143 l 1065 151 l 1075 138 l 1046 0 m 532 721 l 521 721 l 332 397 l 531 449 l 532 721 z "},"Ç":{"ha":704,"x_min":51,"x_max":751,"o":"m 522 904 q 751 851 654 904 l 700 696 l 685 690 q 503 754 604 754 q 312 661 376 754 q 247 389 247 568 q 433 142 247 142 q 640 203 542 142 l 656 193 l 622 36 q 450 -11 533 -3 l 436 -65 l 483 -92 q 540 -174 540 -122 q 505 -249 540 -219 q 411 -278 469 -278 q 297 -237 350 -278 l 311 -161 l 319 -158 q 400 -200 361 -200 q 435 -169 435 -200 q 411 -142 435 -154 l 343 -103 l 364 -11 q 132 97 213 1 q 51 360 51 193 q 107 651 51 529 q 268 839 163 774 q 522 904 374 904 z "},"È":{"ha":690,"x_min":67,"x_max":738,"o":"m 314 526 l 463 525 l 604 529 l 614 515 l 583 378 l 431 382 l 293 381 l 279 283 l 265 146 l 419 144 l 633 151 l 640 138 l 613 0 l 67 0 l 110 267 l 179 893 l 729 893 l 738 879 l 707 742 l 500 749 l 344 747 l 314 526 m 360 1235 q 647 1079 485 1160 l 618 1003 l 600 997 q 303 1107 397 1069 l 297 1124 l 343 1231 l 360 1235 z "},"É":{"ha":690,"x_min":67,"x_max":738,"o":"m 314 526 l 463 525 l 604 529 l 614 515 l 583 378 l 431 382 l 293 381 l 279 283 l 265 146 l 419 144 l 633 151 l 640 138 l 613 0 l 67 0 l 110 267 l 179 893 l 729 893 l 738 879 l 707 742 l 500 749 l 344 747 l 314 526 m 657 1121 l 651 1104 q 354 996 528 1056 l 336 1001 l 307 1076 q 594 1232 457 1151 l 611 1228 l 657 1121 z "},"Ê":{"ha":690,"x_min":67,"x_max":738,"o":"m 314 526 l 463 525 l 604 529 l 614 515 l 583 378 l 431 382 l 293 381 l 279 283 l 265 146 l 419 144 l 633 151 l 640 138 l 613 0 l 67 0 l 110 267 l 179 893 l 729 893 l 738 879 l 707 742 l 500 749 l 344 747 l 314 526 m 271 1082 q 465 1225 383 1154 l 504 1225 q 676 1082 574 1157 l 635 1010 l 617 1010 q 479 1099 560 1044 q 369 1039 431 1071 l 314 1010 l 296 1010 l 271 1082 z "},"Ë":{"ha":690,"x_min":67,"x_max":738,"o":"m 314 526 l 463 525 l 604 529 l 614 515 l 583 378 l 431 382 l 293 381 l 279 283 l 265 146 l 419 144 l 633 151 l 640 138 l 613 0 l 67 0 l 110 267 l 179 893 l 729 893 l 738 879 l 707 742 l 500 749 l 344 747 l 314 526 m 356 1193 q 415 1171 393 1193 q 436 1110 436 1149 q 413 1042 436 1067 q 349 1018 389 1018 q 265 1103 265 1018 q 290 1169 265 1144 q 356 1193 314 1193 m 597 1192 q 657 1169 636 1192 q 678 1108 678 1147 q 654 1042 678 1067 q 590 1017 631 1017 q 508 1101 508 1017 q 532 1167 508 1143 q 597 1192 556 1192 z "},"Ì":{"ha":401,"x_min":67,"x_max":472,"o":"m 251 0 l 67 0 l 110 267 l 178 893 l 364 893 l 278 283 l 251 0 m 185 1235 q 472 1079 310 1160 l 443 1003 l 425 997 q 128 1107 222 1069 l 122 1124 l 168 1231 l 185 1235 z "},"Í":{"ha":401,"x_min":67,"x_max":482,"o":"m 251 0 l 67 0 l 110 267 l 178 893 l 364 893 l 278 283 l 251 0 m 482 1121 l 476 1104 q 179 996 353 1056 l 161 1001 l 132 1076 q 419 1232 282 1151 l 436 1228 l 482 1121 z "},"Î":{"ha":401,"x_min":67,"x_max":500,"o":"m 251 0 l 67 0 l 110 267 l 178 893 l 364 893 l 278 283 l 251 0 m 94 1082 q 289 1225 207 1154 l 328 1225 q 500 1082 397 1157 l 458 1010 l 440 1010 q 303 1099 383 1044 q 193 1039 254 1071 l 138 1010 l 119 1010 l 94 1082 z "},"Ï":{"ha":401,"x_min":67,"x_max":486,"o":"m 251 0 l 67 0 l 110 267 l 178 893 l 364 893 l 278 283 l 251 0 m 194 1192 q 255 1169 233 1192 q 276 1108 276 1147 q 253 1042 276 1067 q 189 1017 229 1017 q 106 1101 106 1017 q 129 1167 106 1143 q 194 1192 153 1192 m 406 1192 q 465 1169 443 1192 q 486 1108 486 1147 q 463 1042 486 1067 q 399 1017 439 1017 q 315 1101 315 1017 q 339 1167 315 1143 q 406 1192 363 1192 z "},"Ð":{"ha":928,"x_min":36,"x_max":910,"o":"m 556 899 q 817 808 724 899 q 910 550 910 717 q 782 139 910 288 q 418 -10 654 -10 q 106 0 258 -10 l 149 267 l 161 383 l 43 383 l 36 396 l 51 506 l 175 506 l 217 893 l 556 899 m 458 132 q 649 228 582 132 q 717 521 717 325 q 672 697 717 640 q 533 753 626 753 q 381 747 478 753 l 347 506 l 514 506 l 521 493 l 507 383 l 329 383 l 315 283 l 303 143 q 458 132 389 132 z "},"Ñ":{"ha":942,"x_min":68,"x_max":908,"o":"m 793 0 l 596 0 l 318 613 l 306 613 l 267 307 l 236 0 l 68 0 l 110 264 l 179 893 l 376 893 l 654 281 l 667 281 l 738 886 l 908 897 l 819 275 l 793 0 m 811 1151 l 714 1029 l 697 1022 q 581 1050 672 1025 q 482 1072 497 1072 q 452 1060 467 1072 q 422 1028 438 1047 q 397 1000 406 1010 l 381 1000 l 326 1054 l 326 1069 l 424 1192 l 440 1197 q 557 1171 457 1194 q 656 1149 631 1149 q 685 1160 671 1149 q 716 1191 700 1172 q 742 1219 732 1210 l 757 1219 l 811 1167 l 811 1151 z "},"Ò":{"ha":876,"x_min":51,"x_max":860,"o":"m 513 906 q 769 810 678 906 q 860 533 860 715 q 806 246 860 369 q 647 54 751 122 q 397 -14 543 -14 q 142 84 233 -14 q 51 365 51 182 q 105 651 51 529 q 262 840 158 774 q 513 906 365 906 m 490 757 q 303 665 365 757 q 242 369 242 572 q 283 185 242 243 q 415 128 324 128 q 603 221 540 128 q 665 518 665 314 q 624 701 665 644 q 490 757 583 757 m 424 1235 q 711 1079 549 1160 l 682 1003 l 664 997 q 367 1107 461 1069 l 361 1124 l 407 1231 l 424 1235 z "},"Ó":{"ha":876,"x_min":51,"x_max":860,"o":"m 513 906 q 769 810 678 906 q 860 533 860 715 q 806 246 860 369 q 647 54 751 122 q 397 -14 543 -14 q 142 84 233 -14 q 51 365 51 182 q 105 651 51 529 q 262 840 158 774 q 513 906 365 906 m 490 757 q 303 665 365 757 q 242 369 242 572 q 283 185 242 243 q 415 128 324 128 q 603 221 540 128 q 665 518 665 314 q 624 701 665 644 q 490 757 583 757 m 721 1121 l 715 1104 q 418 996 592 1056 l 400 1001 l 371 1076 q 658 1232 521 1151 l 675 1228 l 721 1121 z "},"Ô":{"ha":876,"x_min":51,"x_max":860,"o":"m 513 906 q 769 810 678 906 q 860 533 860 715 q 806 246 860 369 q 647 54 751 122 q 397 -14 543 -14 q 142 84 233 -14 q 51 365 51 182 q 105 651 51 529 q 262 840 158 774 q 513 906 365 906 m 490 757 q 303 665 365 757 q 242 369 242 572 q 283 185 242 243 q 415 128 324 128 q 603 221 540 128 q 665 518 665 314 q 624 701 665 644 q 490 757 583 757 m 333 1082 q 528 1225 446 1154 l 567 1225 q 739 1082 636 1157 l 697 1010 l 679 1010 q 542 1099 622 1044 q 432 1039 493 1071 l 376 1010 l 358 1010 l 333 1082 z "},"Õ":{"ha":876,"x_min":51,"x_max":860,"o":"m 513 906 q 769 810 678 906 q 860 533 860 715 q 806 246 860 369 q 647 54 751 122 q 397 -14 543 -14 q 142 84 233 -14 q 51 365 51 182 q 105 651 51 529 q 262 840 158 774 q 513 906 365 906 m 490 757 q 303 665 365 757 q 242 369 242 572 q 283 185 242 243 q 415 128 324 128 q 603 221 540 128 q 665 518 665 314 q 624 701 665 644 q 490 757 583 757 m 776 1151 l 679 1029 l 663 1022 q 546 1050 638 1025 q 447 1072 463 1072 q 417 1060 432 1072 q 387 1028 403 1047 q 363 1000 371 1010 l 346 1000 l 292 1054 l 292 1069 l 389 1192 l 406 1197 q 522 1171 422 1194 q 621 1149 596 1149 q 651 1160 636 1149 q 681 1191 665 1172 q 707 1219 697 1210 l 722 1219 l 776 1167 l 776 1151 z "},"Ö":{"ha":876,"x_min":51,"x_max":860,"o":"m 513 906 q 769 810 678 906 q 860 533 860 715 q 806 246 860 369 q 647 54 751 122 q 397 -14 543 -14 q 142 84 233 -14 q 51 365 51 182 q 105 651 51 529 q 262 840 158 774 q 513 906 365 906 m 490 757 q 303 665 365 757 q 242 369 242 572 q 283 185 242 243 q 415 128 324 128 q 603 221 540 128 q 665 518 665 314 q 624 701 665 644 q 490 757 583 757 m 418 1193 q 477 1171 456 1193 q 499 1110 499 1149 q 475 1042 499 1067 q 411 1018 451 1018 q 328 1103 328 1018 q 352 1169 328 1144 q 418 1193 376 1193 m 660 1192 q 719 1169 699 1192 q 740 1108 740 1147 q 717 1042 740 1067 q 653 1017 693 1017 q 571 1101 571 1017 q 594 1167 571 1143 q 660 1192 618 1192 z "},"×":{"ha":668,"x_min":69,"x_max":608,"o":"m 607 522 l 426 363 l 565 201 l 564 185 l 471 113 l 329 275 l 144 113 l 69 185 l 72 200 l 253 363 l 113 522 l 114 540 l 206 611 l 350 449 l 532 611 l 608 540 l 607 522 z "},"Ø":{"ha":876,"x_min":51,"x_max":860,"o":"m 751 826 q 860 533 860 731 q 806 245 860 368 q 649 54 753 122 q 397 -14 544 -14 q 267 6 328 -14 l 168 -162 l 72 -119 l 67 -104 l 165 63 q 51 365 51 161 q 105 651 51 529 q 263 840 158 774 q 513 906 367 906 q 649 885 589 906 l 731 1022 l 824 981 l 832 961 l 751 826 m 415 128 q 603 221 540 128 q 667 518 667 314 q 626 700 667 643 q 492 757 585 757 q 303 665 365 757 q 242 369 242 572 q 283 185 242 243 q 415 128 324 128 z "},"Ù":{"ha":864,"x_min":81,"x_max":851,"o":"m 774 324 q 658 74 756 161 q 393 -12 561 -12 q 164 55 247 -12 q 81 247 81 122 q 86 315 81 283 l 104 444 l 154 893 l 338 893 l 261 340 q 257 288 257 311 q 407 139 257 139 q 606 331 583 139 l 667 893 l 851 893 l 789 440 l 774 324 m 418 1235 q 706 1079 543 1160 l 676 1003 l 658 997 q 361 1107 456 1069 l 356 1124 l 401 1231 l 418 1235 z "},"Ú":{"ha":864,"x_min":81,"x_max":851,"o":"m 774 324 q 658 74 756 161 q 393 -12 561 -12 q 164 55 247 -12 q 81 247 81 122 q 86 315 81 283 l 104 444 l 154 893 l 338 893 l 261 340 q 257 288 257 311 q 407 139 257 139 q 606 331 583 139 l 667 893 l 851 893 l 789 440 l 774 324 m 715 1121 l 710 1104 q 413 996 586 1056 l 394 1001 l 365 1076 q 653 1232 515 1151 l 669 1228 l 715 1121 z "},"Û":{"ha":864,"x_min":81,"x_max":851,"o":"m 774 324 q 658 74 756 161 q 393 -12 561 -12 q 164 55 247 -12 q 81 247 81 122 q 86 315 81 283 l 104 444 l 154 893 l 338 893 l 261 340 q 257 288 257 311 q 407 139 257 139 q 606 331 583 139 l 667 893 l 851 893 l 789 440 l 774 324 m 328 1082 q 522 1225 440 1154 l 561 1225 q 733 1082 631 1157 l 692 1010 l 674 1010 q 536 1099 617 1044 q 426 1039 488 1071 l 371 1010 l 353 1010 l 328 1082 z "},"Ü":{"ha":864,"x_min":81,"x_max":851,"o":"m 774 324 q 658 74 756 161 q 393 -12 561 -12 q 164 55 247 -12 q 81 247 81 122 q 86 315 81 283 l 104 444 l 154 893 l 338 893 l 261 340 q 257 288 257 311 q 407 139 257 139 q 606 331 583 139 l 667 893 l 851 893 l 789 440 l 774 324 m 413 1193 q 472 1171 450 1193 q 493 1110 493 1149 q 469 1042 493 1067 q 406 1018 446 1018 q 322 1103 322 1018 q 347 1169 322 1144 q 413 1193 371 1193 m 654 1192 q 714 1169 693 1192 q 735 1108 735 1147 q 711 1042 735 1067 q 647 1017 688 1017 q 565 1101 565 1017 q 589 1167 565 1143 q 654 1192 613 1192 z "},"Ý":{"ha":754,"x_min":78,"x_max":828,"o":"m 440 250 l 417 0 l 233 0 l 275 250 l 281 307 l 78 893 l 268 893 l 279 833 l 385 489 l 397 489 l 603 828 l 636 893 l 828 893 l 450 306 l 440 250 m 661 1121 l 656 1104 q 358 996 532 1056 l 340 1001 l 311 1076 q 599 1232 461 1151 l 615 1228 l 661 1121 z "},"Þ":{"ha":760,"x_min":68,"x_max":754,"o":"m 490 753 q 684 692 614 753 q 754 517 754 632 q 706 328 754 411 q 570 197 658 244 q 365 150 482 150 l 267 150 l 253 0 l 68 0 l 110 267 l 179 893 l 365 893 l 346 753 l 490 753 m 422 285 q 526 355 489 301 q 564 489 564 408 q 533 583 564 551 q 431 618 501 614 l 326 613 l 281 290 l 422 285 z "},"ß":{"ha":801,"x_min":43,"x_max":751,"o":"m 457 711 q 598 693 532 711 q 746 636 664 675 l 750 614 l 569 414 q 710 319 668 363 q 751 214 751 275 q 671 47 751 106 q 472 -11 590 -11 q 275 33 364 -11 l 315 190 l 331 197 q 478 125 407 125 q 542 147 517 125 q 567 201 567 168 q 523 265 567 238 q 364 342 479 293 l 363 364 l 529 549 q 424 575 476 575 q 265 447 282 575 l 233 224 l 213 0 l 43 0 l 76 206 l 103 447 q 210 640 118 568 q 457 711 303 711 z "},"à":{"ha":718,"x_min":-17,"x_max":644,"o":"m 474 0 l 469 99 l 463 143 l 322 146 l 200 143 l 183 108 l 149 0 l -17 0 l 313 701 l 513 701 l 644 0 l 474 0 m 394 546 l 383 546 l 258 272 l 349 271 l 440 272 l 394 546 m 329 1058 q 581 847 453 947 l 536 779 l 519 778 q 251 943 401 846 l 247 960 l 313 1057 l 329 1058 z "},"á":{"ha":718,"x_min":-17,"x_max":644,"o":"m 474 0 l 469 99 l 463 143 l 322 146 l 200 143 l 183 108 l 149 0 l -17 0 l 313 701 l 513 701 l 644 0 l 474 0 m 394 546 l 383 546 l 258 272 l 349 271 l 440 272 l 394 546 m 600 960 l 596 943 q 328 778 446 846 l 311 779 l 267 847 q 517 1058 399 950 l 535 1057 l 600 960 z "},"â":{"ha":718,"x_min":-17,"x_max":644,"o":"m 474 0 l 469 99 l 463 143 l 322 146 l 200 143 l 183 108 l 149 0 l -17 0 l 313 701 l 513 701 l 644 0 l 474 0 m 394 546 l 383 546 l 258 272 l 349 271 l 440 272 l 394 546 m 219 854 q 401 1019 278 904 l 435 1050 l 474 1050 q 644 854 549 953 l 590 786 l 572 786 q 439 915 485 864 q 274 786 385 867 l 256 786 l 219 854 z "},"ã":{"ha":718,"x_min":-17,"x_max":674,"o":"m 474 0 l 469 99 l 463 143 l 322 146 l 200 143 l 183 108 l 149 0 l -17 0 l 313 701 l 513 701 l 644 0 l 474 0 m 394 546 l 383 546 l 258 272 l 349 271 l 440 272 l 394 546 m 674 958 l 576 836 l 560 829 q 443 857 535 832 q 344 879 360 879 q 315 867 329 879 q 284 835 300 854 q 260 807 268 817 l 243 807 l 189 861 l 189 876 l 286 999 l 303 1004 q 419 978 319 1001 q 518 956 493 956 q 548 967 533 956 q 578 998 563 979 q 604 1026 594 1017 l 619 1026 l 674 974 l 674 958 z "},"ä":{"ha":718,"x_min":-17,"x_max":644,"o":"m 474 0 l 469 99 l 463 143 l 322 146 l 200 143 l 183 108 l 149 0 l -17 0 l 313 701 l 513 701 l 644 0 l 474 0 m 394 546 l 383 546 l 258 272 l 349 271 l 440 272 l 394 546 m 315 1000 q 374 978 353 1000 q 396 917 396 956 q 372 849 396 874 q 308 825 349 825 q 225 910 225 825 q 249 976 225 951 q 315 1000 274 1000 m 557 999 q 617 976 596 999 q 638 915 638 954 q 614 849 638 874 q 550 824 590 824 q 468 908 468 824 q 492 974 468 950 q 557 999 515 999 z "},"å":{"ha":718,"x_min":-17,"x_max":644,"o":"m 474 0 l 469 99 l 463 143 l 322 146 l 200 143 l 183 108 l 149 0 l -17 0 l 313 701 l 513 701 l 644 0 l 474 0 m 394 546 l 383 546 l 258 272 l 349 271 l 440 272 l 394 546 m 436 1060 q 532 1026 499 1060 q 565 933 565 993 q 528 833 565 868 q 429 797 492 797 q 335 831 369 797 q 301 928 301 865 q 336 1025 301 990 q 436 1060 371 1060 m 432 982 q 376 931 376 982 q 433 874 376 874 q 490 926 490 874 q 432 982 490 982 z "},"æ":{"ha":965,"x_min":-44,"x_max":922,"o":"m 897 0 l 450 0 l 458 94 l 457 229 l 194 163 l 158 104 l 113 0 l -44 0 l 394 700 l 903 700 l 911 688 l 883 568 l 706 576 l 607 576 l 608 389 l 836 446 l 847 436 l 844 318 l 608 267 l 610 126 l 725 126 l 914 133 l 922 121 l 897 0 m 454 553 l 443 553 l 288 308 l 456 351 l 454 553 z "},"ç":{"ha":619,"x_min":46,"x_max":635,"o":"m 444 710 q 635 674 558 710 l 588 526 l 572 519 q 418 571 513 571 q 226 317 226 571 q 375 131 226 131 q 543 178 464 131 l 558 169 l 526 22 q 389 -10 450 -6 l 375 -65 l 422 -92 q 479 -174 479 -122 q 444 -249 479 -219 q 350 -278 408 -278 q 236 -237 289 -278 l 250 -161 l 258 -158 q 339 -200 300 -200 q 374 -169 374 -200 q 350 -142 374 -153 l 282 -103 l 304 -8 q 111 83 176 6 q 46 294 46 161 q 151 599 46 489 q 444 710 256 710 z "},"è":{"ha":619,"x_min":61,"x_max":631,"o":"m 281 422 l 404 421 l 522 425 l 529 413 l 504 285 l 375 289 l 261 288 l 251 224 l 243 133 l 363 133 l 549 139 l 557 126 l 531 0 l 61 0 l 94 208 l 149 701 l 624 701 l 631 688 l 603 561 l 429 568 l 301 568 l 281 422 m 299 1058 q 550 847 422 947 l 506 779 l 489 778 q 221 943 371 846 l 217 960 l 282 1057 l 299 1058 z "},"é":{"ha":619,"x_min":61,"x_max":631,"o":"m 281 422 l 404 421 l 522 425 l 529 413 l 504 285 l 375 289 l 261 288 l 251 224 l 243 133 l 363 133 l 549 139 l 557 126 l 531 0 l 61 0 l 94 208 l 149 701 l 624 701 l 631 688 l 603 561 l 429 568 l 301 568 l 281 422 m 569 960 l 565 943 q 297 778 415 846 l 281 779 l 236 847 q 486 1058 368 950 l 504 1057 l 569 960 z "},"ê":{"ha":619,"x_min":61,"x_max":631,"o":"m 281 422 l 404 421 l 522 425 l 529 413 l 504 285 l 375 289 l 261 288 l 251 224 l 243 133 l 363 133 l 549 139 l 557 126 l 531 0 l 61 0 l 94 208 l 149 701 l 624 701 l 631 688 l 603 561 l 429 568 l 301 568 l 281 422 m 189 854 q 371 1019 247 904 l 404 1050 l 443 1050 q 614 854 518 953 l 560 786 l 542 786 q 408 915 454 864 q 243 786 354 867 l 225 786 l 189 854 z "},"ë":{"ha":619,"x_min":61,"x_max":631,"o":"m 281 422 l 404 421 l 522 425 l 529 413 l 504 285 l 375 289 l 261 288 l 251 224 l 243 133 l 363 133 l 549 139 l 557 126 l 531 0 l 61 0 l 94 208 l 149 701 l 624 701 l 631 688 l 603 561 l 429 568 l 301 568 l 281 422 m 283 1000 q 342 978 321 1000 q 364 917 364 956 q 340 849 364 874 q 276 825 317 825 q 193 910 193 825 q 217 976 193 951 q 283 1000 242 1000 m 525 999 q 585 976 564 999 q 606 915 606 954 q 582 849 606 874 q 518 824 558 824 q 436 908 436 824 q 460 974 436 950 q 525 999 483 999 z "},"ì":{"ha":382,"x_min":63,"x_max":406,"o":"m 232 0 l 63 0 l 96 208 l 149 701 l 321 701 l 251 224 l 232 0 m 154 1058 q 406 847 278 947 l 361 779 l 344 778 q 76 943 226 846 l 72 960 l 138 1057 l 154 1058 z "},"í":{"ha":382,"x_min":63,"x_max":425,"o":"m 232 0 l 63 0 l 96 208 l 149 701 l 321 701 l 251 224 l 232 0 m 425 960 l 421 943 q 153 778 271 846 l 136 779 l 92 847 q 342 1058 224 950 l 360 1057 l 425 960 z "},"î":{"ha":382,"x_min":44,"x_max":469,"o":"m 232 0 l 63 0 l 96 208 l 149 701 l 321 701 l 251 224 l 232 0 m 44 854 q 226 1019 103 904 l 260 1050 l 299 1050 q 469 854 374 953 l 415 786 l 397 786 q 264 915 310 864 q 99 786 210 867 l 81 786 l 44 854 z "},"ï":{"ha":382,"x_min":63,"x_max":446,"o":"m 232 0 l 63 0 l 96 208 l 149 701 l 321 701 l 251 224 l 232 0 m 154 999 q 215 976 193 999 q 236 915 236 954 q 213 849 236 874 q 149 824 189 824 q 65 908 65 824 q 89 974 65 950 q 154 999 113 999 m 365 999 q 424 976 403 999 q 446 915 446 954 q 422 849 446 874 q 358 824 399 824 q 275 908 275 824 q 299 974 275 950 q 365 999 322 999 z "},"ð":{"ha":781,"x_min":4,"x_max":753,"o":"m 451 706 q 674 633 594 706 q 753 428 753 561 q 646 107 753 222 q 340 -8 539 -8 q 72 0 228 -8 l 106 208 l 114 290 l 13 290 l 4 303 l 24 400 l 126 400 l 160 701 l 451 706 m 376 122 q 574 399 574 122 q 538 528 574 488 q 429 569 501 569 q 313 564 364 569 l 288 400 l 433 400 l 440 388 l 422 290 l 272 290 l 263 224 l 254 131 q 376 122 335 122 z "},"ñ":{"ha":825,"x_min":61,"x_max":772,"o":"m 681 0 l 499 0 l 274 444 l 265 444 l 239 244 l 214 0 l 61 0 l 94 206 l 149 701 l 329 701 l 556 256 l 567 256 l 615 694 l 772 704 l 701 219 l 681 0 m 724 958 l 626 836 l 610 829 q 493 857 585 832 q 394 879 410 879 q 365 867 379 879 q 334 835 350 854 q 310 807 318 817 l 293 807 l 239 861 l 239 876 l 336 999 l 353 1004 q 469 978 369 1001 q 568 956 543 956 q 598 967 583 956 q 628 998 613 979 q 654 1026 644 1017 l 669 1026 l 724 974 l 724 958 z "},"ò":{"ha":767,"x_min":44,"x_max":729,"o":"m 433 711 q 652 635 575 711 q 729 403 729 558 q 683 188 729 282 q 550 40 638 93 q 342 -12 463 -12 q 122 66 199 -12 q 44 301 44 144 q 90 515 44 422 q 224 659 136 607 q 433 711 311 711 m 411 574 q 269 512 317 574 q 222 306 222 450 q 253 162 222 203 q 361 121 285 121 q 503 183 457 121 q 550 389 550 246 q 519 533 550 492 q 411 574 489 574 m 349 1058 q 600 847 472 947 l 556 779 l 539 778 q 271 943 421 846 l 267 960 l 332 1057 l 349 1058 z "},"ó":{"ha":767,"x_min":44,"x_max":729,"o":"m 433 711 q 652 635 575 711 q 729 403 729 558 q 683 188 729 282 q 550 40 638 93 q 342 -12 463 -12 q 122 66 199 -12 q 44 301 44 144 q 90 515 44 422 q 224 659 136 607 q 433 711 311 711 m 411 574 q 269 512 317 574 q 222 306 222 450 q 253 162 222 203 q 361 121 285 121 q 503 183 457 121 q 550 389 550 246 q 519 533 550 492 q 411 574 489 574 m 619 960 l 615 943 q 347 778 465 846 l 331 779 l 286 847 q 536 1058 418 950 l 554 1057 l 619 960 z "},"ô":{"ha":767,"x_min":44,"x_max":729,"o":"m 433 711 q 652 635 575 711 q 729 403 729 558 q 683 188 729 282 q 550 40 638 93 q 342 -12 463 -12 q 122 66 199 -12 q 44 301 44 144 q 90 515 44 422 q 224 659 136 607 q 433 711 311 711 m 411 574 q 269 512 317 574 q 222 306 222 450 q 253 162 222 203 q 361 121 285 121 q 503 183 457 121 q 550 389 550 246 q 519 533 550 492 q 411 574 489 574 m 239 854 q 421 1019 297 904 l 454 1050 l 493 1050 q 664 854 568 953 l 610 786 l 592 786 q 458 915 504 864 q 293 786 404 867 l 275 786 l 239 854 z "},"õ":{"ha":767,"x_min":44,"x_max":729,"o":"m 433 711 q 652 635 575 711 q 729 403 729 558 q 683 188 729 282 q 550 40 638 93 q 342 -12 463 -12 q 122 66 199 -12 q 44 301 44 144 q 90 515 44 422 q 224 659 136 607 q 433 711 311 711 m 411 574 q 269 512 317 574 q 222 306 222 450 q 253 162 222 203 q 361 121 285 121 q 503 183 457 121 q 550 389 550 246 q 519 533 550 492 q 411 574 489 574 m 693 958 l 596 836 l 579 829 q 463 857 554 832 q 364 879 379 879 q 334 867 349 879 q 303 835 319 854 q 279 807 288 817 l 263 807 l 208 861 l 208 876 l 306 999 l 322 1004 q 439 978 339 1001 q 538 956 513 956 q 567 967 553 956 q 598 998 582 979 q 624 1026 614 1017 l 639 1026 l 693 974 l 693 958 z "},"ö":{"ha":767,"x_min":44,"x_max":729,"o":"m 433 711 q 652 635 575 711 q 729 403 729 558 q 683 188 729 282 q 550 40 638 93 q 342 -12 463 -12 q 122 66 199 -12 q 44 301 44 144 q 90 515 44 422 q 224 659 136 607 q 433 711 311 711 m 411 574 q 269 512 317 574 q 222 306 222 450 q 253 162 222 203 q 361 121 285 121 q 503 183 457 121 q 550 389 550 246 q 519 533 550 492 q 411 574 489 574 m 335 1000 q 394 978 372 1000 q 415 917 415 956 q 392 849 415 874 q 328 825 368 825 q 244 910 244 825 q 269 976 244 951 q 335 1000 293 1000 m 576 999 q 636 976 615 999 q 657 915 657 954 q 633 849 657 874 q 569 824 610 824 q 488 908 488 824 q 511 974 488 950 q 576 999 535 999 z "},"÷":{"ha":663,"x_min":36,"x_max":638,"o":"m 628 301 l 49 301 l 36 314 l 46 424 l 625 424 l 638 411 l 628 301 m 289 208 q 348 187 327 208 q 369 127 369 165 q 346 61 369 85 q 283 37 322 37 q 222 59 243 37 q 201 120 201 80 q 225 184 201 160 q 289 208 248 208 m 340 627 q 399 605 379 627 q 420 545 420 583 q 397 479 420 503 q 334 455 374 455 q 274 477 295 455 q 253 538 253 498 q 276 602 253 578 q 340 627 300 627 z "},"ø":{"ha":767,"x_min":38,"x_max":728,"o":"m 649 636 q 728 403 728 560 q 682 188 728 282 q 549 40 636 93 q 340 -12 461 -12 q 231 1 276 -12 l 129 -147 l 40 -90 l 38 -74 l 128 60 q 44 301 44 139 q 90 515 44 422 q 224 659 136 607 q 433 711 311 711 q 547 696 494 711 l 635 825 l 719 768 l 726 751 l 649 636 m 361 121 q 503 183 457 121 q 550 389 550 246 q 519 533 550 492 q 411 574 488 574 q 269 512 317 574 q 222 306 222 450 q 253 161 222 201 q 361 121 283 121 z "},"ù":{"ha":757,"x_min":69,"x_max":722,"o":"m 660 238 q 563 53 644 118 q 338 -11 481 -11 q 140 41 210 -11 q 69 190 69 93 q 74 238 69 213 l 89 347 l 129 701 l 299 701 l 236 263 q 233 232 233 240 q 354 126 233 126 q 504 263 490 126 l 551 701 l 722 701 l 674 344 l 660 238 m 346 1058 q 597 847 469 947 l 553 779 l 536 778 q 268 943 418 846 l 264 960 l 329 1057 l 346 1058 z "},"ú":{"ha":757,"x_min":69,"x_max":722,"o":"m 660 238 q 563 53 644 118 q 338 -11 481 -11 q 140 41 210 -11 q 69 190 69 93 q 74 238 69 213 l 89 347 l 129 701 l 299 701 l 236 263 q 233 232 233 240 q 354 126 233 126 q 504 263 490 126 l 551 701 l 722 701 l 674 344 l 660 238 m 617 960 l 613 943 q 344 778 463 846 l 328 779 l 283 847 q 533 1058 415 950 l 551 1057 l 617 960 z "},"û":{"ha":757,"x_min":69,"x_max":722,"o":"m 660 238 q 563 53 644 118 q 338 -11 481 -11 q 140 41 210 -11 q 69 190 69 93 q 74 238 69 213 l 89 347 l 129 701 l 299 701 l 236 263 q 233 232 233 240 q 354 126 233 126 q 504 263 490 126 l 551 701 l 722 701 l 674 344 l 660 238 m 238 854 q 419 1019 296 904 l 453 1050 l 492 1050 q 663 854 567 953 l 608 786 l 590 786 q 457 915 503 864 q 292 786 403 867 l 274 786 l 238 854 z "},"ü":{"ha":757,"x_min":69,"x_max":722,"o":"m 660 238 q 563 53 644 118 q 338 -11 481 -11 q 140 41 210 -11 q 69 190 69 93 q 74 238 69 213 l 89 347 l 129 701 l 299 701 l 236 263 q 233 232 233 240 q 354 126 233 126 q 504 263 490 126 l 551 701 l 722 701 l 674 344 l 660 238 m 332 1000 q 391 978 369 1000 q 413 917 413 956 q 389 849 413 874 q 325 825 365 825 q 242 910 242 825 q 266 976 242 951 q 332 1000 290 1000 m 574 999 q 633 976 613 999 q 654 915 654 954 q 631 849 654 874 q 567 824 607 824 q 485 908 485 824 q 508 974 485 950 q 574 999 532 999 z "},"ý":{"ha":674,"x_min":64,"x_max":710,"o":"m 389 192 l 372 0 l 203 0 l 235 192 l 239 228 l 64 701 l 244 701 l 254 650 l 338 401 l 349 401 l 506 643 l 535 701 l 710 701 l 394 226 l 389 192 m 575 960 l 571 943 q 303 778 421 846 l 286 779 l 242 847 q 492 1058 374 950 l 510 1057 l 575 960 z "},"þ":{"ha":681,"x_min":61,"x_max":651,"o":"m 421 597 q 589 543 526 597 q 651 394 651 489 q 610 253 651 317 q 494 152 568 189 q 328 115 419 115 l 244 115 l 233 0 l 61 0 l 94 208 l 149 701 l 322 701 l 307 597 l 421 597 m 371 238 q 472 382 472 272 q 450 450 472 429 q 375 475 428 471 l 289 471 l 257 242 l 371 238 z "},"ÿ":{"ha":674,"x_min":64,"x_max":710,"o":"m 389 192 l 372 0 l 203 0 l 235 192 l 239 228 l 64 701 l 244 701 l 254 650 l 338 401 l 349 401 l 506 643 l 535 701 l 710 701 l 394 226 l 389 192 m 290 1000 q 349 978 328 1000 q 371 917 371 956 q 347 849 371 874 q 283 825 324 825 q 200 910 200 825 q 224 976 200 951 q 290 1000 249 1000 m 532 999 q 592 976 571 999 q 613 915 613 954 q 589 849 613 874 q 525 824 565 824 q 443 908 443 824 q 467 974 443 950 q 532 999 490 999 z "},"Ā":{"ha":810,"x_min":-28,"x_max":749,"o":"m 564 0 l 556 115 l 543 203 l 375 206 l 226 203 l 193 125 l 153 0 l -28 0 l 376 893 l 594 893 l 749 0 l 564 0 m 467 721 l 454 721 l 290 346 l 404 343 l 522 344 l 467 721 m 700 1050 l 311 1050 l 299 1063 l 308 1164 l 697 1164 l 710 1151 l 700 1050 z "},"ā":{"ha":718,"x_min":-17,"x_max":644,"o":"m 474 0 l 469 99 l 463 143 l 322 146 l 200 143 l 183 108 l 149 0 l -17 0 l 313 701 l 513 701 l 644 0 l 474 0 m 394 546 l 383 546 l 258 272 l 349 271 l 440 272 l 394 546 m 628 857 l 239 857 l 226 869 l 236 971 l 625 971 l 638 958 l 628 857 z "},"Ă":{"ha":810,"x_min":-28,"x_max":749,"o":"m 564 0 l 556 115 l 543 203 l 375 206 l 226 203 l 193 125 l 153 0 l -28 0 l 376 893 l 594 893 l 749 0 l 564 0 m 467 721 l 454 721 l 290 346 l 404 343 l 522 344 l 467 721 m 713 1147 q 500 1001 646 1001 q 369 1039 421 1001 q 299 1147 317 1076 l 347 1204 l 374 1204 q 422 1147 388 1167 q 506 1126 457 1126 q 651 1204 606 1126 l 678 1204 l 713 1147 z "},"ă":{"ha":718,"x_min":-17,"x_max":644,"o":"m 474 0 l 469 99 l 463 143 l 322 146 l 200 143 l 183 108 l 149 0 l -17 0 l 313 701 l 513 701 l 644 0 l 474 0 m 394 546 l 383 546 l 258 272 l 349 271 l 440 272 l 394 546 m 636 964 q 553 839 608 886 q 417 792 497 792 q 280 839 326 792 q 224 964 233 886 l 272 1025 l 299 1025 q 425 918 319 918 q 576 1025 531 918 l 603 1025 l 636 964 z "},"Ą":{"ha":810,"x_min":-26,"x_max":750,"o":"m 731 -206 q 596 -272 657 -272 q 517 -242 546 -272 q 488 -162 488 -212 q 504 -94 488 -131 q 564 0 521 -58 l 565 0 l 557 115 l 544 203 l 375 206 l 226 203 l 193 125 l 154 0 l -26 0 l 378 893 l 596 893 l 750 0 l 669 0 q 593 -132 593 -89 q 631 -169 593 -169 q 717 -125 668 -169 l 726 -125 l 731 -206 m 468 721 l 456 721 l 290 346 l 404 343 l 524 344 l 468 721 z "},"ą":{"ha":718,"x_min":-15,"x_max":646,"o":"m 629 -206 q 492 -272 556 -272 q 413 -244 443 -272 q 383 -169 383 -217 q 402 -97 383 -133 q 471 0 421 -60 l 475 0 l 471 99 l 464 143 l 321 146 l 201 143 l 185 108 l 150 0 l -15 0 l 314 701 l 514 701 l 646 0 l 576 0 q 508 -81 526 -51 q 489 -132 489 -110 q 526 -169 489 -169 q 615 -125 564 -169 l 625 -125 l 629 -206 m 396 546 l 385 546 l 260 272 l 347 271 l 442 272 l 396 546 z "},"Ć":{"ha":704,"x_min":51,"x_max":751,"o":"m 522 904 q 751 851 654 904 l 700 696 l 685 690 q 503 754 606 754 q 311 661 376 754 q 246 389 246 568 q 433 142 246 142 q 640 203 542 142 l 656 193 l 621 36 q 407 -12 514 -12 q 144 84 236 -12 q 51 360 51 181 q 107 651 51 529 q 268 839 163 774 q 522 904 374 904 m 683 1121 l 678 1104 q 381 996 554 1056 l 363 1001 l 333 1076 q 621 1232 483 1151 l 638 1228 l 683 1121 z "},"ć":{"ha":619,"x_min":46,"x_max":635,"o":"m 444 710 q 635 674 558 710 l 588 526 l 572 519 q 418 571 513 571 q 226 317 226 571 q 375 131 226 131 q 542 178 465 131 l 557 169 l 526 22 q 360 -11 438 -11 q 125 68 204 -11 q 46 294 46 147 q 151 599 46 489 q 444 710 256 710 m 593 960 l 589 943 q 321 778 439 846 l 304 779 l 260 847 q 510 1058 392 950 l 528 1057 l 593 960 z "},"Ĉ":{"ha":704,"x_min":51,"x_max":751,"o":"m 522 904 q 751 851 654 904 l 700 696 l 685 690 q 503 754 606 754 q 311 661 376 754 q 246 389 246 568 q 433 142 246 142 q 640 203 542 142 l 656 193 l 621 36 q 407 -12 514 -12 q 144 84 236 -12 q 51 360 51 181 q 107 651 51 529 q 268 839 163 774 q 522 904 374 904 m 296 1082 q 490 1225 408 1154 l 529 1225 q 701 1082 599 1157 l 660 1010 l 642 1010 q 504 1099 585 1044 q 394 1039 456 1071 l 339 1010 l 321 1010 l 296 1082 z "},"ĉ":{"ha":619,"x_min":46,"x_max":638,"o":"m 444 710 q 635 674 558 710 l 588 526 l 572 519 q 418 571 513 571 q 226 317 226 571 q 375 131 226 131 q 542 178 465 131 l 557 169 l 526 22 q 360 -11 438 -11 q 125 68 204 -11 q 46 294 46 147 q 151 599 46 489 q 444 710 256 710 m 213 854 q 394 1019 271 904 l 428 1050 l 467 1050 q 638 854 542 953 l 583 786 l 565 786 q 432 915 478 864 q 267 786 378 867 l 249 786 l 213 854 z "},"Ċ":{"ha":704,"x_min":51,"x_max":751,"o":"m 522 904 q 751 851 654 904 l 700 696 l 685 690 q 503 754 606 754 q 311 661 376 754 q 246 389 246 568 q 433 142 246 142 q 640 203 542 142 l 656 193 l 621 36 q 407 -12 514 -12 q 144 84 236 -12 q 51 360 51 181 q 107 651 51 529 q 268 839 163 774 q 522 904 374 904 m 503 1211 q 569 1187 546 1211 q 593 1118 593 1163 q 567 1045 593 1072 q 496 1018 540 1018 q 428 1042 453 1018 q 404 1111 404 1067 q 431 1184 404 1157 q 503 1211 457 1211 z "},"ċ":{"ha":619,"x_min":46,"x_max":635,"o":"m 444 710 q 635 674 558 710 l 588 526 l 572 519 q 418 571 513 571 q 226 317 226 571 q 375 131 226 131 q 542 178 465 131 l 557 169 l 526 22 q 360 -11 438 -11 q 125 68 204 -11 q 46 294 46 147 q 151 599 46 489 q 444 710 256 710 m 429 1018 q 496 994 472 1018 q 519 925 519 969 q 493 852 519 879 q 422 825 467 825 q 355 849 379 825 q 331 918 331 874 q 357 991 331 964 q 429 1018 383 1018 z "},"Č":{"ha":704,"x_min":51,"x_max":751,"o":"m 522 904 q 751 851 654 904 l 700 696 l 685 690 q 503 754 606 754 q 311 661 376 754 q 246 389 246 568 q 433 142 246 142 q 640 203 542 142 l 656 193 l 621 36 q 407 -12 514 -12 q 144 84 236 -12 q 51 360 51 181 q 107 651 51 529 q 268 839 163 774 q 522 904 374 904 m 700 1142 q 506 999 588 1069 l 468 999 q 294 1142 394 1068 l 338 1214 l 354 1214 q 467 1142 401 1186 l 493 1125 q 657 1214 546 1156 l 676 1214 l 700 1142 z "},"č":{"ha":619,"x_min":46,"x_max":639,"o":"m 444 710 q 635 674 558 710 l 588 526 l 572 519 q 418 571 513 571 q 226 317 226 571 q 375 131 226 131 q 542 178 465 131 l 557 169 l 526 22 q 360 -11 438 -11 q 125 68 204 -11 q 46 294 46 147 q 151 599 46 489 q 444 710 256 710 m 639 979 q 456 811 567 918 l 426 783 l 388 783 q 214 979 324 864 l 267 1047 l 285 1047 q 417 918 365 975 q 583 1047 457 953 l 603 1047 l 639 979 z "},"Ď":{"ha":890,"x_min":68,"x_max":872,"o":"m 518 899 q 780 808 688 899 q 872 550 872 717 q 744 139 872 288 q 381 -10 617 -10 q 68 0 224 -10 l 111 267 l 179 893 l 518 899 m 421 132 q 612 228 544 132 q 679 521 679 325 q 634 697 679 640 q 496 753 589 753 q 344 747 442 753 l 278 283 l 265 143 q 421 132 351 132 m 699 1142 q 504 999 586 1069 l 467 999 q 293 1142 393 1068 l 336 1214 l 353 1214 q 465 1142 400 1186 l 492 1125 q 656 1214 544 1156 l 675 1214 l 699 1142 z "},"ď":{"ha":779,"x_min":61,"x_max":742,"o":"m 440 706 q 663 633 583 706 q 742 428 742 561 q 635 107 742 222 q 329 -8 528 -8 q 61 0 217 -8 l 94 208 l 149 701 l 440 706 m 365 122 q 563 399 563 122 q 526 528 563 488 q 418 569 490 569 q 301 564 353 569 l 251 224 l 243 131 q 365 122 360 122 m 653 979 q 469 811 581 918 l 440 783 l 401 783 q 228 979 338 864 l 281 1047 l 299 1047 q 431 918 379 975 q 597 1047 471 953 l 617 1047 l 653 979 z "},"Đ":{"ha":890,"x_min":68,"x_max":872,"o":"m 518 899 q 780 808 688 899 q 872 550 872 717 q 744 139 872 288 q 381 -10 617 -10 q 68 0 224 -10 l 111 267 l 179 893 l 518 899 m 421 132 q 612 228 544 132 q 679 521 679 325 q 634 697 679 640 q 496 753 589 753 q 344 747 442 753 l 278 283 l 265 143 q 421 132 351 132 m 692 1050 l 303 1050 l 290 1063 l 300 1164 l 689 1164 l 701 1151 l 692 1050 z "},"đ":{"ha":779,"x_min":61,"x_max":742,"o":"m 440 706 q 663 633 583 706 q 742 428 742 561 q 635 107 742 222 q 329 -8 528 -8 q 61 0 217 -8 l 94 208 l 149 701 l 440 706 m 365 122 q 563 399 563 122 q 526 528 563 488 q 418 569 490 569 q 301 564 353 569 l 251 224 l 243 131 q 365 122 360 122 m 636 857 l 247 857 l 235 869 l 244 971 l 633 971 l 646 958 l 636 857 z "},"Ē":{"ha":690,"x_min":67,"x_max":738,"o":"m 314 526 l 463 525 l 604 529 l 614 515 l 583 378 l 431 382 l 293 381 l 279 283 l 265 146 l 419 144 l 633 151 l 640 138 l 613 0 l 67 0 l 110 267 l 179 893 l 729 893 l 738 879 l 707 742 l 500 749 l 344 747 l 314 526 m 668 1050 l 279 1050 l 267 1063 l 276 1164 l 665 1164 l 678 1151 l 668 1050 z "},"ē":{"ha":619,"x_min":61,"x_max":631,"o":"m 281 422 l 404 421 l 522 425 l 529 413 l 504 285 l 375 289 l 261 288 l 251 224 l 243 133 l 363 133 l 549 139 l 557 126 l 531 0 l 61 0 l 94 208 l 149 701 l 624 701 l 631 688 l 603 561 l 429 568 l 301 568 l 281 422 m 596 857 l 207 857 l 194 869 l 204 971 l 593 971 l 606 958 l 596 857 z "},"Ĕ":{"ha":690,"x_min":67,"x_max":738,"o":"m 314 526 l 463 525 l 604 529 l 614 515 l 583 378 l 431 382 l 293 381 l 279 283 l 265 146 l 419 144 l 633 151 l 640 138 l 613 0 l 67 0 l 110 267 l 179 893 l 729 893 l 738 879 l 707 742 l 500 749 l 344 747 l 314 526 m 679 1147 q 467 1001 613 1001 q 335 1039 388 1001 q 265 1147 283 1076 l 314 1204 l 340 1204 q 389 1147 354 1167 q 472 1126 424 1126 q 618 1204 572 1126 l 644 1204 l 679 1147 z "},"ĕ":{"ha":619,"x_min":61,"x_max":631,"o":"m 281 422 l 404 421 l 522 425 l 529 413 l 504 285 l 375 289 l 261 288 l 251 224 l 243 133 l 363 133 l 549 139 l 557 126 l 531 0 l 61 0 l 94 208 l 149 701 l 624 701 l 631 688 l 603 561 l 429 568 l 301 568 l 281 422 m 606 964 q 522 839 578 886 q 386 792 467 792 q 249 839 296 792 q 193 964 203 886 l 242 1025 l 268 1025 q 394 918 289 918 q 546 1025 500 918 l 572 1025 l 606 964 z "},"Ė":{"ha":690,"x_min":67,"x_max":738,"o":"m 314 526 l 463 525 l 604 529 l 614 515 l 583 378 l 431 382 l 293 381 l 279 283 l 265 146 l 419 144 l 633 151 l 640 138 l 613 0 l 67 0 l 110 267 l 179 893 l 729 893 l 738 879 l 707 742 l 500 749 l 344 747 l 314 526 m 476 1211 q 543 1187 519 1211 q 567 1118 567 1163 q 540 1045 567 1072 q 469 1018 514 1018 q 402 1042 426 1018 q 378 1111 378 1067 q 404 1184 378 1157 q 476 1211 431 1211 z "},"ė":{"ha":619,"x_min":61,"x_max":631,"o":"m 281 422 l 404 421 l 522 425 l 529 413 l 504 285 l 375 289 l 261 288 l 251 224 l 243 133 l 363 133 l 549 139 l 557 126 l 531 0 l 61 0 l 94 208 l 149 701 l 624 701 l 631 688 l 603 561 l 429 568 l 301 568 l 281 422 m 406 1018 q 472 994 449 1018 q 496 925 496 969 q 469 852 496 879 q 399 825 443 825 q 331 849 356 825 q 307 918 307 874 q 333 991 307 964 q 406 1018 360 1018 z "},"Ę":{"ha":690,"x_min":67,"x_max":738,"o":"m 313 526 l 463 525 l 604 529 l 614 515 l 585 378 l 432 382 l 292 381 l 278 283 l 264 146 l 419 144 l 632 151 l 640 138 l 611 0 l 521 0 l 485 -54 q 463 -119 463 -92 q 515 -171 463 -171 q 606 -129 557 -171 l 615 -129 l 631 -204 q 488 -274 557 -274 q 397 -240 432 -274 q 363 -153 363 -206 q 403 -39 363 -96 l 431 0 l 67 0 l 110 267 l 179 893 l 729 893 l 738 879 l 708 742 l 501 749 l 343 747 l 313 526 z "},"ę":{"ha":619,"x_min":61,"x_max":632,"o":"m 279 422 l 404 421 l 522 425 l 529 413 l 504 285 l 375 289 l 261 288 l 251 224 l 243 133 l 364 133 l 549 139 l 558 126 l 531 0 l 421 0 l 385 -54 q 363 -119 363 -92 q 415 -171 363 -171 q 506 -129 457 -171 l 515 -129 l 531 -204 q 388 -274 457 -274 q 297 -240 332 -274 q 263 -153 263 -206 q 303 -39 263 -96 l 331 0 l 61 0 l 94 208 l 147 701 l 624 701 l 632 688 l 604 561 l 431 568 l 300 568 l 279 422 z "},"Ě":{"ha":690,"x_min":67,"x_max":738,"o":"m 314 526 l 463 525 l 604 529 l 614 515 l 583 378 l 431 382 l 293 381 l 279 283 l 265 146 l 419 144 l 633 151 l 640 138 l 613 0 l 67 0 l 110 267 l 179 893 l 729 893 l 738 879 l 707 742 l 500 749 l 344 747 l 314 526 m 674 1142 q 479 999 561 1069 l 442 999 q 268 1142 368 1068 l 311 1214 l 328 1214 q 440 1142 375 1186 l 467 1125 q 631 1214 519 1156 l 650 1214 l 674 1142 z "},"ě":{"ha":619,"x_min":61,"x_max":631,"o":"m 281 422 l 404 421 l 522 425 l 529 413 l 504 285 l 375 289 l 261 288 l 251 224 l 243 133 l 363 133 l 549 139 l 557 126 l 531 0 l 61 0 l 94 208 l 149 701 l 624 701 l 631 688 l 603 561 l 429 568 l 301 568 l 281 422 m 614 979 q 431 811 542 918 l 401 783 l 363 783 q 189 979 299 864 l 242 1047 l 260 1047 q 392 918 340 975 q 558 1047 432 953 l 578 1047 l 614 979 z "},"Ĝ":{"ha":813,"x_min":49,"x_max":815,"o":"m 556 904 q 815 851 701 904 l 754 685 l 738 683 q 626 739 675 722 q 517 756 576 756 q 310 662 379 756 q 240 357 240 568 q 288 185 240 238 q 440 132 336 132 q 556 154 488 132 l 568 231 l 582 369 l 753 381 l 735 260 l 711 43 q 419 -12 553 -12 q 144 83 239 -12 q 49 350 49 178 q 180 760 49 617 q 556 904 311 904 m 326 1082 q 521 1225 439 1154 l 560 1225 q 732 1082 629 1157 l 690 1010 l 672 1010 q 535 1099 615 1044 q 425 1039 486 1071 l 369 1010 l 351 1010 l 326 1082 z "},"ĝ":{"ha":710,"x_min":44,"x_max":690,"o":"m 471 710 q 690 672 585 710 l 626 515 l 613 515 q 519 560 558 547 q 432 572 481 572 q 274 508 326 572 q 222 300 222 443 q 256 163 222 204 q 378 122 289 122 q 469 140 421 122 l 475 186 l 486 297 l 643 307 l 629 214 l 607 35 q 361 -11 468 -11 q 125 68 206 -11 q 44 303 44 147 q 156 601 44 492 q 471 710 268 710 m 225 854 q 407 1019 283 904 l 440 1050 l 479 1050 q 650 854 554 953 l 596 786 l 578 786 q 444 915 490 864 q 279 786 390 867 l 261 786 l 225 854 z "},"Ğ":{"ha":813,"x_min":49,"x_max":815,"o":"m 556 904 q 815 851 701 904 l 754 685 l 738 683 q 626 739 675 722 q 517 756 576 756 q 310 662 379 756 q 240 357 240 568 q 288 185 240 238 q 440 132 336 132 q 556 154 488 132 l 568 231 l 582 369 l 753 381 l 735 260 l 711 43 q 419 -12 553 -12 q 144 83 239 -12 q 49 350 49 178 q 180 760 49 617 q 556 904 311 904 m 735 1147 q 522 1001 668 1001 q 391 1039 443 1001 q 321 1147 339 1076 l 369 1204 l 396 1204 q 444 1147 410 1167 q 528 1126 479 1126 q 674 1204 628 1126 l 700 1204 l 735 1147 z "},"ğ":{"ha":710,"x_min":44,"x_max":690,"o":"m 471 710 q 690 672 585 710 l 626 515 l 613 515 q 519 560 558 547 q 432 572 481 572 q 274 508 326 572 q 222 300 222 443 q 256 163 222 204 q 378 122 289 122 q 469 140 421 122 l 475 186 l 486 297 l 643 307 l 629 214 l 607 35 q 361 -11 468 -11 q 125 68 206 -11 q 44 303 44 147 q 156 601 44 492 q 471 710 268 710 m 642 964 q 558 839 614 886 q 422 792 503 792 q 285 839 332 792 q 229 964 239 886 l 278 1025 l 304 1025 q 431 918 325 918 q 582 1025 536 918 l 608 1025 l 642 964 z "},"Ġ":{"ha":813,"x_min":49,"x_max":815,"o":"m 556 904 q 815 851 701 904 l 754 685 l 738 683 q 626 739 675 722 q 517 756 576 756 q 310 662 379 756 q 240 357 240 568 q 288 185 240 238 q 440 132 336 132 q 556 154 488 132 l 568 231 l 582 369 l 753 381 l 735 260 l 711 43 q 419 -12 553 -12 q 144 83 239 -12 q 49 350 49 178 q 180 760 49 617 q 556 904 311 904 m 532 1211 q 599 1187 575 1211 q 622 1118 622 1163 q 596 1045 622 1072 q 525 1018 569 1018 q 458 1042 482 1018 q 433 1111 433 1067 q 460 1184 433 1157 q 532 1211 486 1211 z "},"ġ":{"ha":710,"x_min":44,"x_max":690,"o":"m 471 710 q 690 672 585 710 l 626 515 l 613 515 q 519 560 558 547 q 432 572 481 572 q 274 508 326 572 q 222 300 222 443 q 256 163 222 204 q 378 122 289 122 q 469 140 421 122 l 475 186 l 486 297 l 643 307 l 629 214 l 607 35 q 361 -11 468 -11 q 125 68 206 -11 q 44 303 44 147 q 156 601 44 492 q 471 710 268 710 m 442 1018 q 508 994 485 1018 q 532 925 532 969 q 506 852 532 879 q 435 825 479 825 q 367 849 392 825 q 343 918 343 874 q 369 991 343 964 q 442 1018 396 1018 z "},"Ģ":{"ha":813,"x_min":49,"x_max":815,"o":"m 556 904 q 815 851 701 904 l 754 685 l 738 683 q 626 739 675 722 q 517 756 576 756 q 310 662 379 756 q 240 357 240 568 q 288 185 240 238 q 440 132 336 132 q 556 154 488 132 l 568 231 l 582 369 l 753 381 l 735 260 l 711 43 q 419 -12 553 -12 q 144 83 239 -12 q 49 350 49 178 q 180 760 49 617 q 556 904 311 904 m 454 -64 q 508 -168 508 -108 q 361 -379 508 -275 l 310 -333 l 308 -321 q 378 -201 378 -264 q 339 -126 378 -161 l 339 -114 q 454 -64 394 -81 z "},"ģ":{"ha":710,"x_min":44,"x_max":690,"o":"m 471 710 q 690 672 585 710 l 626 515 l 613 515 q 519 560 558 547 q 432 572 481 572 q 274 508 326 572 q 222 300 222 443 q 256 163 222 204 q 378 122 289 122 q 469 140 421 122 l 475 186 l 486 297 l 643 307 l 629 214 l 607 35 q 361 -11 468 -11 q 125 68 206 -11 q 44 303 44 147 q 156 601 44 492 q 471 710 268 710 m 399 -64 q 453 -168 453 -108 q 306 -379 453 -275 l 254 -333 l 253 -321 q 322 -201 322 -264 q 283 -126 322 -161 l 283 -114 q 399 -64 339 -81 z "},"Ĥ":{"ha":943,"x_min":67,"x_max":907,"o":"m 821 283 l 793 0 l 610 0 l 653 267 l 664 372 l 467 376 l 290 371 l 278 283 l 251 0 l 67 0 l 110 267 l 178 893 l 364 893 l 313 525 l 497 521 l 681 525 l 719 893 l 907 893 l 821 283 m 367 1082 q 561 1225 479 1154 l 600 1225 q 772 1082 669 1157 l 731 1010 l 713 1010 q 575 1099 656 1044 q 465 1039 526 1071 l 410 1010 l 392 1010 l 367 1082 z "},"ĥ":{"ha":824,"x_min":63,"x_max":771,"o":"m 703 224 l 682 0 l 513 0 l 546 208 l 553 279 l 260 278 l 251 224 l 232 0 l 63 0 l 96 208 l 149 701 l 321 701 l 281 421 l 428 419 l 568 421 l 599 701 l 771 701 l 703 224 m 269 854 q 451 1019 328 904 l 485 1050 l 524 1050 q 694 854 599 953 l 640 786 l 622 786 q 489 915 535 864 q 324 786 435 867 l 306 786 l 269 854 z "},"Ħ":{"ha":985,"x_min":85,"x_max":996,"o":"m 893 660 l 840 283 l 813 0 l 629 0 l 672 267 l 683 372 l 486 376 l 310 371 l 297 283 l 271 0 l 86 0 l 129 267 l 172 660 l 92 660 l 85 669 l 92 767 l 183 767 l 197 893 l 383 893 l 365 767 l 725 767 l 739 893 l 926 893 l 908 767 l 988 767 l 996 756 l 989 660 l 893 660 m 350 660 l 332 525 l 517 521 l 700 525 l 714 660 l 350 660 z "},"ħ":{"ha":824,"x_min":46,"x_max":833,"o":"m 743 507 l 703 224 l 682 0 l 513 0 l 546 208 l 553 279 l 261 278 l 253 224 l 232 0 l 63 0 l 96 208 l 128 507 l 53 507 l 46 517 l 64 601 l 138 601 l 149 701 l 321 701 l 307 601 l 588 601 l 599 701 l 771 701 l 757 601 l 826 601 l 833 593 l 815 507 l 743 507 m 293 507 l 281 421 l 428 419 l 568 421 l 578 507 l 293 507 z "},"Ĩ":{"ha":401,"x_min":67,"x_max":510,"o":"m 251 0 l 67 0 l 110 267 l 178 893 l 364 893 l 278 283 l 251 0 m 510 1147 l 422 1026 l 407 1019 q 306 1047 375 1024 q 228 1068 243 1068 q 199 1055 213 1068 q 172 1024 185 1042 q 153 999 158 1006 l 136 999 l 83 1051 l 83 1067 l 171 1188 l 186 1194 q 288 1167 218 1190 q 365 1146 350 1146 q 394 1159 381 1146 q 422 1190 408 1172 q 440 1215 435 1208 l 456 1215 l 510 1163 l 510 1147 z "},"ĩ":{"ha":382,"x_min":44,"x_max":471,"o":"m 232 0 l 63 0 l 96 208 l 149 701 l 321 701 l 251 224 l 232 0 m 471 954 l 383 833 l 368 826 q 267 854 336 831 q 189 875 204 875 q 160 862 174 875 q 133 831 146 849 q 114 806 119 813 l 97 806 l 44 858 l 44 874 l 132 994 l 147 1001 q 249 974 179 997 q 326 953 311 953 q 356 966 342 953 q 383 997 369 979 q 401 1022 396 1015 l 417 1022 l 471 969 l 471 954 z "},"Ī":{"ha":401,"x_min":67,"x_max":463,"o":"m 251 0 l 67 0 l 110 267 l 178 893 l 364 893 l 278 283 l 251 0 m 454 1050 l 142 1050 l 129 1063 l 139 1164 l 450 1164 l 463 1151 l 454 1050 z "},"ī":{"ha":382,"x_min":63,"x_max":422,"o":"m 232 0 l 63 0 l 96 208 l 149 701 l 321 701 l 251 224 l 232 0 m 414 857 l 101 857 l 89 869 l 99 971 l 410 971 l 422 958 l 414 857 z "},"Ĭ":{"ha":401,"x_min":67,"x_max":503,"o":"m 251 0 l 67 0 l 110 267 l 178 893 l 364 893 l 278 283 l 251 0 m 503 1147 q 290 1001 436 1001 q 159 1039 211 1001 q 89 1147 107 1076 l 138 1204 l 164 1204 q 213 1147 178 1167 q 296 1126 247 1126 q 442 1204 396 1126 l 468 1204 l 503 1147 z "},"ĭ":{"ha":382,"x_min":49,"x_max":461,"o":"m 232 0 l 63 0 l 96 208 l 149 701 l 321 701 l 251 224 l 232 0 m 461 964 q 378 839 433 886 q 242 792 322 792 q 105 839 151 792 q 49 964 58 886 l 97 1025 l 124 1025 q 250 918 144 918 q 401 1025 356 918 l 428 1025 l 461 964 z "},"Į":{"ha":403,"x_min":-11,"x_max":364,"o":"m 278 283 l 250 0 l 163 0 q 89 -131 89 -89 q 132 -171 89 -171 q 215 -129 176 -171 l 225 -129 l 243 -207 q 106 -274 169 -274 q 22 -241 54 -274 q -11 -157 -11 -208 q 6 -91 -11 -125 q 67 0 22 -57 l 110 267 l 178 893 l 364 893 l 278 283 z "},"į":{"ha":382,"x_min":-15,"x_max":321,"o":"m 158 0 q 85 -131 85 -89 q 128 -171 85 -171 q 211 -129 171 -171 l 221 -129 l 239 -207 q 101 -274 165 -274 q 17 -241 49 -274 q -15 -157 -15 -208 q 1 -91 -15 -125 q 63 0 18 -57 l 96 208 l 149 701 l 321 701 l 253 224 l 232 0 l 158 0 z "},"İ":{"ha":401,"x_min":67,"x_max":390,"o":"m 251 0 l 67 0 l 110 267 l 178 893 l 364 893 l 278 283 l 251 0 m 300 1211 q 367 1187 343 1211 q 390 1118 390 1163 q 364 1045 390 1072 q 293 1018 338 1018 q 226 1042 250 1018 q 201 1111 201 1067 q 228 1184 201 1157 q 300 1211 254 1211 z "},"ı":{"ha":382,"x_min":63,"x_max":321,"o":"m 232 0 l 63 0 l 96 208 l 149 701 l 321 701 l 251 224 l 232 0 z "},"Ĳ":{"ha":857,"x_min":67,"x_max":814,"o":"m 251 0 l 67 0 l 110 267 l 178 893 l 364 893 l 278 283 l 251 0 m 728 294 l 717 167 q 633 -19 701 51 q 410 -147 564 -89 l 365 -50 l 367 -32 q 497 57 457 13 q 547 171 538 101 l 561 278 l 613 758 l 469 756 l 458 768 l 482 893 l 814 893 l 728 294 z "},"ĳ":{"ha":818,"x_min":63,"x_max":742,"o":"m 232 0 l 63 0 l 96 208 l 149 701 l 321 701 l 251 224 l 232 0 m 676 231 l 667 132 q 599 -17 654 39 q 418 -122 544 -74 l 374 -31 l 375 -17 q 472 49 442 15 q 508 136 501 82 l 518 214 l 557 575 l 436 572 l 426 583 l 453 701 l 742 701 l 676 231 z "},"Ĵ":{"ha":456,"x_min":-36,"x_max":496,"o":"m 326 294 l 315 167 q 231 -19 300 51 q 8 -147 163 -89 l -36 -50 l -35 -32 q 96 57 56 13 q 146 171 136 101 l 160 278 l 211 758 l 68 756 l 57 768 l 81 893 l 413 893 l 326 294 m 90 1082 q 285 1225 203 1154 l 324 1225 q 496 1082 393 1157 l 454 1010 l 436 1010 q 299 1099 379 1044 q 189 1039 250 1071 l 133 1010 l 115 1010 l 90 1082 z "},"ĵ":{"ha":436,"x_min":-8,"x_max":454,"o":"m 294 231 l 285 132 q 217 -17 272 39 q 36 -122 163 -74 l -8 -31 l -7 -17 q 90 49 60 15 q 126 136 119 82 l 136 214 l 175 575 l 54 572 l 44 583 l 71 701 l 360 701 l 294 231 m 29 854 q 211 1019 88 904 l 244 1050 l 283 1050 q 454 854 358 953 l 400 786 l 382 786 q 249 915 294 864 q 83 786 194 867 l 65 786 l 29 854 z "},"Ķ":{"ha":790,"x_min":67,"x_max":847,"o":"m 489 465 q 767 39 600 269 l 761 18 q 578 -14 678 -3 l 560 -3 q 303 458 396 274 l 278 283 l 250 0 l 67 0 l 110 267 l 178 893 l 364 893 l 306 479 l 589 808 l 650 893 l 847 893 l 489 465 m 424 -64 q 478 -168 478 -108 q 331 -379 478 -275 l 279 -333 l 278 -321 q 347 -201 347 -264 q 308 -126 347 -161 l 308 -114 q 424 -64 364 -81 z "},"ķ":{"ha":706,"x_min":61,"x_max":731,"o":"m 440 368 q 668 36 544 199 l 663 15 q 492 -12 574 -7 l 469 -3 q 269 350 353 193 l 251 224 l 231 0 l 61 0 l 94 208 l 149 701 l 321 701 l 275 383 l 493 631 l 544 701 l 731 701 l 440 368 m 356 -64 q 410 -168 410 -108 q 263 -379 410 -275 l 211 -333 l 210 -321 q 279 -201 279 -264 q 240 -126 279 -161 l 240 -114 q 356 -64 296 -81 z "},"ĸ":{"ha":706,"x_min":61,"x_max":731,"o":"m 440 368 q 668 36 544 199 l 663 15 q 492 -12 574 -7 l 469 -3 q 269 350 353 193 l 251 224 l 231 0 l 61 0 l 94 208 l 149 701 l 321 701 l 275 383 l 493 631 l 544 701 l 731 701 l 440 368 z "},"Ĺ":{"ha":585,"x_min":63,"x_max":561,"o":"m 532 0 l 63 0 l 106 267 l 174 893 l 360 893 l 274 283 l 261 151 l 553 151 l 561 138 l 532 0 m 476 1121 l 471 1104 q 174 996 347 1056 l 156 1001 l 126 1076 q 414 1232 276 1151 l 431 1228 l 476 1121 z "},"ĺ":{"ha":531,"x_min":57,"x_max":486,"o":"m 458 0 l 57 0 l 90 208 l 143 701 l 315 701 l 247 224 l 239 140 l 476 140 l 486 128 l 458 0 m 424 960 l 419 943 q 151 778 269 846 l 135 779 l 90 847 q 340 1058 222 950 l 358 1057 l 424 960 z "},"Ļ":{"ha":585,"x_min":63,"x_max":561,"o":"m 532 0 l 63 0 l 106 267 l 174 893 l 360 893 l 274 283 l 261 151 l 553 151 l 561 138 l 532 0 m 303 -64 q 357 -168 357 -108 q 210 -379 357 -275 l 158 -333 l 157 -321 q 226 -201 226 -264 q 188 -126 226 -161 l 188 -114 q 303 -64 243 -81 z "},"ļ":{"ha":531,"x_min":57,"x_max":486,"o":"m 458 0 l 57 0 l 90 208 l 143 701 l 315 701 l 247 224 l 239 140 l 476 140 l 486 128 l 458 0 m 281 -64 q 335 -168 335 -108 q 188 -379 335 -275 l 136 -333 l 135 -321 q 204 -201 204 -264 q 165 -126 204 -161 l 165 -114 q 281 -64 221 -81 z "},"Ľ":{"ha":610,"x_min":63,"x_max":653,"o":"m 561 138 l 532 0 l 63 0 l 106 267 l 174 893 l 360 893 l 274 283 l 261 151 l 553 151 l 561 138 m 575 533 l 493 521 l 482 531 l 515 813 l 643 819 l 653 808 l 575 533 z "},"ľ":{"ha":564,"x_min":57,"x_max":586,"o":"m 486 128 l 458 0 l 57 0 l 90 208 l 143 701 l 315 701 l 247 224 l 239 140 l 478 140 l 486 128 m 507 390 l 426 378 l 415 388 l 447 669 l 576 676 l 586 665 l 507 390 z "},"Ŀ":{"ha":614,"x_min":68,"x_max":611,"o":"m 538 0 l 68 0 l 111 267 l 179 893 l 365 893 l 279 283 l 267 151 l 558 151 l 567 138 l 538 0 m 521 635 q 588 610 564 635 q 611 543 611 586 q 585 469 611 496 q 514 442 558 442 q 446 466 469 442 q 422 535 422 490 q 449 608 422 581 q 521 635 475 635 z "},"ŀ":{"ha":571,"x_min":57,"x_max":551,"o":"m 486 128 l 458 0 l 57 0 l 90 208 l 143 701 l 315 701 l 247 224 l 239 140 l 478 140 l 486 128 m 461 526 q 528 502 504 526 q 551 435 551 478 q 525 360 551 388 q 454 333 499 333 q 386 358 410 333 q 363 426 363 382 q 389 499 363 472 q 461 526 415 526 z "},"Ł":{"ha":597,"x_min":4,"x_max":572,"o":"m 543 0 l 74 0 l 117 267 l 125 347 l 39 304 l 24 313 l 4 419 l 140 488 l 185 893 l 371 893 l 326 579 l 474 653 l 490 644 l 511 538 l 307 436 l 285 283 l 272 151 l 564 151 l 572 138 l 543 0 z "},"ł":{"ha":536,"x_min":3,"x_max":482,"o":"m 454 0 l 53 0 l 86 208 l 92 267 l 19 236 l 6 246 l 3 340 l 104 382 l 139 701 l 311 701 l 275 451 l 431 514 l 442 506 l 444 411 l 258 335 l 243 224 l 235 140 l 472 140 l 482 128 l 454 0 z "},"Ń":{"ha":942,"x_min":68,"x_max":908,"o":"m 793 0 l 596 0 l 318 613 l 306 613 l 267 307 l 236 0 l 68 0 l 110 264 l 179 893 l 376 893 l 654 281 l 667 281 l 738 886 l 908 897 l 819 275 l 793 0 m 754 1121 l 749 1104 q 451 996 625 1056 l 433 1001 l 404 1076 q 692 1232 554 1151 l 708 1228 l 754 1121 z "},"ń":{"ha":825,"x_min":61,"x_max":772,"o":"m 681 0 l 499 0 l 274 444 l 265 444 l 239 244 l 214 0 l 61 0 l 94 206 l 149 701 l 329 701 l 556 256 l 567 256 l 615 694 l 772 704 l 701 219 l 681 0 m 650 960 l 646 943 q 378 778 496 846 l 361 779 l 317 847 q 567 1058 449 950 l 585 1057 l 650 960 z "},"Ņ":{"ha":942,"x_min":68,"x_max":908,"o":"m 793 0 l 596 0 l 318 613 l 306 613 l 267 307 l 236 0 l 68 0 l 110 264 l 179 893 l 376 893 l 654 281 l 667 281 l 738 886 l 908 897 l 819 275 l 793 0 m 450 -64 q 504 -168 504 -108 q 357 -379 504 -275 l 306 -333 l 304 -321 q 374 -201 374 -264 q 335 -126 374 -161 l 335 -114 q 450 -64 390 -81 z "},"ņ":{"ha":825,"x_min":61,"x_max":772,"o":"m 681 0 l 499 0 l 274 444 l 265 444 l 239 244 l 214 0 l 61 0 l 94 206 l 149 701 l 329 701 l 556 256 l 567 256 l 615 694 l 772 704 l 701 219 l 681 0 m 386 -64 q 440 -168 440 -108 q 293 -379 440 -275 l 242 -333 l 240 -321 q 310 -201 310 -264 q 271 -126 310 -161 l 271 -114 q 386 -64 326 -81 z "},"Ň":{"ha":942,"x_min":68,"x_max":908,"o":"m 793 0 l 596 0 l 318 613 l 306 613 l 267 307 l 236 0 l 68 0 l 110 264 l 179 893 l 376 893 l 654 281 l 667 281 l 738 886 l 908 897 l 819 275 l 793 0 m 771 1142 q 576 999 658 1069 l 539 999 q 365 1142 465 1068 l 408 1214 l 425 1214 q 538 1142 472 1186 l 564 1125 q 728 1214 617 1156 l 747 1214 l 771 1142 z "},"ň":{"ha":825,"x_min":61,"x_max":772,"o":"m 681 0 l 499 0 l 274 444 l 265 444 l 239 244 l 214 0 l 61 0 l 94 206 l 149 701 l 329 701 l 556 256 l 567 256 l 615 694 l 772 704 l 701 219 l 681 0 m 694 979 q 511 811 622 918 l 482 783 l 443 783 q 269 979 379 864 l 322 1047 l 340 1047 q 472 918 421 975 q 639 1047 513 953 l 658 1047 l 694 979 z "},"Ŋ":{"ha":951,"x_min":68,"x_max":910,"o":"m 804 78 q 760 -56 793 0 q 665 -154 728 -111 q 497 -236 603 -197 l 453 -139 l 456 -121 q 608 1 574 -61 l 318 613 l 306 613 l 268 307 l 236 0 l 68 0 l 111 264 l 179 893 l 378 893 l 658 294 l 671 294 l 738 886 l 910 897 l 822 275 l 804 78 z "},"ŋ":{"ha":825,"x_min":63,"x_max":771,"o":"m 685 56 q 625 -87 674 -33 q 465 -186 576 -140 l 419 -115 l 421 -100 q 513 -6 493 -57 l 276 442 l 265 442 l 242 244 l 217 0 l 63 0 l 96 206 l 150 701 l 333 701 l 554 278 l 565 278 l 613 694 l 771 704 l 700 221 l 685 56 z "},"Ō":{"ha":876,"x_min":51,"x_max":860,"o":"m 513 906 q 769 810 678 906 q 860 533 860 715 q 806 246 860 369 q 647 54 751 122 q 397 -14 543 -14 q 142 84 233 -14 q 51 365 51 182 q 105 651 51 529 q 262 840 158 774 q 513 906 365 906 m 490 757 q 303 665 365 757 q 242 369 242 572 q 283 185 242 243 q 415 128 324 128 q 603 221 540 128 q 665 518 665 314 q 624 701 665 644 q 490 757 583 757 m 731 1050 l 342 1050 l 329 1063 l 339 1164 l 728 1164 l 740 1151 l 731 1050 z "},"ō":{"ha":767,"x_min":44,"x_max":729,"o":"m 433 711 q 652 635 575 711 q 729 403 729 558 q 683 188 729 282 q 550 40 638 93 q 342 -12 463 -12 q 122 66 199 -12 q 44 301 44 144 q 90 515 44 422 q 224 659 136 607 q 433 711 311 711 m 411 574 q 269 512 317 574 q 222 306 222 450 q 253 162 222 203 q 361 121 285 121 q 503 183 457 121 q 550 389 550 246 q 519 533 550 492 q 411 574 489 574 m 647 857 l 258 857 l 246 869 l 256 971 l 644 971 l 657 958 l 647 857 z "},"Ŏ":{"ha":876,"x_min":51,"x_max":860,"o":"m 513 906 q 769 810 678 906 q 860 533 860 715 q 806 246 860 369 q 647 54 751 122 q 397 -14 543 -14 q 142 84 233 -14 q 51 365 51 182 q 105 651 51 529 q 262 840 158 774 q 513 906 365 906 m 490 757 q 303 665 365 757 q 242 369 242 572 q 283 185 242 243 q 415 128 324 128 q 603 221 540 128 q 665 518 665 314 q 624 701 665 644 q 490 757 583 757 m 742 1147 q 529 1001 675 1001 q 398 1039 450 1001 q 328 1147 346 1076 l 376 1204 l 403 1204 q 451 1147 417 1167 q 535 1126 486 1126 q 681 1204 635 1126 l 707 1204 l 742 1147 z "},"ŏ":{"ha":767,"x_min":44,"x_max":729,"o":"m 433 711 q 652 635 575 711 q 729 403 729 558 q 683 188 729 282 q 550 40 638 93 q 342 -12 463 -12 q 122 66 199 -12 q 44 301 44 144 q 90 515 44 422 q 224 659 136 607 q 433 711 311 711 m 411 574 q 269 512 317 574 q 222 306 222 450 q 253 162 222 203 q 361 121 285 121 q 503 183 457 121 q 550 389 550 246 q 519 533 550 492 q 411 574 489 574 m 656 964 q 572 839 628 886 q 436 792 517 792 q 299 839 346 792 q 243 964 253 886 l 292 1025 l 318 1025 q 444 918 339 918 q 596 1025 550 918 l 622 1025 l 656 964 z "},"Ő":{"ha":876,"x_min":51,"x_max":860,"o":"m 513 906 q 769 810 678 906 q 860 533 860 715 q 806 246 860 369 q 647 54 751 122 q 397 -14 543 -14 q 142 84 233 -14 q 51 365 51 182 q 105 651 51 529 q 262 840 158 774 q 513 906 365 906 m 490 757 q 303 665 365 757 q 242 369 242 572 q 283 185 242 243 q 415 128 324 128 q 603 221 540 128 q 665 518 665 314 q 624 701 665 644 q 490 757 583 757 m 346 1088 q 453 1224 422 1181 l 467 1228 l 550 1172 l 551 1157 q 379 997 469 1075 l 364 993 l 307 1039 l 346 1088 m 549 1074 q 667 1224 624 1167 l 681 1228 l 764 1172 l 765 1157 q 593 997 699 1090 l 578 993 l 521 1039 l 549 1074 z "},"ő":{"ha":767,"x_min":44,"x_max":729,"o":"m 433 711 q 652 635 575 711 q 729 403 729 558 q 683 188 729 282 q 550 40 638 93 q 342 -12 463 -12 q 122 66 199 -12 q 44 301 44 144 q 90 515 44 422 q 224 659 136 607 q 433 711 311 711 m 411 574 q 269 512 317 574 q 222 306 222 450 q 253 162 222 203 q 361 121 285 121 q 503 183 457 121 q 550 389 550 246 q 519 533 550 492 q 411 574 489 574 m 246 825 q 419 1061 333 938 l 433 1064 l 517 1004 l 518 990 q 318 782 421 882 l 301 778 l 246 825 m 457 825 q 631 1061 544 938 l 644 1064 l 728 1004 l 729 990 q 529 782 631 882 l 513 778 l 457 825 z "},"Œ":{"ha":1176,"x_min":50,"x_max":1224,"o":"m 551 910 q 686 901 603 910 q 797 893 761 893 l 1214 893 l 1224 879 l 1193 742 l 990 749 l 828 749 l 800 526 l 943 525 l 1092 529 l 1100 515 l 1069 378 l 913 382 l 776 381 l 765 281 l 750 146 l 899 144 l 1118 151 l 1128 138 l 1099 0 l 686 0 q 547 -8 635 1 q 408 -17 456 -17 q 143 83 236 -17 q 50 363 50 182 q 110 654 50 531 q 284 844 171 778 q 551 910 397 910 m 517 761 q 310 667 378 761 q 242 368 242 572 q 290 185 242 244 q 442 125 339 125 q 553 142 519 125 q 589 201 583 156 l 642 683 q 643 708 643 693 q 632 742 643 735 q 517 761 606 761 z "},"œ":{"ha":1018,"x_min":46,"x_max":1035,"o":"m 454 714 q 578 707 481 714 q 675 701 647 701 l 1028 701 l 1035 688 l 1007 561 l 836 568 l 704 568 l 686 422 l 803 421 l 925 425 l 933 413 l 907 285 l 776 289 l 665 288 l 657 222 l 647 133 l 769 133 l 953 139 l 961 126 l 933 0 l 589 0 q 478 -6 567 1 q 360 -12 415 -12 q 128 66 211 -12 q 46 286 46 144 q 153 600 46 486 q 454 714 261 714 m 432 574 q 274 509 324 574 q 224 292 224 444 q 260 160 224 201 q 378 119 297 119 q 471 133 447 119 q 494 183 490 143 l 531 511 q 532 529 532 518 q 522 557 532 549 q 432 574 500 574 z "},"Ŕ":{"ha":797,"x_min":67,"x_max":765,"o":"m 765 668 q 713 485 765 568 q 567 353 660 403 q 738 43 642 197 l 733 22 q 549 -14 639 -8 l 532 0 q 410 304 464 157 l 281 304 l 278 283 l 251 0 l 67 0 l 110 267 l 179 893 l 501 894 q 695 835 625 894 q 765 668 765 776 m 433 440 q 572 638 572 488 q 438 760 572 753 l 346 756 l 301 446 l 433 440 m 664 1153 l 660 1136 q 392 971 510 1039 l 375 972 l 331 1040 q 581 1251 463 1143 l 599 1250 l 664 1153 z "},"ŕ":{"ha":713,"x_min":61,"x_max":661,"o":"m 661 513 q 619 376 661 438 q 501 276 576 315 q 644 40 561 165 l 638 21 q 471 -11 553 -6 l 449 6 q 357 229 390 138 l 253 228 l 251 224 l 231 0 l 61 0 l 94 208 l 149 701 l 433 701 q 600 651 539 701 q 661 513 661 601 m 376 353 q 479 488 479 388 q 456 553 479 532 q 381 578 432 575 l 303 574 l 271 358 l 376 353 m 578 960 l 574 943 q 306 778 424 846 l 289 779 l 244 847 q 494 1058 376 950 l 513 1057 l 578 960 z "},"Ŗ":{"ha":797,"x_min":67,"x_max":765,"o":"m 765 668 q 713 485 765 568 q 567 353 660 403 q 738 43 642 197 l 733 22 q 549 -14 639 -8 l 532 0 q 410 304 464 157 l 281 304 l 278 283 l 251 0 l 67 0 l 110 267 l 179 893 l 501 894 q 695 835 625 894 q 765 668 765 776 m 433 440 q 572 638 572 488 q 438 760 572 753 l 346 756 l 301 446 l 433 440 m 376 -64 q 431 -168 431 -108 q 283 -379 431 -275 l 232 -333 l 231 -321 q 300 -201 300 -264 q 261 -126 300 -161 l 261 -114 q 376 -64 317 -81 z "},"ŗ":{"ha":713,"x_min":61,"x_max":661,"o":"m 661 513 q 619 376 661 438 q 501 276 576 315 q 644 40 561 165 l 638 21 q 471 -11 553 -6 l 449 6 q 357 229 390 138 l 253 228 l 251 224 l 231 0 l 61 0 l 94 208 l 149 701 l 433 701 q 600 651 539 701 q 661 513 661 601 m 376 353 q 479 488 479 388 q 456 553 479 532 q 381 578 432 575 l 303 574 l 271 358 l 376 353 m 357 -64 q 411 -168 411 -108 q 264 -379 411 -275 l 213 -333 l 211 -321 q 281 -201 281 -264 q 242 -126 281 -161 l 242 -114 q 357 -64 297 -81 z "},"Ř":{"ha":797,"x_min":67,"x_max":765,"o":"m 765 668 q 713 485 765 568 q 567 353 660 403 q 738 43 642 197 l 733 22 q 549 -14 639 -8 l 532 0 q 410 304 464 157 l 281 304 l 278 283 l 251 0 l 67 0 l 110 267 l 179 893 l 501 894 q 695 835 625 894 q 765 668 765 776 m 433 440 q 572 638 572 488 q 438 760 572 753 l 346 756 l 301 446 l 433 440 m 708 1172 q 525 1004 636 1111 l 496 976 l 457 976 q 283 1172 393 1057 l 336 1240 l 354 1240 q 486 1111 435 1168 q 653 1240 526 1146 l 672 1240 l 708 1172 z "},"ř":{"ha":713,"x_min":61,"x_max":661,"o":"m 661 513 q 619 376 661 438 q 501 276 576 315 q 644 40 561 165 l 638 21 q 471 -11 553 -6 l 449 6 q 357 229 390 138 l 253 228 l 251 224 l 231 0 l 61 0 l 94 208 l 149 701 l 433 701 q 600 651 539 701 q 661 513 661 601 m 376 353 q 479 488 479 388 q 456 553 479 532 q 381 578 432 575 l 303 574 l 271 358 l 376 353 m 622 979 q 439 811 550 918 l 410 783 l 371 783 q 197 979 307 864 l 250 1047 l 268 1047 q 400 918 349 975 q 567 1047 440 953 l 586 1047 l 622 979 z "},"Ś":{"ha":674,"x_min":13,"x_max":671,"o":"m 446 906 q 671 860 560 906 l 622 701 l 594 690 q 415 761 504 761 q 322 731 358 761 q 286 660 286 701 q 318 593 286 621 q 419 526 350 565 q 525 460 483 490 q 596 384 567 431 q 625 275 625 338 q 580 131 625 196 q 454 26 535 65 q 274 -12 374 -12 q 13 46 136 -12 l 57 215 l 78 226 q 188 153 128 178 q 301 128 249 128 q 401 158 364 128 q 438 233 438 189 q 405 303 438 275 q 303 371 372 332 q 200 435 240 406 q 131 510 160 464 q 103 619 103 556 q 147 765 103 699 q 270 868 192 831 q 446 906 349 906 m 606 1153 l 601 1136 q 333 971 451 1039 l 317 972 l 272 1040 q 522 1251 404 1143 l 540 1250 l 606 1153 z "},"ś":{"ha":606,"x_min":22,"x_max":567,"o":"m 379 711 q 567 675 479 711 l 525 524 l 499 517 q 349 582 424 582 q 285 561 308 582 q 261 511 261 540 q 286 465 261 483 q 364 424 311 447 q 451 378 417 400 q 511 320 486 357 q 536 229 536 283 q 503 113 536 168 q 404 24 471 58 q 242 -11 338 -11 q 22 32 119 -11 l 61 192 l 81 203 q 174 137 121 161 q 271 113 228 113 q 338 135 311 113 q 365 188 365 157 q 340 234 365 215 q 261 276 314 253 q 173 323 207 301 q 114 381 139 344 q 89 472 89 418 q 124 592 89 538 q 226 678 160 646 q 379 711 292 711 m 539 960 l 535 943 q 267 778 385 846 l 250 779 l 206 847 q 456 1058 338 950 l 474 1057 l 539 960 z "},"Ŝ":{"ha":674,"x_min":13,"x_max":671,"o":"m 446 906 q 671 860 560 906 l 622 701 l 594 690 q 415 761 504 761 q 322 731 358 761 q 286 660 286 701 q 318 593 286 621 q 419 526 350 565 q 525 460 483 490 q 596 384 567 431 q 625 275 625 338 q 580 131 625 196 q 454 26 535 65 q 274 -12 374 -12 q 13 46 136 -12 l 57 215 l 78 226 q 188 153 128 178 q 301 128 249 128 q 401 158 364 128 q 438 233 438 189 q 405 303 438 275 q 303 371 372 332 q 200 435 240 406 q 131 510 160 464 q 103 619 103 556 q 147 765 103 699 q 270 868 192 831 q 446 906 349 906 m 226 1047 q 408 1213 285 1097 l 442 1243 l 481 1243 q 651 1047 556 1146 l 597 979 l 579 979 q 446 1108 492 1057 q 281 979 392 1060 l 263 979 l 226 1047 z "},"ŝ":{"ha":606,"x_min":22,"x_max":583,"o":"m 379 711 q 567 675 479 711 l 525 524 l 499 517 q 349 582 424 582 q 285 561 308 582 q 261 511 261 540 q 286 465 261 483 q 364 424 311 447 q 451 378 417 400 q 511 320 486 357 q 536 229 536 283 q 503 113 536 168 q 404 24 471 58 q 242 -11 338 -11 q 22 32 119 -11 l 61 192 l 81 203 q 174 137 121 161 q 271 113 228 113 q 338 135 311 113 q 365 188 365 157 q 340 234 365 215 q 261 276 314 253 q 173 323 207 301 q 114 381 139 344 q 89 472 89 418 q 124 592 89 538 q 226 678 160 646 q 379 711 292 711 m 158 854 q 340 1019 217 904 l 374 1050 l 413 1050 q 583 854 488 953 l 529 786 l 511 786 q 378 915 424 864 q 213 786 324 867 l 194 786 l 158 854 z "},"Ş":{"ha":674,"x_min":13,"x_max":671,"o":"m 286 660 q 318 593 286 621 q 419 526 350 565 q 525 460 483 490 q 596 384 567 431 q 625 275 625 338 q 586 139 625 201 q 476 37 547 76 q 315 -11 406 -3 l 301 -65 l 349 -92 q 406 -174 406 -122 q 370 -249 406 -219 q 276 -278 335 -278 q 163 -237 215 -278 l 176 -161 l 185 -158 q 265 -200 226 -200 q 300 -169 300 -200 q 276 -142 300 -154 l 208 -103 l 229 -11 q 13 46 115 -3 l 58 215 l 79 226 q 188 153 128 178 q 301 128 249 128 q 401 158 364 128 q 438 233 438 189 q 406 303 438 275 q 304 371 374 332 q 201 435 242 406 q 133 510 161 464 q 104 619 104 556 q 149 765 104 699 q 271 868 193 831 q 446 906 349 906 q 671 860 560 906 l 624 701 l 594 690 q 415 761 504 761 q 322 731 358 761 q 286 660 286 701 z "},"ş":{"ha":606,"x_min":22,"x_max":567,"o":"m 261 511 q 286 465 261 483 q 364 424 311 447 q 451 378 417 400 q 511 320 486 357 q 536 229 536 283 q 509 124 536 175 q 428 38 482 74 q 296 -8 374 1 l 281 -65 l 328 -92 q 385 -174 385 -122 q 349 -249 385 -219 q 256 -278 314 -278 q 142 -237 194 -278 l 156 -161 l 164 -158 q 244 -200 206 -200 q 279 -169 279 -200 q 256 -142 279 -154 l 188 -103 l 208 -10 q 22 32 106 -4 l 63 192 l 81 203 q 174 137 121 161 q 271 113 228 113 q 338 135 311 113 q 365 188 365 157 q 340 234 365 215 q 261 276 314 253 q 173 323 207 301 q 114 381 139 344 q 89 472 89 418 q 124 592 89 538 q 226 678 160 646 q 379 711 292 711 q 567 675 481 711 l 525 524 l 499 517 q 350 582 424 582 q 285 561 310 582 q 261 511 261 540 z "},"Š":{"ha":674,"x_min":13,"x_max":671,"o":"m 446 906 q 671 860 560 906 l 622 701 l 594 690 q 415 761 504 761 q 322 731 358 761 q 286 660 286 701 q 318 593 286 621 q 419 526 350 565 q 525 460 483 490 q 596 384 567 431 q 625 275 625 338 q 580 131 625 196 q 454 26 535 65 q 274 -12 374 -12 q 13 46 136 -12 l 57 215 l 78 226 q 188 153 128 178 q 301 128 249 128 q 401 158 364 128 q 438 233 438 189 q 405 303 438 275 q 303 371 372 332 q 200 435 240 406 q 131 510 160 464 q 103 619 103 556 q 147 765 103 699 q 270 868 192 831 q 446 906 349 906 m 651 1172 q 468 1004 579 1111 l 439 976 l 400 976 q 226 1172 336 1057 l 279 1240 l 297 1240 q 429 1111 378 1168 q 596 1240 469 1146 l 615 1240 l 651 1172 z "},"š":{"ha":606,"x_min":22,"x_max":585,"o":"m 379 711 q 567 675 479 711 l 525 524 l 499 517 q 349 582 424 582 q 285 561 308 582 q 261 511 261 540 q 286 465 261 483 q 364 424 311 447 q 451 378 417 400 q 511 320 486 357 q 536 229 536 283 q 503 113 536 168 q 404 24 471 58 q 242 -11 338 -11 q 22 32 119 -11 l 61 192 l 81 203 q 174 137 121 161 q 271 113 228 113 q 338 135 311 113 q 365 188 365 157 q 340 234 365 215 q 261 276 314 253 q 173 323 207 301 q 114 381 139 344 q 89 472 89 418 q 124 592 89 538 q 226 678 160 646 q 379 711 292 711 m 585 979 q 401 811 513 918 l 372 783 l 333 783 q 160 979 269 864 l 213 1047 l 231 1047 q 363 918 311 975 q 529 1047 403 953 l 549 1047 l 585 979 z "},"Ţ":{"ha":679,"x_min":75,"x_max":729,"o":"m 700 743 l 539 751 l 485 751 l 419 283 l 393 0 l 340 0 l 326 -64 l 369 -90 q 424 -169 424 -124 q 390 -240 424 -212 q 301 -268 356 -268 q 196 -231 250 -268 l 208 -158 l 217 -156 q 292 -196 254 -196 q 322 -167 322 -196 q 303 -136 322 -149 l 239 -99 l 261 0 l 210 0 l 254 267 l 307 751 l 251 751 l 85 743 l 75 757 l 104 893 l 721 893 l 729 879 l 700 743 z "},"ţ":{"ha":607,"x_min":58,"x_max":615,"o":"m 589 557 l 451 565 l 413 565 l 365 224 l 344 0 l 303 0 l 279 -67 l 321 -93 q 367 -165 367 -124 q 327 -244 367 -212 q 228 -276 288 -276 q 125 -237 167 -276 l 147 -164 l 154 -161 q 226 -203 189 -203 q 253 -193 243 -203 q 264 -168 264 -183 q 244 -142 264 -153 l 185 -103 l 221 0 l 175 0 l 208 208 l 249 565 l 208 565 l 67 557 l 58 569 l 85 701 l 608 701 l 615 688 l 589 557 z "},"Ť":{"ha":679,"x_min":75,"x_max":729,"o":"m 701 743 l 539 751 l 486 751 l 421 283 l 393 0 l 210 0 l 254 267 l 307 751 l 253 751 l 85 743 l 75 757 l 106 893 l 721 893 l 729 879 l 701 743 m 650 1172 q 467 1004 578 1111 l 438 976 l 399 976 q 225 1172 335 1057 l 278 1240 l 296 1240 q 428 1111 376 1168 q 594 1240 468 1146 l 614 1240 l 650 1172 z "},"ť":{"ha":607,"x_min":61,"x_max":619,"o":"m 593 557 l 456 565 l 417 565 l 369 224 l 349 0 l 179 0 l 213 208 l 253 565 l 213 565 l 71 557 l 61 569 l 89 701 l 613 701 l 619 688 l 593 557 m 588 979 q 404 811 515 918 l 375 783 l 336 783 q 163 979 272 864 l 215 1047 l 233 1047 q 365 918 314 975 q 532 1047 406 953 l 551 1047 l 588 979 z "},"Ŧ":{"ha":679,"x_min":75,"x_max":729,"o":"m 446 474 l 571 474 l 583 461 l 575 374 l 432 374 l 419 283 l 393 0 l 210 0 l 254 267 l 265 374 l 147 374 l 136 385 l 143 474 l 276 474 l 307 751 l 251 751 l 85 743 l 75 757 l 104 893 l 721 893 l 729 879 l 700 743 l 539 751 l 485 751 l 446 474 z "},"ŧ":{"ha":607,"x_min":63,"x_max":621,"o":"m 388 354 l 500 354 l 510 342 l 492 254 l 374 254 l 369 224 l 349 0 l 179 0 l 213 208 l 218 254 l 101 254 l 92 265 l 110 354 l 229 354 l 253 565 l 213 565 l 72 557 l 63 569 l 89 701 l 613 701 l 621 688 l 593 557 l 456 565 l 417 565 l 388 354 z "},"Ũ":{"ha":864,"x_min":81,"x_max":851,"o":"m 774 324 q 658 74 756 161 q 393 -12 561 -12 q 164 55 247 -12 q 81 247 81 122 q 86 315 81 283 l 104 444 l 154 893 l 338 893 l 261 340 q 257 288 257 311 q 407 139 257 139 q 606 331 583 139 l 667 893 l 851 893 l 789 440 l 774 324 m 771 1151 l 674 1029 l 657 1022 q 540 1050 632 1025 q 442 1072 457 1072 q 412 1060 426 1072 q 381 1028 397 1047 q 357 1000 365 1010 l 340 1000 l 286 1054 l 286 1069 l 383 1192 l 400 1197 q 517 1171 417 1194 q 615 1149 590 1149 q 645 1160 631 1149 q 676 1191 660 1172 q 701 1219 692 1210 l 717 1219 l 771 1167 l 771 1151 z "},"ũ":{"ha":757,"x_min":69,"x_max":722,"o":"m 660 238 q 563 53 644 118 q 338 -11 481 -11 q 140 41 210 -11 q 69 190 69 93 q 74 238 69 213 l 89 347 l 129 701 l 299 701 l 236 263 q 233 232 233 240 q 354 126 233 126 q 504 263 490 126 l 551 701 l 722 701 l 674 344 l 660 238 m 690 958 l 593 836 l 576 829 q 460 857 551 832 q 361 879 376 879 q 331 867 346 879 q 301 835 317 854 q 276 807 285 817 l 260 807 l 206 861 l 206 876 l 303 999 l 319 1004 q 436 978 336 1001 q 535 956 510 956 q 565 967 550 956 q 595 998 579 979 q 621 1026 611 1017 l 636 1026 l 690 974 l 690 958 z "},"Ū":{"ha":864,"x_min":81,"x_max":851,"o":"m 774 324 q 658 74 756 161 q 393 -12 561 -12 q 164 55 247 -12 q 81 247 81 122 q 86 315 81 283 l 104 444 l 154 893 l 338 893 l 261 340 q 257 288 257 311 q 407 139 257 139 q 606 331 583 139 l 667 893 l 851 893 l 789 440 l 774 324 m 725 1050 l 336 1050 l 324 1063 l 333 1164 l 722 1164 l 735 1151 l 725 1050 z "},"ū":{"ha":757,"x_min":69,"x_max":722,"o":"m 660 238 q 563 53 644 118 q 338 -11 481 -11 q 140 41 210 -11 q 69 190 69 93 q 74 238 69 213 l 89 347 l 129 701 l 299 701 l 236 263 q 233 232 233 240 q 354 126 233 126 q 504 263 490 126 l 551 701 l 722 701 l 674 344 l 660 238 m 644 857 l 256 857 l 243 869 l 253 971 l 642 971 l 654 958 l 644 857 z "},"Ŭ":{"ha":864,"x_min":81,"x_max":851,"o":"m 774 324 q 658 74 756 161 q 393 -12 561 -12 q 164 55 247 -12 q 81 247 81 122 q 86 315 81 283 l 104 444 l 154 893 l 338 893 l 261 340 q 257 288 257 311 q 407 139 257 139 q 606 331 583 139 l 667 893 l 851 893 l 789 440 l 774 324 m 733 1157 q 650 1032 706 1079 q 514 985 594 985 q 377 1032 424 985 q 321 1157 331 1079 l 369 1218 l 396 1218 q 522 1111 417 1111 q 674 1218 628 1111 l 700 1218 l 733 1157 z "},"ŭ":{"ha":757,"x_min":69,"x_max":722,"o":"m 660 238 q 563 53 644 118 q 338 -11 481 -11 q 140 41 210 -11 q 69 190 69 93 q 74 238 69 213 l 89 347 l 129 701 l 299 701 l 236 263 q 233 232 233 240 q 354 126 233 126 q 504 263 490 126 l 551 701 l 722 701 l 674 344 l 660 238 m 653 964 q 569 839 625 886 q 433 792 514 792 q 297 839 343 792 q 240 964 250 886 l 289 1025 l 315 1025 q 442 918 336 918 q 593 1025 547 918 l 619 1025 l 653 964 z "},"Ů":{"ha":864,"x_min":81,"x_max":851,"o":"m 774 324 q 658 74 756 161 q 393 -12 561 -12 q 164 55 247 -12 q 81 247 81 122 q 86 315 81 283 l 104 444 l 154 893 l 338 893 l 261 340 q 257 288 257 311 q 407 139 257 139 q 606 331 583 139 l 667 893 l 851 893 l 789 440 l 774 324 m 533 1253 q 629 1219 596 1253 q 663 1126 663 1186 q 626 1026 663 1061 q 526 990 589 990 q 433 1024 467 990 q 399 1121 399 1058 q 433 1218 399 1183 q 533 1253 468 1253 m 529 1175 q 474 1124 474 1175 q 531 1067 474 1067 q 588 1119 588 1067 q 529 1175 588 1175 z "},"ů":{"ha":757,"x_min":69,"x_max":722,"o":"m 660 238 q 563 53 644 118 q 338 -11 481 -11 q 140 41 210 -11 q 69 190 69 93 q 74 238 69 213 l 89 347 l 129 701 l 299 701 l 236 263 q 233 232 233 240 q 354 126 233 126 q 504 263 490 126 l 551 701 l 722 701 l 674 344 l 660 238 m 454 1060 q 550 1026 517 1060 q 583 933 583 993 q 547 833 583 868 q 447 797 510 797 q 353 831 388 797 q 319 928 319 865 q 354 1025 319 990 q 454 1060 389 1060 m 450 982 q 394 931 394 982 q 451 874 394 874 q 508 926 508 874 q 450 982 508 982 z "},"Ű":{"ha":864,"x_min":81,"x_max":851,"o":"m 774 324 q 658 74 756 161 q 393 -12 561 -12 q 164 55 247 -12 q 81 247 81 122 q 86 315 81 283 l 104 444 l 154 893 l 338 893 l 261 340 q 257 288 257 311 q 407 139 257 139 q 606 331 583 139 l 667 893 l 851 893 l 789 440 l 774 324 m 340 1088 q 447 1224 417 1181 l 461 1228 l 544 1172 l 546 1157 q 374 997 464 1075 l 358 993 l 301 1039 l 340 1088 m 543 1074 q 661 1224 618 1167 l 675 1228 l 758 1172 l 760 1157 q 588 997 693 1090 l 572 993 l 515 1039 l 543 1074 z "},"ű":{"ha":757,"x_min":69,"x_max":728,"o":"m 660 238 q 563 53 644 118 q 338 -11 481 -11 q 140 41 210 -11 q 69 190 69 93 q 74 238 69 213 l 89 347 l 129 701 l 299 701 l 236 263 q 233 232 233 240 q 354 126 233 126 q 504 263 490 126 l 551 701 l 722 701 l 674 344 l 660 238 m 244 825 q 418 1061 332 938 l 432 1064 l 515 1004 l 517 990 q 317 782 419 882 l 300 778 l 244 825 m 456 825 q 629 1061 543 938 l 643 1064 l 726 1004 l 728 990 q 528 782 629 882 l 511 778 l 456 825 z "},"Ų":{"ha":863,"x_min":81,"x_max":851,"o":"m 789 440 l 774 324 q 626 50 753 135 l 560 -60 q 536 -126 536 -96 q 585 -172 536 -172 q 675 -131 632 -172 l 685 -131 l 701 -204 q 560 -274 625 -274 q 472 -240 506 -274 q 439 -153 439 -206 q 475 -46 439 -100 l 506 -1 q 393 -12 450 -12 q 163 55 246 -12 q 81 247 81 122 q 86 315 81 283 l 104 444 l 154 893 l 336 893 l 260 340 q 257 288 257 301 q 407 139 257 139 q 606 331 583 139 l 667 893 l 851 893 l 789 440 z "},"ų":{"ha":757,"x_min":69,"x_max":722,"o":"m 674 344 l 660 238 q 544 40 643 103 l 478 -54 q 453 -119 453 -90 q 506 -171 453 -171 q 596 -129 550 -171 l 606 -129 l 622 -204 q 478 -274 547 -274 q 388 -239 422 -274 q 353 -153 353 -204 q 394 -39 353 -94 l 421 -4 q 338 -11 376 -11 q 140 41 210 -11 q 69 190 69 93 q 74 238 69 213 l 89 347 l 129 701 l 299 701 l 236 263 q 233 232 233 240 q 354 126 233 126 q 504 263 490 126 l 551 701 l 722 701 l 674 344 z "},"Ŵ":{"ha":1218,"x_min":97,"x_max":1283,"o":"m 694 0 l 619 433 l 607 433 l 424 0 l 228 0 l 97 893 l 276 893 l 276 785 l 357 190 l 368 190 l 575 676 l 540 893 l 728 893 l 732 767 l 817 190 l 829 190 l 1076 775 l 1113 893 l 1283 893 l 886 0 l 694 0 m 475 1082 q 669 1225 588 1154 l 708 1225 q 881 1082 778 1157 l 839 1010 l 821 1010 q 683 1099 764 1044 q 574 1039 635 1071 l 518 1010 l 500 1010 l 475 1082 z "},"ŵ":{"ha":1051,"x_min":85,"x_max":1082,"o":"m 582 0 l 521 307 l 511 307 l 375 0 l 193 0 l 85 701 l 251 701 l 251 606 l 313 176 l 322 176 l 479 533 l 454 701 l 628 701 l 631 589 l 696 176 l 708 176 l 890 597 l 924 701 l 1082 701 l 763 0 l 582 0 m 361 854 q 543 1019 419 904 l 576 1050 l 615 1050 q 786 854 690 953 l 732 786 l 714 786 q 581 915 626 864 q 415 786 526 867 l 397 786 l 361 854 z "},"Ŷ":{"ha":754,"x_min":78,"x_max":828,"o":"m 440 250 l 417 0 l 233 0 l 275 250 l 281 307 l 78 893 l 268 893 l 279 833 l 385 489 l 397 489 l 603 828 l 636 893 l 828 893 l 450 306 l 440 250 m 274 1082 q 468 1225 386 1154 l 507 1225 q 679 1082 576 1157 l 638 1010 l 619 1010 q 482 1099 563 1044 q 372 1039 433 1071 l 317 1010 l 299 1010 l 274 1082 z "},"ŷ":{"ha":674,"x_min":64,"x_max":710,"o":"m 389 192 l 372 0 l 203 0 l 235 192 l 239 228 l 64 701 l 244 701 l 254 650 l 338 401 l 349 401 l 506 643 l 535 701 l 710 701 l 394 226 l 389 192 m 194 854 q 376 1019 253 904 l 410 1050 l 449 1050 q 619 854 524 953 l 565 786 l 547 786 q 414 915 460 864 q 249 786 360 867 l 231 786 l 194 854 z "},"Ÿ":{"ha":754,"x_min":78,"x_max":828,"o":"m 440 250 l 417 0 l 233 0 l 275 250 l 281 307 l 78 893 l 268 893 l 279 833 l 385 489 l 397 489 l 603 828 l 636 893 l 828 893 l 450 306 l 440 250 m 358 1193 q 417 1171 396 1193 q 439 1110 439 1149 q 415 1042 439 1067 q 351 1018 392 1018 q 268 1103 268 1018 q 292 1169 268 1144 q 358 1193 317 1193 m 600 1192 q 660 1169 639 1192 q 681 1108 681 1147 q 657 1042 681 1067 q 593 1017 633 1017 q 511 1101 511 1017 q 535 1167 511 1143 q 600 1192 558 1192 z "},"Ź":{"ha":739,"x_min":1,"x_max":763,"o":"m 236 140 l 528 140 l 675 151 l 681 142 l 649 -4 l 453 0 l 107 0 l 1 -6 l 18 126 l 532 753 l 257 753 l 108 740 l 101 750 l 135 896 l 310 893 l 679 893 l 763 894 l 746 761 l 236 140 m 599 1121 l 593 1104 q 296 996 469 1056 l 278 1001 l 249 1076 q 536 1232 399 1151 l 553 1228 l 599 1121 z "},"ź":{"ha":657,"x_min":10,"x_max":647,"o":"m 228 128 l 453 128 l 585 140 l 590 132 l 558 -4 l 382 0 l 103 0 l 10 -4 l 25 117 l 433 571 l 214 571 l 88 558 l 83 568 l 113 703 l 647 701 l 632 578 l 228 128 m 567 960 l 563 943 q 294 778 413 846 l 278 779 l 233 847 q 483 1058 365 950 l 501 1057 l 567 960 z "},"Ż":{"ha":739,"x_min":1,"x_max":763,"o":"m 236 140 l 528 140 l 675 151 l 681 142 l 649 -4 l 453 0 l 107 0 l 1 -6 l 18 126 l 532 753 l 257 753 l 108 740 l 101 750 l 135 896 l 310 893 l 679 893 l 763 894 l 746 761 l 236 140 m 417 1211 q 483 1187 460 1211 q 507 1118 507 1163 q 481 1045 507 1072 q 410 1018 454 1018 q 342 1042 367 1018 q 318 1111 318 1067 q 344 1184 318 1157 q 417 1211 371 1211 z "},"ż":{"ha":657,"x_min":10,"x_max":647,"o":"m 228 128 l 453 128 l 585 140 l 590 132 l 558 -4 l 382 0 l 103 0 l 10 -4 l 25 117 l 433 571 l 214 571 l 88 558 l 83 568 l 113 703 l 647 701 l 632 578 l 228 128 m 403 1018 q 469 994 446 1018 q 493 925 493 969 q 467 852 493 879 q 396 825 440 825 q 328 849 353 825 q 304 918 304 874 q 331 991 304 964 q 403 1018 357 1018 z "},"Ž":{"ha":739,"x_min":1,"x_max":763,"o":"m 236 140 l 528 140 l 675 151 l 681 142 l 649 -4 l 453 0 l 107 0 l 1 -6 l 18 126 l 532 753 l 257 753 l 108 740 l 101 750 l 135 896 l 310 893 l 679 893 l 763 894 l 746 761 l 236 140 m 614 1142 q 419 999 501 1069 l 382 999 q 208 1142 308 1068 l 251 1214 l 268 1214 q 381 1142 315 1186 l 407 1125 q 571 1214 460 1156 l 590 1214 l 614 1142 z "},"ž":{"ha":657,"x_min":10,"x_max":647,"o":"m 228 128 l 453 128 l 585 140 l 590 132 l 558 -4 l 382 0 l 103 0 l 10 -4 l 25 117 l 433 571 l 214 571 l 88 558 l 83 568 l 113 703 l 647 701 l 632 578 l 228 128 m 613 979 q 429 811 540 918 l 400 783 l 361 783 q 188 979 297 864 l 240 1047 l 258 1047 q 390 918 339 975 q 557 1047 431 953 l 576 1047 l 613 979 z "},"ƒ":{"ha":438,"x_min":-18,"x_max":563,"o":"m 451 861 q 563 849 501 861 l 538 729 l 525 722 q 426 746 471 746 q 319 649 332 746 l 304 533 l 446 533 l 451 522 l 442 435 l 290 435 l 268 257 l 247 75 q 194 -87 236 -24 q 56 -208 151 -150 l -18 -137 l -17 -124 q 63 -40 39 -82 q 97 72 88 3 l 117 242 l 139 435 l 47 435 l 42 444 l 50 533 l 149 533 l 160 622 q 250 799 174 738 q 451 861 326 861 z "},"Ơ":{"ha":882,"x_min":51,"x_max":975,"o":"m 897 1076 q 953 1046 931 1076 q 975 965 975 1015 q 924 840 975 890 q 793 779 872 790 q 858 528 858 686 q 803 247 858 369 q 643 55 747 124 q 396 -14 539 -14 q 140 85 228 -14 q 51 378 51 183 q 108 654 51 535 q 267 840 164 774 q 504 906 369 906 q 667 881 576 906 q 743 865 718 865 q 808 886 783 865 q 833 946 833 907 q 801 1028 833 993 l 807 1042 q 897 1076 858 1076 m 490 757 q 242 381 242 757 q 281 187 242 246 q 418 128 321 128 q 667 508 667 128 q 627 699 667 640 q 490 757 588 757 z "},"ơ":{"ha":774,"x_min":44,"x_max":828,"o":"m 675 817 q 756 849 725 849 q 807 822 786 849 q 828 754 828 796 q 786 648 828 693 q 682 597 744 603 q 728 417 728 529 q 682 190 728 288 q 549 40 636 93 q 340 -12 461 -12 q 123 65 201 -12 q 44 282 44 143 q 91 512 44 415 q 223 660 138 608 q 424 711 308 711 q 563 692 478 711 q 628 681 613 681 q 677 696 658 681 q 696 740 696 711 q 669 803 696 776 l 675 817 m 361 119 q 506 184 461 119 q 550 408 550 249 q 517 536 550 497 q 411 575 483 575 q 267 509 311 575 q 222 285 222 443 q 256 158 222 196 q 361 119 289 119 z "},"Ư":{"ha":876,"x_min":81,"x_max":956,"o":"m 956 978 q 925 889 956 929 q 842 825 894 849 l 789 440 l 774 324 q 658 74 756 161 q 393 -12 561 -12 q 163 55 246 -12 q 81 247 81 122 q 86 315 81 283 l 104 444 l 154 893 l 336 893 l 260 340 q 257 288 257 301 q 407 139 257 139 q 606 331 583 139 l 667 893 l 733 893 q 817 963 817 893 q 775 1046 817 1006 l 779 1060 q 865 1094 829 1094 q 928 1061 901 1094 q 956 978 956 1028 z "},"ư":{"ha":774,"x_min":69,"x_max":828,"o":"m 828 781 q 797 699 828 736 q 714 640 765 661 l 674 344 l 660 238 q 563 53 644 118 q 338 -11 481 -11 q 140 41 210 -11 q 69 190 69 93 q 74 238 69 213 l 89 347 l 129 701 l 299 701 l 236 263 q 233 232 233 240 q 354 126 233 126 q 504 263 490 126 l 551 701 l 621 701 q 677 716 660 701 q 694 763 694 731 q 668 818 694 796 l 674 832 q 758 864 721 864 q 807 840 786 864 q 828 781 828 815 z "},"Ǎ":{"ha":810,"x_min":-28,"x_max":749,"o":"m 564 0 l 556 115 l 543 203 l 375 206 l 226 203 l 193 125 l 153 0 l -28 0 l 376 893 l 594 893 l 749 0 l 564 0 m 467 721 l 454 721 l 290 346 l 404 343 l 522 344 l 467 721 m 707 1142 q 513 999 594 1069 l 475 999 q 301 1142 401 1068 l 344 1214 l 361 1214 q 474 1142 408 1186 l 500 1125 q 664 1214 553 1156 l 683 1214 l 707 1142 z "},"ǎ":{"ha":718,"x_min":-17,"x_max":646,"o":"m 474 0 l 469 99 l 463 143 l 322 146 l 200 143 l 183 108 l 149 0 l -17 0 l 313 701 l 513 701 l 644 0 l 474 0 m 394 546 l 383 546 l 258 272 l 349 271 l 440 272 l 394 546 m 646 979 q 463 811 574 918 l 433 783 l 394 783 q 221 979 331 864 l 274 1047 l 292 1047 q 424 918 372 975 q 590 1047 464 953 l 610 1047 l 646 979 z "},"Ǐ":{"ha":401,"x_min":67,"x_max":497,"o":"m 251 0 l 67 0 l 110 267 l 178 893 l 364 893 l 278 283 l 251 0 m 497 1142 q 303 999 385 1069 l 265 999 q 92 1142 192 1068 l 135 1214 l 151 1214 q 264 1142 199 1186 l 290 1125 q 454 1214 343 1156 l 474 1214 l 497 1142 z "},"ǐ":{"ha":382,"x_min":44,"x_max":469,"o":"m 232 0 l 63 0 l 96 208 l 149 701 l 321 701 l 251 224 l 232 0 m 469 979 q 286 811 397 918 l 257 783 l 218 783 q 44 979 154 864 l 97 1047 l 115 1047 q 247 918 196 975 q 414 1047 288 953 l 433 1047 l 469 979 z "},"Ǒ":{"ha":876,"x_min":51,"x_max":860,"o":"m 513 906 q 769 810 678 906 q 860 533 860 715 q 806 246 860 369 q 647 54 751 122 q 397 -14 543 -14 q 142 84 233 -14 q 51 365 51 182 q 105 651 51 529 q 262 840 158 774 q 513 906 365 906 m 490 757 q 303 665 365 757 q 242 369 242 572 q 283 185 242 243 q 415 128 324 128 q 603 221 540 128 q 665 518 665 314 q 624 701 665 644 q 490 757 583 757 m 736 1142 q 542 999 624 1069 l 504 999 q 331 1142 431 1068 l 374 1214 l 390 1214 q 503 1142 438 1186 l 529 1125 q 693 1214 582 1156 l 713 1214 l 736 1142 z "},"ǒ":{"ha":767,"x_min":44,"x_max":729,"o":"m 433 711 q 652 635 575 711 q 729 403 729 558 q 683 188 729 282 q 550 40 638 93 q 342 -12 463 -12 q 122 66 199 -12 q 44 301 44 144 q 90 515 44 422 q 224 659 136 607 q 433 711 311 711 m 411 574 q 269 512 317 574 q 222 306 222 450 q 253 162 222 203 q 361 121 285 121 q 503 183 457 121 q 550 389 550 246 q 519 533 550 492 q 411 574 489 574 m 664 979 q 481 811 592 918 l 451 783 l 413 783 q 239 979 349 864 l 292 1047 l 310 1047 q 442 918 390 975 q 608 1047 482 953 l 628 1047 l 664 979 z "},"Ǔ":{"ha":864,"x_min":81,"x_max":851,"o":"m 774 324 q 658 74 756 161 q 393 -12 561 -12 q 164 55 247 -12 q 81 247 81 122 q 86 315 81 283 l 104 444 l 154 893 l 338 893 l 261 340 q 257 288 257 311 q 407 139 257 139 q 606 331 583 139 l 667 893 l 851 893 l 789 440 l 774 324 m 743 1172 q 560 1004 671 1111 l 531 976 l 492 976 q 318 1172 428 1057 l 371 1240 l 389 1240 q 521 1111 469 1168 q 688 1240 561 1146 l 707 1240 l 743 1172 z "},"ǔ":{"ha":757,"x_min":69,"x_max":722,"o":"m 660 238 q 563 53 644 118 q 338 -11 481 -11 q 140 41 210 -11 q 69 190 69 93 q 74 238 69 213 l 89 347 l 129 701 l 299 701 l 236 263 q 233 232 233 240 q 354 126 233 126 q 504 263 490 126 l 551 701 l 722 701 l 674 344 l 660 238 m 663 979 q 479 811 590 918 l 450 783 l 411 783 q 238 979 347 864 l 290 1047 l 308 1047 q 440 918 389 975 q 607 1047 481 953 l 626 1047 l 663 979 z "},"Ǖ":{"ha":864,"x_min":81,"x_max":851,"o":"m 774 324 q 658 74 756 161 q 393 -12 561 -12 q 164 55 247 -12 q 81 247 81 122 q 86 315 81 283 l 104 444 l 154 893 l 338 893 l 261 340 q 257 288 257 311 q 407 139 257 139 q 606 331 583 139 l 667 893 l 851 893 l 789 440 l 774 324 m 750 1243 l 365 1243 l 351 1256 l 361 1357 l 747 1357 l 760 1344 l 750 1243 m 424 1163 q 482 1142 461 1163 q 503 1082 503 1121 q 480 1017 503 1042 q 417 993 457 993 q 357 1015 378 993 q 336 1075 336 1036 q 360 1139 336 1115 q 424 1163 383 1163 m 664 1163 q 722 1142 701 1163 q 743 1082 743 1121 q 720 1017 743 1042 q 657 993 697 993 q 597 1015 618 993 q 576 1075 576 1036 q 600 1139 576 1115 q 664 1163 624 1163 z "},"ǖ":{"ha":757,"x_min":69,"x_max":722,"o":"m 660 238 q 563 53 644 118 q 338 -11 481 -11 q 140 41 210 -11 q 69 190 69 93 q 74 238 69 213 l 89 347 l 129 701 l 299 701 l 236 263 q 233 232 233 240 q 354 126 233 126 q 504 263 490 126 l 551 701 l 722 701 l 674 344 l 660 238 m 669 1050 l 285 1050 l 271 1063 l 281 1164 l 667 1164 l 679 1151 l 669 1050 m 343 969 q 401 949 381 969 q 422 889 422 928 q 399 824 422 849 q 336 800 376 800 q 276 822 297 800 q 256 882 256 843 q 279 946 256 922 q 343 969 303 969 m 583 969 q 642 949 621 969 q 663 889 663 928 q 640 824 663 849 q 576 800 617 800 q 517 822 538 800 q 496 882 496 843 q 519 946 496 922 q 583 969 543 969 z "},"Ǘ":{"ha":864,"x_min":81,"x_max":851,"o":"m 774 324 q 658 74 756 161 q 393 -12 561 -12 q 164 55 247 -12 q 81 247 81 122 q 86 315 81 283 l 104 444 l 154 893 l 338 893 l 261 340 q 257 288 257 311 q 407 139 257 139 q 606 331 583 139 l 667 893 l 851 893 l 789 440 l 774 324 m 715 1299 l 707 1282 q 396 1228 560 1253 l 379 1236 l 363 1315 q 672 1418 526 1364 l 688 1411 l 715 1299 m 411 1163 q 469 1142 449 1163 q 490 1082 490 1121 q 467 1017 490 1042 q 404 993 444 993 q 344 1015 365 993 q 324 1075 324 1036 q 347 1139 324 1115 q 411 1163 371 1163 m 651 1163 q 710 1142 689 1163 q 731 1082 731 1121 q 708 1017 731 1042 q 644 993 685 993 q 585 1015 606 993 q 564 1075 564 1036 q 588 1139 564 1115 q 651 1163 611 1163 z "},"ǘ":{"ha":757,"x_min":69,"x_max":722,"o":"m 660 238 q 563 53 644 118 q 338 -11 481 -11 q 140 41 210 -11 q 69 190 69 93 q 74 238 69 213 l 89 347 l 129 701 l 299 701 l 236 263 q 233 232 233 240 q 354 126 233 126 q 504 263 490 126 l 551 701 l 722 701 l 674 344 l 660 238 m 635 1106 l 626 1089 q 315 1035 479 1060 l 299 1043 l 282 1122 q 592 1225 446 1171 l 607 1218 l 635 1106 m 331 969 q 389 949 368 969 q 410 889 410 928 q 387 824 410 849 q 324 800 364 800 q 264 822 285 800 q 243 882 243 843 q 267 946 243 922 q 331 969 290 969 m 571 969 q 629 949 608 969 q 650 889 650 928 q 627 824 650 849 q 564 800 604 800 q 504 822 525 800 q 483 882 483 843 q 507 946 483 922 q 571 969 531 969 z "},"Ǚ":{"ha":864,"x_min":81,"x_max":851,"o":"m 774 324 q 658 74 756 161 q 393 -12 561 -12 q 164 55 247 -12 q 81 247 81 122 q 86 315 81 283 l 104 444 l 154 893 l 338 893 l 261 340 q 257 288 257 311 q 407 139 257 139 q 606 331 583 139 l 667 893 l 851 893 l 789 440 l 774 324 m 750 1325 q 556 1183 639 1254 l 517 1183 q 344 1325 453 1243 l 386 1399 l 404 1399 l 474 1354 l 542 1310 l 633 1360 l 707 1399 l 725 1399 l 750 1325 m 417 1163 q 476 1142 454 1163 q 497 1082 497 1121 q 474 1017 497 1042 q 411 993 450 993 q 351 1015 372 993 q 329 1075 329 1036 q 353 1139 329 1115 q 417 1163 376 1163 m 657 1163 q 715 1142 694 1163 q 736 1082 736 1121 q 713 1017 736 1042 q 650 993 690 993 q 590 1015 611 993 q 569 1075 569 1036 q 593 1139 569 1115 q 657 1163 617 1163 z "},"ǚ":{"ha":757,"x_min":69,"x_max":722,"o":"m 660 238 q 563 53 644 118 q 338 -11 481 -11 q 140 41 210 -11 q 69 190 69 93 q 74 238 69 213 l 89 347 l 129 701 l 299 701 l 236 263 q 233 232 233 240 q 354 126 233 126 q 504 263 490 126 l 551 701 l 722 701 l 674 344 l 660 238 m 669 1132 q 475 990 558 1061 l 436 990 q 264 1132 372 1050 l 306 1206 l 324 1206 l 393 1161 l 461 1117 l 553 1167 l 626 1206 l 644 1206 l 669 1132 m 336 969 q 395 949 374 969 q 417 889 417 928 q 393 824 417 849 q 331 800 369 800 q 270 822 292 800 q 249 882 249 843 q 272 946 249 922 q 336 969 296 969 m 576 969 q 635 949 614 969 q 656 889 656 928 q 633 824 656 849 q 569 800 610 800 q 510 822 531 800 q 489 882 489 843 q 513 946 489 922 q 576 969 536 969 z "},"Ǜ":{"ha":864,"x_min":81,"x_max":851,"o":"m 774 324 q 658 74 756 161 q 393 -12 561 -12 q 164 55 247 -12 q 81 247 81 122 q 86 315 81 283 l 104 444 l 154 893 l 338 893 l 261 340 q 257 288 257 311 q 407 139 257 139 q 606 331 583 139 l 667 893 l 851 893 l 789 440 l 774 324 m 431 1418 q 726 1315 551 1371 l 701 1236 l 683 1228 q 381 1282 518 1253 l 372 1299 l 414 1411 l 431 1418 m 407 1163 q 463 1142 443 1163 q 482 1086 482 1122 q 457 1019 482 1044 q 390 993 432 993 q 314 1071 314 993 q 339 1138 314 1113 q 407 1163 364 1163 m 646 1163 q 702 1142 682 1163 q 722 1086 722 1122 q 697 1019 722 1044 q 631 993 672 993 q 554 1071 554 993 q 579 1138 554 1113 q 646 1163 604 1163 z "},"ǜ":{"ha":757,"x_min":69,"x_max":722,"o":"m 660 238 q 563 53 644 118 q 338 -11 481 -11 q 140 41 210 -11 q 69 190 69 93 q 74 238 69 213 l 89 347 l 129 701 l 299 701 l 236 263 q 233 232 233 240 q 354 126 233 126 q 504 263 490 126 l 551 701 l 722 701 l 674 344 l 660 238 m 350 1225 q 646 1122 471 1178 l 621 1043 l 603 1035 q 300 1089 438 1060 l 292 1106 l 333 1218 l 350 1225 m 326 969 q 382 949 363 969 q 401 893 401 929 q 376 826 401 851 q 310 800 351 800 q 233 878 233 800 q 258 944 233 919 q 326 969 283 969 m 565 969 q 622 949 601 969 q 642 893 642 929 q 617 826 642 851 q 550 800 592 800 q 474 878 474 800 q 499 944 474 919 q 565 969 524 969 z "},"Ǫ":{"ha":876,"x_min":51,"x_max":860,"o":"m 556 -54 q 533 -119 533 -92 q 586 -171 533 -171 q 676 -129 628 -171 l 686 -129 l 701 -204 q 558 -274 628 -274 q 468 -239 503 -274 q 433 -153 433 -204 q 474 -39 433 -96 l 497 -4 q 397 -14 454 -14 q 142 84 233 -14 q 51 365 51 182 q 105 651 51 529 q 263 840 158 774 q 513 906 367 906 q 769 810 678 906 q 860 533 860 715 q 797 225 860 354 q 614 35 733 96 l 556 -54 m 242 369 q 283 185 242 243 q 415 128 324 128 q 603 221 540 128 q 667 518 667 314 q 626 700 667 643 q 492 757 585 757 q 303 665 365 757 q 242 369 242 572 z "},"ǫ":{"ha":767,"x_min":44,"x_max":728,"o":"m 440 -54 q 417 -119 417 -90 q 469 -171 417 -171 q 560 -129 514 -171 l 569 -129 l 586 -204 q 442 -274 511 -274 q 351 -240 385 -274 q 317 -153 317 -206 q 357 -39 317 -96 l 376 -11 q 340 -12 365 -12 q 122 66 199 -12 q 44 301 44 144 q 90 515 44 422 q 224 659 136 607 q 433 711 311 711 q 651 635 575 711 q 728 403 728 558 q 664 154 728 258 q 482 10 600 50 l 440 -54 m 222 306 q 253 161 222 201 q 361 121 283 121 q 503 183 457 121 q 550 389 550 246 q 519 533 550 492 q 411 574 488 574 q 269 512 317 574 q 222 306 222 450 z "},"Ǻ":{"ha":829,"x_min":-8,"x_max":768,"o":"m 365 1185 q 672 1296 518 1235 l 688 1289 l 717 1176 l 710 1161 q 400 1097 590 1135 l 382 1106 l 365 1185 m 583 0 l 575 111 l 561 199 l 393 203 l 243 199 l 210 122 l 172 0 l -8 0 l 399 863 q 375 947 375 894 q 410 1044 375 1010 q 510 1078 444 1078 q 606 1044 572 1078 q 639 953 639 1011 q 604 854 639 892 l 768 0 l 583 0 m 506 1001 q 450 949 450 1001 q 507 893 450 893 q 564 946 564 893 q 506 1001 564 1001 m 483 706 l 471 706 l 306 338 l 422 336 l 540 338 l 483 706 z "},"ǻ":{"ha":718,"x_min":-17,"x_max":644,"o":"m 474 0 l 469 99 l 463 143 l 322 146 l 200 143 l 183 108 l 149 0 l -17 0 l 313 701 l 513 701 l 644 0 l 474 0 m 394 546 l 383 546 l 258 272 l 349 271 l 440 272 l 394 546 m 642 1128 l 633 1113 q 324 1050 485 1079 l 307 1058 l 289 1138 q 596 1247 444 1186 l 613 1240 l 642 1128 m 433 1031 q 530 997 497 1031 q 563 904 563 964 q 526 803 563 839 q 426 768 490 768 q 333 802 367 768 q 299 899 299 836 q 334 996 299 961 q 433 1031 369 1031 m 429 953 q 374 901 374 953 q 431 844 374 844 q 488 897 488 844 q 429 953 488 953 z "},"Ǽ":{"ha":1108,"x_min":-62,"x_max":1075,"o":"m 1046 0 l 522 0 l 529 115 l 531 310 l 236 233 l 174 125 l 119 0 l -62 0 l 465 893 l 1058 893 l 1067 879 l 1038 742 l 828 749 l 710 749 l 707 494 l 978 563 l 990 551 l 989 422 l 706 356 l 704 143 l 843 143 l 1065 151 l 1075 138 l 1046 0 m 532 721 l 521 721 l 332 397 l 531 449 l 532 721 m 958 1121 l 953 1104 q 656 996 829 1056 l 638 1001 l 608 1076 q 896 1232 758 1151 l 913 1228 l 958 1121 z "},"ǽ":{"ha":965,"x_min":-44,"x_max":922,"o":"m 897 0 l 450 0 l 458 94 l 457 229 l 194 163 l 158 104 l 113 0 l -44 0 l 394 700 l 903 700 l 911 688 l 883 568 l 706 576 l 607 576 l 608 389 l 836 446 l 847 436 l 844 318 l 608 267 l 610 126 l 725 126 l 914 133 l 922 121 l 897 0 m 454 553 l 443 553 l 288 308 l 456 351 l 454 553 m 818 960 l 814 943 q 546 778 664 846 l 529 779 l 485 847 q 735 1058 617 950 l 753 1057 l 818 960 z "},"Ǿ":{"ha":876,"x_min":51,"x_max":860,"o":"m 751 826 q 860 533 860 731 q 806 245 860 368 q 649 54 753 122 q 397 -14 544 -14 q 267 6 328 -14 l 168 -162 l 72 -119 l 67 -104 l 165 63 q 51 365 51 161 q 105 651 51 529 q 263 840 158 774 q 513 906 367 906 q 649 885 589 906 l 731 1022 l 824 981 l 832 961 l 751 826 m 415 128 q 603 221 540 128 q 667 518 667 314 q 626 700 667 643 q 492 757 585 757 q 303 665 365 757 q 242 369 242 572 q 283 185 242 243 q 415 128 324 128 m 704 1124 l 699 1107 q 401 999 575 1058 l 383 1004 l 354 1079 q 642 1235 504 1154 l 658 1231 l 704 1124 z "},"ǿ":{"ha":767,"x_min":38,"x_max":728,"o":"m 649 636 q 728 403 728 560 q 682 188 728 282 q 549 40 636 93 q 340 -12 461 -12 q 231 1 276 -12 l 129 -147 l 40 -90 l 38 -74 l 128 60 q 44 301 44 139 q 90 515 44 422 q 224 659 136 607 q 433 711 311 711 q 547 696 494 711 l 635 825 l 719 768 l 726 751 l 649 636 m 361 121 q 503 183 457 121 q 550 389 550 246 q 519 533 550 492 q 411 574 488 574 q 269 512 317 574 q 222 306 222 450 q 253 161 222 201 q 361 121 283 121 m 606 963 l 601 946 q 333 781 451 849 l 317 782 l 272 850 q 522 1061 404 953 l 540 1060 l 606 963 z "},"Ș":{"ha":674,"x_min":13,"x_max":671,"o":"m 446 906 q 671 860 560 906 l 622 701 l 594 690 q 415 761 504 761 q 322 731 358 761 q 286 660 286 701 q 318 593 286 621 q 419 526 350 565 q 525 460 483 490 q 596 384 567 431 q 625 275 625 338 q 580 131 625 196 q 454 26 535 65 q 274 -12 374 -12 q 13 46 136 -12 l 57 215 l 78 226 q 188 153 128 178 q 301 128 249 128 q 401 158 364 128 q 438 233 438 189 q 405 303 438 275 q 303 371 372 332 q 200 435 240 406 q 131 510 160 464 q 103 619 103 556 q 147 765 103 699 q 270 868 192 831 q 446 906 349 906 m 315 -64 q 369 -168 369 -108 q 222 -379 369 -275 l 171 -333 l 169 -321 q 239 -201 239 -264 q 200 -126 239 -161 l 200 -114 q 315 -64 256 -81 z "},"ș":{"ha":606,"x_min":22,"x_max":567,"o":"m 379 711 q 567 675 479 711 l 525 524 l 499 517 q 349 582 424 582 q 285 561 308 582 q 261 511 261 540 q 286 465 261 483 q 364 424 311 447 q 451 378 417 400 q 511 320 486 357 q 536 229 536 283 q 503 113 536 168 q 404 24 471 58 q 242 -11 338 -11 q 22 32 119 -11 l 61 192 l 81 203 q 174 137 121 161 q 271 113 228 113 q 338 135 311 113 q 365 188 365 157 q 340 234 365 215 q 261 276 314 253 q 173 323 207 301 q 114 381 139 344 q 89 472 89 418 q 124 592 89 538 q 226 678 160 646 q 379 711 292 711 m 294 -64 q 349 -168 349 -108 q 201 -379 349 -275 l 150 -333 l 149 -321 q 218 -201 218 -264 q 179 -126 218 -161 l 179 -114 q 294 -64 235 -81 z "},"Ț":{"ha":679,"x_min":75,"x_max":729,"o":"m 701 743 l 539 751 l 486 751 l 421 283 l 393 0 l 210 0 l 254 267 l 307 751 l 253 751 l 85 743 l 75 757 l 106 893 l 721 893 l 729 879 l 701 743 m 318 -64 q 372 -168 372 -108 q 225 -379 372 -275 l 174 -333 l 172 -321 q 242 -201 242 -264 q 203 -126 242 -161 l 203 -114 q 318 -64 258 -81 z "},"ț":{"ha":607,"x_min":61,"x_max":619,"o":"m 593 557 l 456 565 l 417 565 l 369 224 l 349 0 l 179 0 l 213 208 l 253 565 l 213 565 l 71 557 l 61 569 l 89 701 l 613 701 l 619 688 l 593 557 m 332 -64 q 386 -168 386 -108 q 239 -379 386 -275 l 188 -333 l 186 -321 q 256 -201 256 -264 q 217 -126 256 -161 l 217 -114 q 332 -64 272 -81 z "},"ȷ":{"ha":436,"x_min":-8,"x_max":360,"o":"m 294 231 l 285 132 q 217 -17 272 39 q 36 -122 163 -74 l -8 -31 l -7 -17 q 90 49 60 15 q 126 136 119 82 l 136 214 l 175 575 l 54 572 l 44 583 l 71 701 l 360 701 l 294 231 z "},"ˆ":{"ha":542,"x_min":117,"x_max":542,"o":"m 117 799 q 299 964 175 849 l 332 994 l 371 994 q 542 799 446 897 l 488 731 l 469 731 q 336 860 382 808 q 171 731 282 811 l 153 731 l 117 799 z "},"ˇ":{"ha":542,"x_min":132,"x_max":557,"o":"m 557 924 q 374 756 485 863 l 344 728 l 306 728 q 132 924 242 808 l 185 992 l 203 992 q 335 863 283 919 q 501 992 375 897 l 521 992 l 557 924 z "},"ˉ":{"ha":542,"x_min":131,"x_max":542,"o":"m 532 801 l 143 801 l 131 814 l 140 915 l 529 915 l 542 903 l 532 801 z "},"˘":{"ha":542,"x_min":135,"x_max":547,"o":"m 547 908 q 464 783 519 831 q 328 736 408 736 q 191 783 238 736 q 135 908 144 831 l 183 969 l 210 969 q 336 863 231 863 q 488 969 442 863 l 514 969 l 547 908 z "},"˙":{"ha":542,"x_min":242,"x_max":431,"o":"m 340 963 q 407 938 383 963 q 431 869 431 914 q 404 797 431 824 q 333 769 378 769 q 266 794 290 769 q 242 863 242 818 q 268 935 242 908 q 340 963 294 963 z "},"˚":{"ha":542,"x_min":207,"x_max":471,"o":"m 342 1004 q 438 971 404 1004 q 471 878 471 938 q 434 777 471 813 q 335 742 397 742 q 241 776 275 742 q 207 872 207 810 q 242 969 207 935 q 342 1004 276 1004 m 338 926 q 282 875 282 926 q 339 818 282 818 q 396 871 396 818 q 338 926 396 926 z "},"˛":{"ha":542,"x_min":75,"x_max":343,"o":"m 197 -54 q 175 -119 175 -92 q 228 -171 175 -171 q 318 -129 269 -171 l 328 -129 l 343 -204 q 200 -274 269 -274 q 110 -240 144 -274 q 75 -153 75 -206 q 115 -39 75 -96 l 204 86 l 290 86 l 197 -54 z "},"˜":{"ha":542,"x_min":93,"x_max":578,"o":"m 578 903 l 481 781 l 464 774 q 347 801 439 776 q 249 824 264 824 q 219 811 233 824 q 188 780 204 799 q 164 751 172 761 l 147 751 l 93 806 l 93 821 l 190 943 l 207 949 q 324 922 224 946 q 422 900 397 900 q 452 912 438 900 q 483 942 467 924 q 508 971 499 961 l 524 971 l 578 918 l 578 903 z "},"˝":{"ha":542,"x_min":93,"x_max":576,"o":"m 93 769 q 267 1006 181 882 l 281 1008 l 364 949 l 365 935 q 165 726 268 826 l 149 722 l 93 769 m 304 769 q 478 1006 392 882 l 492 1008 l 575 949 l 576 935 q 376 726 478 826 l 360 722 l 304 769 z "},"̃":{"ha":0,"x_min":93,"x_max":578,"o":"m 578 903 l 479 779 l 463 774 q 347 801 435 778 q 249 824 264 824 q 219 811 233 824 q 188 780 204 799 q 164 751 172 761 l 147 751 l 93 806 l 93 821 l 192 943 l 208 950 q 324 922 236 946 q 422 900 407 900 q 452 912 438 900 q 483 942 467 924 q 508 971 499 961 l 524 971 l 578 918 l 578 903 z "},"̣":{"ha":0,"x_min":114,"x_max":303,"o":"m 213 -78 q 279 -102 256 -78 q 303 -169 303 -126 q 276 -244 303 -217 q 206 -271 250 -271 q 138 -247 161 -271 q 114 -178 114 -222 q 140 -105 114 -132 q 213 -78 167 -78 z "},"̦":{"ha":0,"x_min":97,"x_max":297,"o":"m 243 -67 q 297 -171 297 -111 q 150 -382 297 -278 l 99 -336 l 97 -324 q 167 -204 167 -267 q 128 -129 167 -164 l 128 -117 q 243 -67 183 -83 z "},"Δ":{"ha":810,"x_min":-28,"x_max":749,"o":"m -28 0 l 376 893 l 593 893 l 749 0 l -28 0 m 200 140 l 551 140 l 465 721 l 453 721 l 200 140 z "},"Ω":{"ha":1019,"x_min":-3,"x_max":963,"o":"m 575 906 q 844 812 751 906 q 938 567 938 718 q 885 347 938 457 q 732 144 833 238 l 735 138 l 840 138 l 954 150 l 963 139 l 924 -8 l 769 0 l 579 0 l 528 -3 l 521 4 l 535 122 q 692 319 640 210 q 744 542 744 428 q 561 758 744 758 q 383 675 446 758 q 321 446 321 592 q 350 266 321 350 q 435 122 379 182 l 421 4 l 411 -3 l 361 0 l 139 0 l 7 -6 l -3 7 l 38 147 l 158 138 l 240 138 l 243 144 q 132 465 132 276 q 184 687 132 586 q 336 847 236 788 q 575 906 436 906 z "},"μ":{"ha":693,"x_min":11,"x_max":646,"o":"m 578 156 l 572 7 l 406 -6 l 440 246 l 426 246 q 222 -6 322 76 l 207 -6 l 197 -4 l 183 -106 l 178 -257 l 11 -269 l 115 494 l 121 639 l 286 650 l 226 211 l 225 200 q 253 169 225 169 q 341 242 285 169 q 469 456 397 314 l 475 494 l 481 639 l 646 650 l 578 156 z "},"π":{"ha":921,"x_min":21,"x_max":910,"o":"m 710 172 q 708 151 708 164 q 735 119 708 119 q 782 131 753 119 l 793 121 l 761 22 q 660 -10 697 -10 q 543 113 543 -10 q 546 147 543 122 l 597 557 l 415 557 l 382 285 l 336 -125 l 163 -125 l 217 267 l 249 557 l 224 557 q 183 541 204 557 q 124 488 163 525 l 85 451 l 67 451 l 21 518 l 24 538 l 168 690 l 192 700 l 739 700 l 900 703 l 910 689 l 881 554 l 763 556 l 710 172 z "},"Ẁ":{"ha":1218,"x_min":97,"x_max":1283,"o":"m 694 0 l 619 433 l 607 433 l 424 0 l 228 0 l 97 893 l 276 893 l 276 785 l 357 190 l 368 190 l 575 676 l 540 893 l 728 893 l 732 767 l 817 190 l 829 190 l 1076 775 l 1113 893 l 1283 893 l 886 0 l 694 0 m 565 1235 q 853 1079 690 1160 l 824 1003 l 806 997 q 508 1107 603 1069 l 503 1124 l 549 1231 l 565 1235 z "},"ẁ":{"ha":1051,"x_min":85,"x_max":1082,"o":"m 582 0 l 521 307 l 511 307 l 375 0 l 193 0 l 85 701 l 251 701 l 251 606 l 313 176 l 322 176 l 479 533 l 454 701 l 628 701 l 631 589 l 696 176 l 708 176 l 890 597 l 924 701 l 1082 701 l 763 0 l 582 0 m 469 1058 q 721 847 593 947 l 676 779 l 660 778 q 392 943 542 846 l 388 960 l 453 1057 l 469 1058 z "},"Ẃ":{"ha":1218,"x_min":97,"x_max":1283,"o":"m 694 0 l 619 433 l 607 433 l 424 0 l 228 0 l 97 893 l 276 893 l 276 785 l 357 190 l 368 190 l 575 676 l 540 893 l 728 893 l 732 767 l 817 190 l 829 190 l 1076 775 l 1113 893 l 1283 893 l 886 0 l 694 0 m 863 1121 l 857 1104 q 560 996 733 1056 l 542 1001 l 513 1076 q 800 1232 663 1151 l 817 1228 l 863 1121 z "},"ẃ":{"ha":1051,"x_min":85,"x_max":1082,"o":"m 582 0 l 521 307 l 511 307 l 375 0 l 193 0 l 85 701 l 251 701 l 251 606 l 313 176 l 322 176 l 479 533 l 454 701 l 628 701 l 631 589 l 696 176 l 708 176 l 890 597 l 924 701 l 1082 701 l 763 0 l 582 0 m 742 960 l 738 943 q 469 778 588 846 l 453 779 l 408 847 q 658 1058 540 950 l 676 1057 l 742 960 z "},"Ẅ":{"ha":1218,"x_min":97,"x_max":1283,"o":"m 694 0 l 619 433 l 607 433 l 424 0 l 228 0 l 97 893 l 276 893 l 276 785 l 357 190 l 368 190 l 575 676 l 540 893 l 728 893 l 732 767 l 817 190 l 829 190 l 1076 775 l 1113 893 l 1283 893 l 886 0 l 694 0 m 560 1193 q 619 1171 597 1193 q 640 1110 640 1149 q 617 1042 640 1067 q 553 1018 593 1018 q 469 1103 469 1018 q 494 1169 469 1144 q 560 1193 518 1193 m 801 1192 q 861 1169 840 1192 q 882 1108 882 1147 q 858 1042 882 1067 q 794 1017 835 1017 q 713 1101 713 1017 q 736 1167 713 1143 q 801 1192 760 1192 z "},"ẅ":{"ha":1051,"x_min":85,"x_max":1082,"o":"m 582 0 l 521 307 l 511 307 l 375 0 l 193 0 l 85 701 l 251 701 l 251 606 l 313 176 l 322 176 l 479 533 l 454 701 l 628 701 l 631 589 l 696 176 l 708 176 l 890 597 l 924 701 l 1082 701 l 763 0 l 582 0 m 456 1000 q 515 978 493 1000 q 536 917 536 956 q 513 849 536 874 q 449 825 489 825 q 365 910 365 825 q 390 976 365 951 q 456 1000 414 1000 m 697 999 q 757 976 736 999 q 778 915 778 954 q 754 849 778 874 q 690 824 731 824 q 608 908 608 824 q 632 974 608 950 q 697 999 656 999 z "},"ẞ":{"ha":904,"x_min":47,"x_max":874,"o":"m 533 906 q 699 882 619 906 q 869 813 778 858 l 874 785 l 651 522 q 777 444 732 478 q 846 369 822 411 q 869 269 869 328 q 825 118 869 182 q 706 21 781 54 q 543 -12 632 -12 q 313 46 421 -12 l 358 215 l 381 226 q 477 154 426 181 q 572 128 528 128 q 653 158 621 128 q 685 235 685 188 q 628 331 685 286 q 426 438 571 375 l 424 465 l 640 724 q 501 758 571 758 q 299 576 322 758 l 258 285 l 231 0 l 47 0 l 90 264 l 124 576 q 249 816 140 726 q 533 906 357 906 z "},"Ạ":{"ha":810,"x_min":-28,"x_max":749,"o":"m 564 0 l 556 115 l 543 203 l 375 206 l 226 203 l 193 125 l 153 0 l -28 0 l 376 893 l 594 893 l 749 0 l 564 0 m 467 721 l 454 721 l 290 346 l 404 343 l 522 344 l 467 721 m 353 -78 q 419 -102 396 -78 q 443 -169 443 -126 q 417 -244 443 -217 q 346 -271 390 -271 q 278 -247 301 -271 q 254 -178 254 -222 q 281 -105 254 -132 q 353 -78 307 -78 z "},"ạ":{"ha":718,"x_min":-17,"x_max":644,"o":"m 474 0 l 469 99 l 463 143 l 322 146 l 200 143 l 183 108 l 149 0 l -17 0 l 313 701 l 513 701 l 644 0 l 474 0 m 394 546 l 383 546 l 258 272 l 349 271 l 440 272 l 394 546 m 318 -78 q 385 -102 361 -78 q 408 -169 408 -126 q 382 -244 408 -217 q 311 -271 356 -271 q 243 -247 267 -271 q 219 -178 219 -222 q 246 -105 219 -132 q 318 -78 272 -78 z "},"Ả":{"ha":810,"x_min":-28,"x_max":749,"o":"m 564 0 l 556 115 l 543 203 l 375 206 l 226 203 l 193 125 l 153 0 l -28 0 l 376 893 l 594 893 l 749 0 l 564 0 m 467 721 l 454 721 l 290 346 l 404 343 l 522 344 l 467 721 m 481 1275 q 559 1248 528 1275 q 590 1178 590 1221 q 574 1125 590 1150 q 514 1063 557 1100 l 544 1010 l 479 972 l 422 1063 q 474 1114 454 1088 q 493 1160 493 1140 q 454 1190 493 1190 q 367 1157 408 1190 l 336 1206 q 481 1275 401 1275 z "},"ả":{"ha":718,"x_min":-17,"x_max":644,"o":"m 474 0 l 469 99 l 463 143 l 322 146 l 200 143 l 183 108 l 149 0 l -17 0 l 313 701 l 513 701 l 644 0 l 474 0 m 394 546 l 383 546 l 258 272 l 349 271 l 440 272 l 394 546 m 407 1082 q 485 1055 454 1082 q 517 985 517 1028 q 500 932 517 957 q 440 869 483 907 l 471 817 l 406 779 l 349 869 q 400 921 381 894 q 419 967 419 947 q 381 997 419 997 q 293 964 335 997 l 263 1013 q 407 1082 328 1082 z "},"Ấ":{"ha":810,"x_min":-28,"x_max":785,"o":"m 564 0 l 556 115 l 543 203 l 375 206 l 226 203 l 193 125 l 153 0 l -28 0 l 376 893 l 594 893 l 749 0 l 564 0 m 467 721 l 454 721 l 290 346 l 404 343 l 522 344 l 467 721 m 785 1324 l 654 1156 l 642 1156 l 581 1201 l 678 1372 l 692 1378 l 781 1338 l 785 1324 m 528 1199 q 701 1056 593 1135 l 660 983 l 642 983 q 540 1047 653 978 l 503 1072 q 386 1008 456 1044 l 339 983 l 321 983 l 296 1056 q 490 1199 408 1128 l 528 1199 z "},"ấ":{"ha":718,"x_min":-17,"x_max":713,"o":"m 474 0 l 469 99 l 463 143 l 322 146 l 200 143 l 183 108 l 149 0 l -17 0 l 313 701 l 513 701 l 644 0 l 474 0 m 394 546 l 383 546 l 258 272 l 349 271 l 440 272 l 394 546 m 713 1131 l 582 963 l 569 963 l 508 1008 l 606 1179 l 619 1185 l 708 1144 l 713 1131 m 456 1006 q 629 863 521 942 l 588 790 l 569 790 q 468 854 581 785 l 431 879 q 314 815 383 851 l 267 790 l 249 790 l 224 863 q 418 1006 336 935 l 456 1006 z "},"Ầ":{"ha":810,"x_min":-28,"x_max":749,"o":"m 564 0 l 556 115 l 543 203 l 375 206 l 226 203 l 193 125 l 153 0 l -28 0 l 376 893 l 594 893 l 749 0 l 564 0 m 467 721 l 454 721 l 290 346 l 404 343 l 522 344 l 467 721 m 722 1201 l 661 1156 l 649 1156 l 518 1324 l 521 1338 l 613 1378 l 625 1372 l 722 1201 m 528 1197 q 701 1054 593 1133 l 660 982 l 642 982 q 540 1046 653 975 l 503 1071 q 386 1007 456 1043 l 339 982 l 321 982 l 296 1054 q 490 1197 408 1126 l 528 1197 z "},"ầ":{"ha":718,"x_min":-17,"x_max":650,"o":"m 474 0 l 469 99 l 463 143 l 322 146 l 200 143 l 183 108 l 149 0 l -17 0 l 313 701 l 513 701 l 644 0 l 474 0 m 394 546 l 383 546 l 258 272 l 349 271 l 440 272 l 394 546 m 650 1008 l 589 963 l 576 963 l 446 1131 l 449 1144 l 540 1185 l 553 1179 l 650 1008 m 456 1004 q 629 861 521 940 l 588 789 l 569 789 q 468 853 581 782 l 431 878 q 314 814 383 850 l 267 789 l 249 789 l 224 861 q 418 1004 336 933 l 456 1004 z "},"Ẩ":{"ha":810,"x_min":-28,"x_max":749,"o":"m 564 0 l 556 115 l 543 203 l 375 206 l 226 203 l 193 125 l 153 0 l -28 0 l 376 893 l 594 893 l 749 0 l 564 0 m 467 721 l 454 721 l 290 346 l 404 343 l 522 344 l 467 721 m 638 1439 q 712 1413 682 1439 q 742 1346 742 1388 q 726 1297 742 1321 q 669 1238 710 1274 l 699 1188 l 636 1150 l 582 1238 q 631 1285 613 1260 q 650 1331 650 1311 q 613 1360 650 1360 q 529 1326 571 1360 l 500 1374 q 638 1439 563 1439 m 528 1199 q 700 1056 597 1131 l 658 983 l 640 983 q 503 1072 583 1018 q 393 1013 454 1044 l 338 983 l 319 983 l 294 1056 q 489 1199 407 1128 l 528 1199 z "},"ẩ":{"ha":718,"x_min":-17,"x_max":669,"o":"m 474 0 l 469 99 l 463 143 l 322 146 l 200 143 l 183 108 l 149 0 l -17 0 l 313 701 l 513 701 l 644 0 l 474 0 m 394 546 l 383 546 l 258 272 l 349 271 l 440 272 l 394 546 m 565 1246 q 640 1220 610 1246 q 669 1153 669 1194 q 653 1104 669 1128 q 597 1044 638 1081 l 626 994 l 564 957 l 510 1044 q 559 1092 540 1067 q 578 1138 578 1118 q 540 1167 578 1167 q 457 1133 499 1167 l 428 1181 q 565 1246 490 1246 m 456 1006 q 628 863 525 938 l 586 790 l 568 790 q 431 879 511 825 q 321 819 382 851 l 265 790 l 247 790 l 222 863 q 417 1006 335 935 l 456 1006 z "},"Ẫ":{"ha":810,"x_min":-28,"x_max":775,"o":"m 564 0 l 556 115 l 543 203 l 375 206 l 226 203 l 193 125 l 153 0 l -28 0 l 376 893 l 594 893 l 749 0 l 564 0 m 467 721 l 454 721 l 290 346 l 404 343 l 522 344 l 467 721 m 775 1349 l 686 1233 l 671 1226 q 565 1251 650 1229 q 471 1274 488 1274 q 442 1261 457 1274 q 413 1231 428 1249 q 392 1207 397 1214 l 378 1207 l 328 1257 l 328 1272 l 417 1385 l 433 1392 q 540 1365 468 1386 q 632 1344 613 1344 q 659 1356 646 1344 q 688 1385 672 1368 q 711 1413 703 1403 l 726 1413 l 775 1363 l 775 1349 m 540 1199 q 713 1057 613 1131 l 671 983 l 653 983 l 604 1014 l 515 1072 q 433 1028 538 1085 q 350 983 406 1014 l 332 983 l 307 1057 q 501 1199 410 1122 l 540 1199 z "},"ẫ":{"ha":718,"x_min":-17,"x_max":703,"o":"m 474 0 l 469 99 l 463 143 l 322 146 l 200 143 l 183 108 l 149 0 l -17 0 l 313 701 l 513 701 l 644 0 l 474 0 m 394 546 l 383 546 l 258 272 l 349 271 l 440 272 l 394 546 m 703 1156 l 614 1040 l 599 1033 q 493 1058 578 1036 q 399 1081 415 1081 q 370 1068 385 1081 q 340 1038 356 1056 q 319 1014 325 1021 l 306 1014 l 256 1064 l 256 1079 l 344 1192 l 361 1199 q 468 1172 396 1193 q 560 1151 540 1151 q 587 1163 574 1151 q 615 1192 600 1175 q 639 1219 631 1210 l 654 1219 l 703 1169 l 703 1156 m 468 1006 q 640 864 540 938 l 599 790 l 581 790 l 532 821 l 443 879 q 361 835 465 892 q 278 790 333 821 l 260 790 l 235 864 q 429 1006 338 929 l 468 1006 z "},"Ậ":{"ha":810,"x_min":-26,"x_max":750,"o":"m 303 1082 q 497 1225 415 1154 l 536 1225 q 708 1082 606 1157 l 667 1010 l 649 1010 q 511 1099 592 1044 q 401 1039 463 1071 l 346 1010 l 328 1010 l 303 1082 m 565 0 l 557 115 l 544 203 l 375 206 l 226 203 l 193 125 l 154 0 l -26 0 l 378 893 l 596 893 l 750 0 l 565 0 m 468 721 l 456 721 l 290 346 l 404 343 l 524 344 l 468 721 m 353 -78 q 419 -102 396 -78 q 443 -169 443 -126 q 417 -244 443 -217 q 346 -271 390 -271 q 278 -247 301 -271 q 254 -178 254 -222 q 281 -105 254 -132 q 353 -78 307 -78 z "},"ậ":{"ha":718,"x_min":-15,"x_max":646,"o":"m 219 854 q 401 1019 278 904 l 435 1050 l 474 1050 q 644 854 549 953 l 590 786 l 572 786 q 439 915 485 864 q 274 786 385 867 l 256 786 l 219 854 m 475 0 l 471 99 l 464 143 l 321 146 l 201 143 l 185 108 l 150 0 l -15 0 l 314 701 l 514 701 l 646 0 l 475 0 m 396 546 l 385 546 l 260 272 l 347 271 l 442 272 l 396 546 m 318 -78 q 385 -102 361 -78 q 408 -169 408 -126 q 382 -244 408 -217 q 311 -271 356 -271 q 243 -247 267 -271 q 219 -178 219 -222 q 246 -105 219 -132 q 318 -78 272 -78 z "},"Ắ":{"ha":810,"x_min":-28,"x_max":749,"o":"m 564 0 l 556 115 l 543 203 l 375 206 l 226 203 l 193 125 l 153 0 l -28 0 l 376 893 l 594 893 l 749 0 l 564 0 m 467 721 l 454 721 l 290 346 l 404 343 l 522 344 l 467 721 m 664 1313 q 510 1164 581 1229 l 494 1161 l 439 1206 q 565 1379 507 1296 l 579 1382 l 661 1328 l 664 1313 m 715 1119 q 503 974 649 974 q 372 1011 424 974 q 301 1119 319 1049 l 351 1176 l 378 1176 q 508 1099 406 1099 q 656 1176 608 1099 l 681 1176 l 715 1119 z "},"ắ":{"ha":718,"x_min":-17,"x_max":644,"o":"m 474 0 l 469 99 l 463 143 l 322 146 l 200 143 l 183 108 l 149 0 l -17 0 l 313 701 l 513 701 l 644 0 l 474 0 m 394 546 l 383 546 l 258 272 l 349 271 l 440 272 l 394 546 m 592 1119 q 438 971 508 1036 l 422 968 l 367 1013 q 493 1186 435 1103 l 507 1189 l 589 1135 l 592 1119 m 643 926 q 431 781 576 781 q 299 818 351 781 q 229 926 247 856 l 279 983 l 306 983 q 436 906 333 906 q 583 983 536 906 l 608 983 l 643 926 z "},"Ằ":{"ha":810,"x_min":-28,"x_max":749,"o":"m 564 0 l 556 115 l 543 203 l 375 206 l 226 203 l 193 125 l 153 0 l -28 0 l 376 893 l 594 893 l 749 0 l 564 0 m 467 721 l 454 721 l 290 346 l 404 343 l 522 344 l 467 721 m 508 1164 q 354 1313 438 1229 l 356 1328 l 439 1382 l 453 1379 q 581 1206 518 1286 l 524 1161 l 508 1164 m 717 1118 q 504 972 650 972 q 373 1010 425 972 q 303 1118 321 1047 l 351 1175 l 378 1175 q 426 1117 392 1138 q 510 1097 461 1097 q 595 1118 557 1097 q 656 1175 633 1139 l 682 1175 l 717 1118 z "},"ằ":{"ha":718,"x_min":-17,"x_max":644,"o":"m 474 0 l 469 99 l 463 143 l 322 146 l 200 143 l 183 108 l 149 0 l -17 0 l 313 701 l 513 701 l 644 0 l 474 0 m 394 546 l 383 546 l 258 272 l 349 271 l 440 272 l 394 546 m 436 971 q 282 1119 365 1036 l 283 1135 l 367 1189 l 381 1186 q 508 1013 446 1093 l 451 968 l 436 971 m 644 925 q 432 779 578 779 q 301 817 353 779 q 231 925 249 854 l 279 982 l 306 982 q 354 924 319 944 q 438 904 389 904 q 523 925 485 904 q 583 982 561 946 l 610 982 l 644 925 z "},"Ẳ":{"ha":810,"x_min":-28,"x_max":749,"o":"m 564 0 l 556 115 l 543 203 l 375 206 l 226 203 l 193 125 l 153 0 l -28 0 l 376 893 l 594 893 l 749 0 l 564 0 m 467 721 l 454 721 l 290 346 l 404 343 l 522 344 l 467 721 m 506 1458 q 583 1431 551 1458 q 615 1361 615 1403 q 598 1308 615 1333 q 538 1246 581 1283 l 569 1193 l 504 1154 l 446 1246 q 518 1343 518 1299 q 479 1374 518 1374 q 392 1339 433 1374 l 361 1388 q 506 1458 428 1458 m 715 1119 q 503 974 647 974 q 372 1012 424 974 q 301 1119 319 1050 l 351 1178 l 378 1178 q 508 1100 406 1100 q 656 1178 608 1100 l 681 1178 l 715 1119 z "},"ẳ":{"ha":718,"x_min":-17,"x_max":644,"o":"m 474 0 l 469 99 l 463 143 l 322 146 l 200 143 l 183 108 l 149 0 l -17 0 l 313 701 l 513 701 l 644 0 l 474 0 m 394 546 l 383 546 l 258 272 l 349 271 l 440 272 l 394 546 m 433 1265 q 511 1238 479 1265 q 543 1168 543 1210 q 526 1115 543 1140 q 465 1053 508 1090 l 497 1000 l 432 961 l 374 1053 q 446 1150 446 1106 q 407 1181 446 1181 q 319 1146 361 1181 l 289 1194 q 433 1265 356 1265 m 643 926 q 431 781 575 781 q 299 819 351 781 q 229 926 247 857 l 279 985 l 306 985 q 436 907 333 907 q 583 985 536 907 l 608 985 l 643 926 z "},"Ẵ":{"ha":810,"x_min":-28,"x_max":761,"o":"m 564 0 l 556 115 l 543 203 l 375 206 l 226 203 l 193 125 l 153 0 l -28 0 l 376 893 l 594 893 l 749 0 l 564 0 m 467 721 l 454 721 l 290 346 l 404 343 l 522 344 l 467 721 m 761 1351 l 672 1236 l 656 1229 q 550 1254 635 1232 q 457 1276 481 1276 q 428 1264 443 1276 q 399 1234 414 1251 q 378 1210 383 1217 l 364 1210 l 314 1260 l 314 1275 l 403 1388 l 419 1394 q 528 1368 457 1389 q 617 1347 599 1347 q 646 1359 632 1347 q 674 1389 660 1371 q 697 1415 689 1407 l 713 1415 l 761 1365 l 761 1351 m 697 1111 q 493 972 632 972 q 369 1008 418 972 q 301 1111 319 1044 l 349 1167 l 374 1167 q 499 1092 401 1092 q 639 1167 596 1092 l 664 1167 l 697 1111 z "},"ẵ":{"ha":718,"x_min":-17,"x_max":689,"o":"m 474 0 l 469 99 l 463 143 l 322 146 l 200 143 l 183 108 l 149 0 l -17 0 l 313 701 l 513 701 l 644 0 l 474 0 m 394 546 l 383 546 l 258 272 l 349 271 l 440 272 l 394 546 m 689 1158 l 600 1043 l 583 1036 q 478 1061 563 1039 q 385 1083 408 1083 q 356 1071 371 1083 q 326 1041 342 1058 q 306 1017 311 1024 l 292 1017 l 242 1067 l 242 1082 l 331 1194 l 347 1201 q 456 1175 385 1196 q 544 1154 526 1154 q 574 1166 560 1154 q 602 1196 588 1178 q 625 1222 617 1214 l 640 1222 l 689 1172 l 689 1158 m 625 918 q 421 779 560 779 q 297 815 346 779 q 229 918 247 851 l 276 974 l 301 974 q 426 899 329 899 q 567 974 524 899 l 592 974 l 625 918 z "},"Ặ":{"ha":810,"x_min":-26,"x_max":750,"o":"m 500 1001 q 369 1039 421 1001 q 299 1147 317 1076 l 347 1204 l 374 1204 q 422 1147 388 1167 q 506 1126 457 1126 q 651 1204 606 1126 l 678 1204 l 713 1147 q 500 1001 646 1001 m 565 0 l 557 115 l 544 203 l 375 206 l 226 203 l 193 125 l 154 0 l -26 0 l 378 893 l 596 893 l 750 0 l 565 0 m 468 721 l 456 721 l 290 346 l 404 343 l 524 344 l 468 721 m 353 -78 q 419 -102 396 -78 q 443 -169 443 -126 q 417 -244 443 -217 q 346 -271 390 -271 q 278 -247 301 -271 q 254 -178 254 -222 q 281 -105 254 -132 q 353 -78 307 -78 z "},"ặ":{"ha":718,"x_min":-15,"x_max":646,"o":"m 417 792 q 280 839 326 792 q 224 964 233 886 l 272 1025 l 299 1025 q 425 918 319 918 q 576 1025 531 918 l 603 1025 l 636 964 q 553 839 608 886 q 417 792 497 792 m 475 0 l 471 99 l 464 143 l 321 146 l 201 143 l 185 108 l 150 0 l -15 0 l 314 701 l 514 701 l 646 0 l 475 0 m 396 546 l 385 546 l 260 272 l 347 271 l 442 272 l 396 546 m 318 -78 q 385 -102 361 -78 q 408 -169 408 -126 q 382 -244 408 -217 q 311 -271 356 -271 q 243 -247 267 -271 q 219 -178 219 -222 q 246 -105 219 -132 q 318 -78 272 -78 z "},"Ẹ":{"ha":690,"x_min":67,"x_max":738,"o":"m 314 526 l 463 525 l 604 529 l 614 515 l 583 378 l 431 382 l 293 381 l 279 283 l 265 146 l 419 144 l 633 151 l 640 138 l 613 0 l 67 0 l 110 267 l 179 893 l 729 893 l 738 879 l 707 742 l 500 749 l 344 747 l 314 526 m 375 -78 q 442 -102 418 -78 q 465 -169 465 -126 q 439 -244 465 -217 q 368 -271 413 -271 q 300 -247 324 -271 q 276 -178 276 -222 q 303 -105 276 -132 q 375 -78 329 -78 z "},"ẹ":{"ha":619,"x_min":61,"x_max":631,"o":"m 281 422 l 404 421 l 522 425 l 529 413 l 504 285 l 375 289 l 261 288 l 251 224 l 243 133 l 363 133 l 549 139 l 557 126 l 531 0 l 61 0 l 94 208 l 149 701 l 624 701 l 631 688 l 603 561 l 429 568 l 301 568 l 281 422 m 303 -78 q 369 -102 346 -78 q 393 -169 393 -126 q 367 -244 393 -217 q 296 -271 340 -271 q 228 -247 251 -271 q 204 -178 204 -222 q 231 -105 204 -132 q 303 -78 257 -78 z "},"Ẻ":{"ha":690,"x_min":67,"x_max":738,"o":"m 314 526 l 463 525 l 604 529 l 614 515 l 583 378 l 431 382 l 293 381 l 279 283 l 265 146 l 419 144 l 633 151 l 640 138 l 613 0 l 67 0 l 110 267 l 179 893 l 729 893 l 738 879 l 707 742 l 500 749 l 344 747 l 314 526 m 447 1275 q 526 1248 494 1275 q 557 1178 557 1221 q 540 1125 557 1150 q 481 1063 524 1100 l 511 1010 l 446 972 l 389 1063 q 440 1114 421 1088 q 460 1160 460 1140 q 421 1190 460 1190 q 333 1157 375 1190 l 303 1206 q 447 1275 368 1275 z "},"ẻ":{"ha":619,"x_min":61,"x_max":631,"o":"m 281 422 l 404 421 l 522 425 l 529 413 l 504 285 l 375 289 l 261 288 l 251 224 l 243 133 l 363 133 l 549 139 l 557 126 l 531 0 l 61 0 l 94 208 l 149 701 l 624 701 l 631 688 l 603 561 l 429 568 l 301 568 l 281 422 m 376 1082 q 455 1055 424 1082 q 486 985 486 1028 q 469 932 486 957 q 410 869 453 907 l 440 817 l 375 779 l 318 869 q 369 921 350 894 q 389 967 389 947 q 350 997 389 997 q 263 964 304 997 l 232 1013 q 376 1082 297 1082 z "},"Ẽ":{"ha":690,"x_min":67,"x_max":738,"o":"m 314 526 l 463 525 l 604 529 l 614 515 l 583 378 l 431 382 l 293 381 l 279 283 l 265 146 l 419 144 l 633 151 l 640 138 l 613 0 l 67 0 l 110 267 l 179 893 l 729 893 l 738 879 l 707 742 l 500 749 l 344 747 l 314 526 m 714 1151 l 617 1029 l 600 1022 q 483 1050 575 1025 q 385 1072 400 1072 q 355 1060 369 1072 q 324 1028 340 1047 q 300 1000 308 1010 l 283 1000 l 229 1054 l 229 1069 l 326 1192 l 343 1197 q 460 1171 360 1194 q 558 1149 533 1149 q 588 1160 574 1149 q 619 1191 603 1172 q 644 1219 635 1210 l 660 1219 l 714 1167 l 714 1151 z "},"ẽ":{"ha":619,"x_min":61,"x_max":643,"o":"m 281 422 l 404 421 l 522 425 l 529 413 l 504 285 l 375 289 l 261 288 l 251 224 l 243 133 l 363 133 l 549 139 l 557 126 l 531 0 l 61 0 l 94 208 l 149 701 l 624 701 l 631 688 l 603 561 l 429 568 l 301 568 l 281 422 m 643 958 l 546 836 l 529 829 q 413 857 504 832 q 314 879 329 879 q 284 867 299 879 q 253 835 269 854 q 229 807 238 817 l 213 807 l 158 861 l 158 876 l 256 999 l 272 1004 q 389 978 289 1001 q 488 956 463 956 q 517 967 503 956 q 548 998 532 979 q 574 1026 564 1017 l 589 1026 l 643 974 l 643 958 z "},"Ế":{"ha":690,"x_min":67,"x_max":751,"o":"m 314 526 l 463 525 l 604 529 l 614 515 l 583 378 l 431 382 l 293 381 l 279 283 l 265 146 l 419 144 l 633 151 l 640 138 l 613 0 l 67 0 l 110 267 l 179 893 l 729 893 l 738 879 l 707 742 l 500 749 l 344 747 l 314 526 m 751 1324 l 621 1156 l 608 1156 l 547 1201 l 644 1372 l 658 1378 l 747 1338 l 751 1324 m 494 1199 q 668 1056 560 1135 l 626 983 l 608 983 q 507 1047 619 978 l 469 1072 q 353 1008 422 1044 l 306 983 l 288 983 l 263 1056 q 457 1199 375 1128 l 494 1199 z "},"ế":{"ha":619,"x_min":61,"x_max":681,"o":"m 281 422 l 404 421 l 522 425 l 529 413 l 504 285 l 375 289 l 261 288 l 251 224 l 243 133 l 363 133 l 549 139 l 557 126 l 531 0 l 61 0 l 94 208 l 149 701 l 624 701 l 631 688 l 603 561 l 429 568 l 301 568 l 281 422 m 681 1131 l 550 963 l 538 963 l 476 1008 l 574 1179 l 588 1185 l 676 1144 l 681 1131 m 424 1006 q 597 863 489 942 l 556 790 l 538 790 q 436 854 549 785 l 399 879 q 282 815 351 851 l 235 790 l 217 790 l 192 863 q 386 1006 304 935 l 424 1006 z "},"Ề":{"ha":690,"x_min":67,"x_max":738,"o":"m 314 526 l 463 525 l 604 529 l 614 515 l 583 378 l 431 382 l 293 381 l 279 283 l 265 146 l 419 144 l 633 151 l 640 138 l 613 0 l 67 0 l 110 267 l 179 893 l 729 893 l 738 879 l 707 742 l 500 749 l 344 747 l 314 526 m 689 1201 l 628 1156 l 615 1156 l 485 1324 l 488 1338 l 579 1378 l 592 1372 l 689 1201 m 494 1197 q 668 1054 560 1133 l 626 982 l 608 982 q 507 1046 619 975 l 469 1071 q 353 1007 422 1043 l 306 982 l 288 982 l 263 1054 q 457 1197 375 1126 l 494 1197 z "},"ề":{"ha":619,"x_min":61,"x_max":631,"o":"m 281 422 l 404 421 l 522 425 l 529 413 l 504 285 l 375 289 l 261 288 l 251 224 l 243 133 l 363 133 l 549 139 l 557 126 l 531 0 l 61 0 l 94 208 l 149 701 l 624 701 l 631 688 l 603 561 l 429 568 l 301 568 l 281 422 m 618 1008 l 557 963 l 544 963 l 414 1131 l 417 1144 l 508 1185 l 521 1179 l 618 1008 m 424 1004 q 597 861 489 940 l 556 789 l 538 789 q 436 853 549 782 l 399 878 q 282 814 351 850 l 235 789 l 217 789 l 192 861 q 386 1004 304 933 l 424 1004 z "},"Ể":{"ha":690,"x_min":67,"x_max":738,"o":"m 314 526 l 463 525 l 604 529 l 614 515 l 583 378 l 431 382 l 293 381 l 279 283 l 265 146 l 419 144 l 633 151 l 640 138 l 613 0 l 67 0 l 110 267 l 179 893 l 729 893 l 738 879 l 707 742 l 500 749 l 344 747 l 314 526 m 604 1439 q 678 1413 649 1439 q 708 1346 708 1388 q 692 1297 708 1321 q 636 1238 676 1274 l 665 1188 l 603 1150 l 549 1238 q 598 1285 579 1260 q 617 1331 617 1311 q 579 1360 617 1360 q 496 1326 538 1360 l 467 1374 q 604 1439 529 1439 m 494 1199 q 667 1056 564 1131 l 625 983 l 607 983 q 469 1072 550 1018 q 360 1013 421 1044 l 304 983 l 286 983 l 261 1056 q 456 1199 374 1128 l 494 1199 z "},"ể":{"ha":619,"x_min":61,"x_max":638,"o":"m 281 422 l 404 421 l 522 425 l 529 413 l 504 285 l 375 289 l 261 288 l 251 224 l 243 133 l 363 133 l 549 139 l 557 126 l 531 0 l 61 0 l 94 208 l 149 701 l 624 701 l 631 688 l 603 561 l 429 568 l 301 568 l 281 422 m 533 1246 q 608 1220 578 1246 q 638 1153 638 1194 q 622 1104 638 1128 q 565 1044 606 1081 l 594 994 l 532 957 l 478 1044 q 527 1092 508 1067 q 546 1138 546 1118 q 508 1167 546 1167 q 425 1133 467 1167 l 396 1181 q 533 1246 458 1246 m 424 1006 q 596 863 493 938 l 554 790 l 536 790 q 399 879 479 825 q 289 819 350 851 l 233 790 l 215 790 l 190 863 q 385 1006 303 935 l 424 1006 z "},"Ễ":{"ha":690,"x_min":67,"x_max":738,"o":"m 314 526 l 463 525 l 604 529 l 614 515 l 583 378 l 431 382 l 293 381 l 279 283 l 265 146 l 419 144 l 633 151 l 640 138 l 613 0 l 67 0 l 110 267 l 179 893 l 729 893 l 738 879 l 707 742 l 500 749 l 344 747 l 314 526 m 689 1201 l 628 1156 l 615 1156 l 485 1324 l 488 1338 l 579 1378 l 592 1372 l 689 1201 m 494 1197 q 668 1054 560 1133 l 626 982 l 608 982 q 507 1046 619 975 l 469 1071 q 353 1007 422 1043 l 306 982 l 288 982 l 263 1054 q 457 1197 375 1126 l 494 1197 z "},"ễ":{"ha":619,"x_min":61,"x_max":672,"o":"m 281 422 l 404 421 l 522 425 l 529 413 l 504 285 l 375 289 l 261 288 l 251 224 l 243 133 l 363 133 l 549 139 l 557 126 l 531 0 l 61 0 l 94 208 l 149 701 l 624 701 l 631 688 l 603 561 l 429 568 l 301 568 l 281 422 m 672 1156 l 583 1040 l 568 1033 q 463 1058 547 1036 q 368 1081 385 1081 q 340 1068 354 1081 q 310 1038 325 1056 q 289 1014 294 1021 l 275 1014 l 225 1064 l 225 1079 l 314 1192 l 331 1199 q 438 1172 365 1193 q 529 1151 510 1151 q 556 1163 543 1151 q 585 1192 569 1175 q 608 1219 600 1210 l 624 1219 l 672 1169 l 672 1156 m 438 1006 q 610 864 510 938 l 568 790 l 550 790 l 501 821 l 413 879 q 331 835 435 892 q 247 790 303 821 l 229 790 l 204 864 q 399 1006 307 929 l 438 1006 z "},"Ệ":{"ha":690,"x_min":67,"x_max":738,"o":"m 314 526 l 463 525 l 604 529 l 614 515 l 583 378 l 431 382 l 293 381 l 279 283 l 265 146 l 419 144 l 633 151 l 640 138 l 613 0 l 67 0 l 110 267 l 179 893 l 729 893 l 738 879 l 707 742 l 500 749 l 344 747 l 314 526 m 375 -78 q 442 -102 418 -78 q 465 -169 465 -126 q 439 -244 465 -217 q 368 -271 413 -271 q 300 -247 324 -271 q 276 -178 276 -222 q 303 -105 276 -132 q 375 -78 329 -78 m 271 1082 q 465 1225 383 1154 l 504 1225 q 676 1082 574 1157 l 635 1010 l 617 1010 q 479 1099 560 1044 q 369 1039 431 1071 l 314 1010 l 296 1010 l 271 1082 z "},"ệ":{"ha":619,"x_min":61,"x_max":631,"o":"m 281 422 l 404 421 l 522 425 l 529 413 l 504 285 l 375 289 l 261 288 l 251 224 l 243 133 l 363 133 l 549 139 l 557 126 l 531 0 l 61 0 l 94 208 l 149 701 l 624 701 l 631 688 l 603 561 l 429 568 l 301 568 l 281 422 m 303 -78 q 369 -102 346 -78 q 393 -169 393 -126 q 367 -244 393 -217 q 296 -271 340 -271 q 228 -247 251 -271 q 204 -178 204 -222 q 231 -105 204 -132 q 303 -78 257 -78 m 189 854 q 371 1019 247 904 l 404 1050 l 443 1050 q 614 854 518 953 l 560 786 l 542 786 q 408 915 454 864 q 243 786 354 867 l 225 786 l 189 854 z "},"Ỉ":{"ha":401,"x_min":67,"x_max":381,"o":"m 251 0 l 67 0 l 110 267 l 178 893 l 364 893 l 278 283 l 251 0 m 271 1275 q 349 1248 318 1275 q 381 1178 381 1221 q 364 1125 381 1150 q 304 1063 347 1100 l 335 1010 l 269 972 l 213 1063 q 264 1114 244 1088 q 283 1160 283 1140 q 244 1190 283 1190 q 157 1157 199 1190 l 126 1206 q 271 1275 192 1275 z "},"ỉ":{"ha":382,"x_min":63,"x_max":342,"o":"m 232 0 l 63 0 l 96 208 l 149 701 l 321 701 l 251 224 l 232 0 m 232 1082 q 310 1055 279 1082 q 342 985 342 1028 q 325 932 342 957 q 265 869 308 907 l 296 817 l 231 779 l 174 869 q 225 921 206 894 q 244 967 244 947 q 206 997 244 997 q 118 964 160 997 l 88 1013 q 232 1082 153 1082 z "},"Ị":{"ha":401,"x_min":51,"x_max":364,"o":"m 251 0 l 67 0 l 110 267 l 178 893 l 364 893 l 278 283 l 251 0 m 150 -78 q 217 -102 193 -78 q 240 -169 240 -126 q 214 -244 240 -217 q 143 -271 188 -271 q 75 -247 99 -271 q 51 -178 51 -222 q 78 -105 51 -132 q 150 -78 104 -78 z "},"ị":{"ha":382,"x_min":42,"x_max":321,"o":"m 232 0 l 63 0 l 96 208 l 149 701 l 321 701 l 251 224 l 232 0 m 140 -78 q 207 -102 183 -78 q 231 -169 231 -126 q 204 -244 231 -217 q 133 -271 178 -271 q 65 -247 89 -271 q 42 -178 42 -222 q 68 -105 42 -132 q 140 -78 94 -78 z "},"Ọ":{"ha":876,"x_min":51,"x_max":860,"o":"m 513 906 q 769 810 678 906 q 860 533 860 715 q 806 246 860 369 q 647 54 751 122 q 397 -14 543 -14 q 142 84 233 -14 q 51 365 51 182 q 105 651 51 529 q 262 840 158 774 q 513 906 365 906 m 490 757 q 303 665 365 757 q 242 369 242 572 q 283 185 242 243 q 415 128 324 128 q 603 221 540 128 q 665 518 665 314 q 624 701 665 644 q 490 757 583 757 m 421 -78 q 488 -102 464 -78 q 511 -169 511 -126 q 485 -244 511 -217 q 414 -271 458 -271 q 346 -247 369 -271 q 322 -178 322 -222 q 349 -105 322 -132 q 421 -78 375 -78 z "},"ọ":{"ha":767,"x_min":44,"x_max":729,"o":"m 433 711 q 652 635 575 711 q 729 403 729 558 q 683 188 729 282 q 550 40 638 93 q 342 -12 463 -12 q 122 66 199 -12 q 44 301 44 144 q 90 515 44 422 q 224 659 136 607 q 433 711 311 711 m 411 574 q 269 512 317 574 q 222 306 222 450 q 253 162 222 203 q 361 121 285 121 q 503 183 457 121 q 550 389 550 246 q 519 533 550 492 q 411 574 489 574 m 360 -78 q 426 -102 403 -78 q 450 -169 450 -126 q 424 -244 450 -217 q 353 -271 397 -271 q 285 -247 308 -271 q 261 -178 261 -222 q 288 -105 261 -132 q 360 -78 314 -78 z "},"Ỏ":{"ha":876,"x_min":51,"x_max":860,"o":"m 513 906 q 769 810 678 906 q 860 533 860 715 q 806 246 860 369 q 647 54 751 122 q 397 -14 543 -14 q 142 84 233 -14 q 51 365 51 182 q 105 651 51 529 q 262 840 158 774 q 513 906 365 906 m 490 757 q 303 665 365 757 q 242 369 242 572 q 283 185 242 243 q 415 128 324 128 q 603 221 540 128 q 665 518 665 314 q 624 701 665 644 q 490 757 583 757 m 511 1275 q 590 1248 558 1275 q 621 1178 621 1221 q 604 1125 621 1150 q 544 1063 588 1100 l 575 1010 l 510 972 l 453 1063 q 504 1114 485 1088 q 524 1160 524 1140 q 485 1190 524 1190 q 397 1157 439 1190 l 367 1206 q 511 1275 432 1275 z "},"ỏ":{"ha":767,"x_min":44,"x_max":729,"o":"m 433 711 q 652 635 575 711 q 729 403 729 558 q 683 188 729 282 q 550 40 638 93 q 342 -12 463 -12 q 122 66 199 -12 q 44 301 44 144 q 90 515 44 422 q 224 659 136 607 q 433 711 311 711 m 411 574 q 269 512 317 574 q 222 306 222 450 q 253 162 222 203 q 361 121 285 121 q 503 183 457 121 q 550 389 550 246 q 519 533 550 492 q 411 574 489 574 m 426 1082 q 505 1055 474 1082 q 536 985 536 1028 q 519 932 536 957 q 460 869 503 907 l 490 817 l 425 779 l 368 869 q 419 921 400 894 q 439 967 439 947 q 400 997 439 997 q 313 964 354 997 l 282 1013 q 426 1082 347 1082 z "},"Ố":{"ha":876,"x_min":51,"x_max":860,"o":"m 513 906 q 769 810 678 906 q 860 533 860 715 q 806 246 860 369 q 647 54 751 122 q 397 -14 543 -14 q 142 84 233 -14 q 51 365 51 182 q 105 651 51 529 q 262 840 158 774 q 513 906 365 906 m 490 757 q 303 665 365 757 q 242 369 242 572 q 283 185 242 243 q 415 128 324 128 q 603 221 540 128 q 665 518 665 314 q 624 701 665 644 q 490 757 583 757 m 815 1324 l 685 1156 l 672 1156 l 611 1201 l 708 1372 l 722 1378 l 811 1338 l 815 1324 m 558 1199 q 732 1056 624 1135 l 690 983 l 672 983 q 571 1047 683 978 l 533 1072 q 417 1008 486 1044 l 369 983 l 351 983 l 326 1056 q 521 1199 439 1128 l 558 1199 z "},"ố":{"ha":767,"x_min":44,"x_max":731,"o":"m 433 711 q 652 635 575 711 q 729 403 729 558 q 683 188 729 282 q 550 40 638 93 q 342 -12 463 -12 q 122 66 199 -12 q 44 301 44 144 q 90 515 44 422 q 224 659 136 607 q 433 711 311 711 m 411 574 q 269 512 317 574 q 222 306 222 450 q 253 162 222 203 q 361 121 285 121 q 503 183 457 121 q 550 389 550 246 q 519 533 550 492 q 411 574 489 574 m 731 1131 l 600 963 l 588 963 l 526 1008 l 624 1179 l 638 1185 l 726 1144 l 731 1131 m 474 1006 q 647 863 539 942 l 606 790 l 588 790 q 486 854 599 785 l 449 879 q 332 815 401 851 l 285 790 l 267 790 l 242 863 q 436 1006 354 935 l 474 1006 z "},"Ồ":{"ha":876,"x_min":51,"x_max":860,"o":"m 513 906 q 769 810 678 906 q 860 533 860 715 q 806 246 860 369 q 647 54 751 122 q 397 -14 543 -14 q 142 84 233 -14 q 51 365 51 182 q 105 651 51 529 q 262 840 158 774 q 513 906 365 906 m 490 757 q 303 665 365 757 q 242 369 242 572 q 283 185 242 243 q 415 128 324 128 q 603 221 540 128 q 665 518 665 314 q 624 701 665 644 q 490 757 583 757 m 753 1201 l 692 1156 l 679 1156 l 549 1324 l 551 1338 l 643 1378 l 656 1372 l 753 1201 m 558 1197 q 732 1054 624 1133 l 690 982 l 672 982 q 571 1046 683 975 l 533 1071 q 417 1007 486 1043 l 369 982 l 351 982 l 326 1054 q 521 1197 439 1126 l 558 1197 z "},"ồ":{"ha":767,"x_min":44,"x_max":729,"o":"m 433 711 q 652 635 575 711 q 729 403 729 558 q 683 188 729 282 q 550 40 638 93 q 342 -12 463 -12 q 122 66 199 -12 q 44 301 44 144 q 90 515 44 422 q 224 659 136 607 q 433 711 311 711 m 411 574 q 269 512 317 574 q 222 306 222 450 q 253 162 222 203 q 361 121 285 121 q 503 183 457 121 q 550 389 550 246 q 519 533 550 492 q 411 574 489 574 m 668 1008 l 607 963 l 594 963 l 464 1131 l 467 1144 l 558 1185 l 571 1179 l 668 1008 m 474 1004 q 647 861 539 940 l 606 789 l 588 789 q 486 853 599 782 l 449 878 q 332 814 401 850 l 285 789 l 267 789 l 242 861 q 436 1004 354 933 l 474 1004 z "},"Ổ":{"ha":876,"x_min":51,"x_max":860,"o":"m 513 906 q 769 810 678 906 q 860 533 860 715 q 806 246 860 369 q 647 54 751 122 q 397 -14 543 -14 q 142 84 233 -14 q 51 365 51 182 q 105 651 51 529 q 262 840 158 774 q 513 906 365 906 m 490 757 q 303 665 365 757 q 242 369 242 572 q 283 185 242 243 q 415 128 324 128 q 603 221 540 128 q 665 518 665 314 q 624 701 665 644 q 490 757 583 757 m 668 1439 q 742 1413 713 1439 q 772 1346 772 1388 q 756 1297 772 1321 q 700 1238 740 1274 l 729 1188 l 667 1150 l 613 1238 q 662 1285 643 1260 q 681 1331 681 1311 q 643 1360 681 1360 q 560 1326 601 1360 l 531 1374 q 668 1439 593 1439 m 558 1199 q 731 1056 628 1131 l 689 983 l 671 983 q 533 1072 614 1018 q 424 1013 485 1044 l 368 983 l 350 983 l 325 1056 q 519 1199 438 1128 l 558 1199 z "},"ổ":{"ha":767,"x_min":44,"x_max":729,"o":"m 433 711 q 652 635 575 711 q 729 403 729 558 q 683 188 729 282 q 550 40 638 93 q 342 -12 463 -12 q 122 66 199 -12 q 44 301 44 144 q 90 515 44 422 q 224 659 136 607 q 433 711 311 711 m 411 574 q 269 512 317 574 q 222 306 222 450 q 253 162 222 203 q 361 121 285 121 q 503 183 457 121 q 550 389 550 246 q 519 533 550 492 q 411 574 489 574 m 583 1246 q 658 1220 628 1246 q 688 1153 688 1194 q 672 1104 688 1128 q 615 1044 656 1081 l 644 994 l 582 957 l 528 1044 q 577 1092 558 1067 q 596 1138 596 1118 q 558 1167 596 1167 q 475 1133 517 1167 l 446 1181 q 583 1246 508 1246 m 474 1006 q 646 863 543 938 l 604 790 l 586 790 q 449 879 529 825 q 339 819 400 851 l 283 790 l 265 790 l 240 863 q 435 1006 353 935 l 474 1006 z "},"Ỗ":{"ha":876,"x_min":51,"x_max":860,"o":"m 513 906 q 769 810 678 906 q 860 533 860 715 q 806 246 860 369 q 647 54 751 122 q 397 -14 543 -14 q 142 84 233 -14 q 51 365 51 182 q 105 651 51 529 q 262 840 158 774 q 513 906 365 906 m 490 757 q 303 665 365 757 q 242 369 242 572 q 283 185 242 243 q 415 128 324 128 q 603 221 540 128 q 665 518 665 314 q 624 701 665 644 q 490 757 583 757 m 806 1349 l 717 1233 l 701 1226 q 596 1251 681 1229 q 501 1274 518 1274 q 473 1261 488 1274 q 443 1231 458 1249 q 422 1207 428 1214 l 408 1207 l 358 1257 l 358 1272 l 447 1385 l 464 1392 q 571 1365 499 1386 q 663 1344 643 1344 q 690 1356 676 1344 q 718 1385 703 1368 q 742 1413 733 1403 l 757 1413 l 806 1363 l 806 1349 m 571 1199 q 743 1057 643 1131 l 701 983 l 683 983 l 635 1014 l 546 1072 q 464 1028 568 1085 q 381 983 436 1014 l 363 983 l 338 1057 q 532 1199 440 1122 l 571 1199 z "},"ỗ":{"ha":767,"x_min":44,"x_max":729,"o":"m 433 711 q 652 635 575 711 q 729 403 729 558 q 683 188 729 282 q 550 40 638 93 q 342 -12 463 -12 q 122 66 199 -12 q 44 301 44 144 q 90 515 44 422 q 224 659 136 607 q 433 711 311 711 m 411 574 q 269 512 317 574 q 222 306 222 450 q 253 162 222 203 q 361 121 285 121 q 503 183 457 121 q 550 389 550 246 q 519 533 550 492 q 411 574 489 574 m 722 1156 l 633 1040 l 618 1033 q 513 1058 597 1036 q 418 1081 435 1081 q 390 1068 404 1081 q 360 1038 375 1056 q 339 1014 344 1021 l 325 1014 l 275 1064 l 275 1079 l 364 1192 l 381 1199 q 488 1172 415 1193 q 579 1151 560 1151 q 606 1163 593 1151 q 635 1192 619 1175 q 658 1219 650 1210 l 674 1219 l 722 1169 l 722 1156 m 488 1006 q 660 864 560 938 l 618 790 l 600 790 l 551 821 l 463 879 q 381 835 485 892 q 297 790 353 821 l 279 790 l 254 864 q 449 1006 357 929 l 488 1006 z "},"Ộ":{"ha":876,"x_min":51,"x_max":860,"o":"m 335 1082 q 529 1225 447 1154 l 568 1225 q 740 1082 638 1157 l 699 1010 l 681 1010 q 543 1099 624 1044 q 433 1039 494 1071 l 378 1010 l 360 1010 l 335 1082 m 513 906 q 769 810 678 906 q 860 533 860 715 q 806 245 860 368 q 649 54 753 122 q 397 -14 544 -14 q 142 84 233 -14 q 51 365 51 182 q 105 651 51 529 q 263 840 158 774 q 513 906 367 906 m 492 757 q 303 665 365 757 q 242 369 242 572 q 283 185 242 243 q 415 128 324 128 q 603 221 540 128 q 667 518 667 314 q 626 700 667 643 q 492 757 585 757 m 421 -78 q 488 -102 464 -78 q 511 -169 511 -126 q 485 -244 511 -217 q 414 -271 458 -271 q 346 -247 369 -271 q 322 -178 322 -222 q 349 -105 322 -132 q 421 -78 375 -78 z "},"ộ":{"ha":767,"x_min":44,"x_max":728,"o":"m 240 854 q 422 1019 299 904 l 456 1050 l 494 1050 q 665 854 569 953 l 611 786 l 593 786 q 460 915 506 864 q 294 786 406 867 l 276 786 l 240 854 m 433 711 q 651 635 575 711 q 728 403 728 558 q 682 188 728 282 q 549 40 636 93 q 340 -12 461 -12 q 122 66 199 -12 q 44 301 44 144 q 90 515 44 422 q 224 659 136 607 q 433 711 311 711 m 411 574 q 269 512 317 574 q 222 306 222 450 q 253 161 222 201 q 361 121 283 121 q 503 183 457 121 q 550 389 550 246 q 519 533 550 492 q 411 574 488 574 m 360 -78 q 426 -102 403 -78 q 450 -169 450 -126 q 424 -244 450 -217 q 353 -271 397 -271 q 285 -247 308 -271 q 261 -178 261 -222 q 288 -105 261 -132 q 360 -78 314 -78 z "},"Ớ":{"ha":882,"x_min":51,"x_max":975,"o":"m 897 1076 q 953 1046 931 1076 q 975 965 975 1015 q 924 840 975 890 q 793 779 872 790 q 858 528 858 686 q 803 247 858 369 q 643 55 747 124 q 396 -14 539 -14 q 140 85 228 -14 q 51 378 51 183 q 108 654 51 535 q 267 840 164 774 q 504 906 369 906 q 667 881 576 906 q 743 865 718 865 q 808 886 783 865 q 833 946 833 907 q 801 1028 833 993 l 807 1042 q 897 1076 858 1076 m 490 757 q 242 381 242 757 q 281 187 242 246 q 418 128 321 128 q 667 508 667 128 q 627 699 667 640 q 490 757 588 757 m 721 1121 l 715 1104 q 418 996 592 1056 l 400 1001 l 371 1076 q 658 1232 521 1151 l 675 1228 l 721 1121 z "},"ớ":{"ha":774,"x_min":44,"x_max":828,"o":"m 675 817 q 756 849 725 849 q 807 822 786 849 q 828 754 828 796 q 786 648 828 693 q 682 597 744 603 q 728 417 728 529 q 682 190 728 288 q 549 40 636 93 q 340 -12 461 -12 q 123 65 201 -12 q 44 282 44 143 q 91 512 44 415 q 223 660 138 608 q 424 711 308 711 q 563 692 478 711 q 628 681 613 681 q 677 696 658 681 q 696 740 696 711 q 669 803 696 776 l 675 817 m 361 119 q 506 184 461 119 q 550 408 550 249 q 517 536 550 497 q 411 575 483 575 q 267 509 311 575 q 222 285 222 443 q 256 158 222 196 q 361 119 289 119 m 611 928 l 606 911 q 308 803 482 863 l 290 808 l 261 883 q 549 1039 411 958 l 565 1035 l 611 928 z "},"Ờ":{"ha":882,"x_min":51,"x_max":975,"o":"m 897 1076 q 953 1046 931 1076 q 975 965 975 1015 q 924 840 975 890 q 793 779 872 790 q 858 528 858 686 q 803 247 858 369 q 643 55 747 124 q 396 -14 539 -14 q 140 85 228 -14 q 51 378 51 183 q 108 654 51 535 q 267 840 164 774 q 504 906 369 906 q 667 881 576 906 q 743 865 718 865 q 808 886 783 865 q 833 946 833 907 q 801 1028 833 993 l 807 1042 q 897 1076 858 1076 m 490 757 q 242 381 242 757 q 281 187 242 246 q 418 128 321 128 q 667 508 667 128 q 627 699 667 640 q 490 757 588 757 m 424 1235 q 711 1079 549 1160 l 682 1003 l 664 997 q 367 1107 461 1069 l 361 1124 l 407 1231 l 424 1235 z "},"ờ":{"ha":774,"x_min":44,"x_max":828,"o":"m 675 817 q 756 849 725 849 q 807 822 786 849 q 828 754 828 796 q 786 648 828 693 q 682 597 744 603 q 728 417 728 529 q 682 190 728 288 q 549 40 636 93 q 340 -12 461 -12 q 123 65 201 -12 q 44 282 44 143 q 91 512 44 415 q 223 660 138 608 q 424 711 308 711 q 563 692 478 711 q 628 681 613 681 q 677 696 658 681 q 696 740 696 711 q 669 803 696 776 l 675 817 m 361 119 q 506 184 461 119 q 550 408 550 249 q 517 536 550 497 q 411 575 483 575 q 267 509 311 575 q 222 285 222 443 q 256 158 222 196 q 361 119 289 119 m 313 1042 q 600 886 438 967 l 571 810 l 553 804 q 256 914 350 876 l 250 931 l 296 1038 l 313 1042 z "},"Ở":{"ha":882,"x_min":51,"x_max":975,"o":"m 897 1076 q 953 1046 931 1076 q 975 965 975 1015 q 924 840 975 890 q 793 779 872 790 q 858 528 858 686 q 803 247 858 369 q 643 55 747 124 q 396 -14 539 -14 q 140 85 228 -14 q 51 378 51 183 q 108 654 51 535 q 267 840 164 774 q 504 906 369 906 q 667 881 576 906 q 743 865 718 865 q 808 886 783 865 q 833 946 833 907 q 801 1028 833 993 l 807 1042 q 897 1076 858 1076 m 490 757 q 242 381 242 757 q 281 187 242 246 q 418 128 321 128 q 667 508 667 128 q 627 699 667 640 q 490 757 588 757 m 511 1275 q 590 1248 558 1275 q 621 1178 621 1221 q 604 1125 621 1150 q 544 1063 588 1100 l 575 1010 l 510 972 l 453 1063 q 504 1114 485 1088 q 524 1160 524 1140 q 485 1190 524 1190 q 397 1157 439 1190 l 367 1206 q 511 1275 432 1275 z "},"ở":{"ha":774,"x_min":44,"x_max":828,"o":"m 675 817 q 756 849 725 849 q 807 822 786 849 q 828 754 828 796 q 786 648 828 693 q 682 597 744 603 q 728 417 728 529 q 682 190 728 288 q 549 40 636 93 q 340 -12 461 -12 q 123 65 201 -12 q 44 282 44 143 q 91 512 44 415 q 223 660 138 608 q 424 711 308 711 q 563 692 478 711 q 628 681 613 681 q 677 696 658 681 q 696 740 696 711 q 669 803 696 776 l 675 817 m 361 119 q 506 184 461 119 q 550 408 550 249 q 517 536 550 497 q 411 575 483 575 q 267 509 311 575 q 222 285 222 443 q 256 158 222 196 q 361 119 289 119 m 400 1082 q 478 1055 447 1082 q 510 985 510 1028 q 493 932 510 957 q 433 869 476 907 l 464 817 l 399 779 l 342 869 q 393 921 374 894 q 413 967 413 947 q 374 997 413 997 q 286 964 328 997 l 256 1013 q 400 1082 321 1082 z "},"Ỡ":{"ha":882,"x_min":51,"x_max":975,"o":"m 897 1076 q 953 1046 931 1076 q 975 965 975 1015 q 924 840 975 890 q 793 779 872 790 q 858 528 858 686 q 803 247 858 369 q 643 55 747 124 q 396 -14 539 -14 q 140 85 228 -14 q 51 378 51 183 q 108 654 51 535 q 267 840 164 774 q 504 906 369 906 q 667 881 576 906 q 743 865 718 865 q 808 886 783 865 q 833 946 833 907 q 801 1028 833 993 l 807 1042 q 897 1076 858 1076 m 490 757 q 242 381 242 757 q 281 187 242 246 q 418 128 321 128 q 667 508 667 128 q 627 699 667 640 q 490 757 588 757 m 776 1151 l 679 1029 l 663 1022 q 546 1050 638 1025 q 447 1072 463 1072 q 417 1060 432 1072 q 387 1028 403 1047 q 363 1000 371 1010 l 346 1000 l 292 1054 l 292 1069 l 389 1192 l 406 1197 q 522 1171 422 1194 q 621 1149 596 1149 q 651 1160 636 1149 q 681 1191 665 1172 q 707 1219 697 1210 l 722 1219 l 776 1167 l 776 1151 z "},"ỡ":{"ha":774,"x_min":44,"x_max":828,"o":"m 675 817 q 756 849 725 849 q 807 822 786 849 q 828 754 828 796 q 786 648 828 693 q 682 597 744 603 q 728 417 728 529 q 682 190 728 288 q 549 40 636 93 q 340 -12 461 -12 q 123 65 201 -12 q 44 282 44 143 q 91 512 44 415 q 223 660 138 608 q 424 711 308 711 q 563 692 478 711 q 628 681 613 681 q 677 696 658 681 q 696 740 696 711 q 669 803 696 776 l 675 817 m 361 119 q 506 184 461 119 q 550 408 550 249 q 517 536 550 497 q 411 575 483 575 q 267 509 311 575 q 222 285 222 443 q 256 158 222 196 q 361 119 289 119 m 667 958 l 569 836 l 553 829 q 436 857 528 832 q 338 879 353 879 q 308 867 322 879 q 277 835 293 854 q 253 807 261 817 l 236 807 l 182 861 l 182 876 l 279 999 l 296 1004 q 413 978 313 1001 q 511 956 486 956 q 541 967 526 956 q 572 998 556 979 q 597 1026 588 1017 l 613 1026 l 667 974 l 667 958 z "},"Ợ":{"ha":882,"x_min":51,"x_max":975,"o":"m 897 1076 q 953 1046 931 1076 q 975 965 975 1015 q 924 840 975 890 q 793 779 872 790 q 858 528 858 686 q 803 247 858 369 q 643 55 747 124 q 396 -14 539 -14 q 140 85 228 -14 q 51 378 51 183 q 108 654 51 535 q 267 840 164 774 q 504 906 369 906 q 667 881 576 906 q 743 865 718 865 q 808 886 783 865 q 833 946 833 907 q 801 1028 833 993 l 807 1042 q 897 1076 858 1076 m 490 757 q 242 381 242 757 q 281 187 242 246 q 418 128 321 128 q 667 508 667 128 q 627 699 667 640 q 490 757 588 757 m 421 -78 q 488 -102 464 -78 q 511 -169 511 -126 q 485 -244 511 -217 q 414 -271 458 -271 q 346 -247 369 -271 q 322 -178 322 -222 q 349 -105 322 -132 q 421 -78 375 -78 z "},"ợ":{"ha":774,"x_min":44,"x_max":828,"o":"m 675 817 q 756 849 725 849 q 807 822 786 849 q 828 754 828 796 q 786 648 828 693 q 682 597 744 603 q 728 417 728 529 q 682 190 728 288 q 549 40 636 93 q 340 -12 461 -12 q 123 65 201 -12 q 44 282 44 143 q 91 512 44 415 q 223 660 138 608 q 424 711 308 711 q 563 692 478 711 q 628 681 613 681 q 677 696 658 681 q 696 740 696 711 q 669 803 696 776 l 675 817 m 361 119 q 506 184 461 119 q 550 408 550 249 q 517 536 550 497 q 411 575 483 575 q 267 509 311 575 q 222 285 222 443 q 256 158 222 196 q 361 119 289 119 m 360 -78 q 426 -102 403 -78 q 450 -169 450 -126 q 424 -244 450 -217 q 353 -271 397 -271 q 285 -247 308 -271 q 261 -178 261 -222 q 288 -105 261 -132 q 360 -78 314 -78 z "},"Ụ":{"ha":864,"x_min":81,"x_max":851,"o":"m 774 324 q 658 74 756 161 q 393 -12 561 -12 q 164 55 247 -12 q 81 247 81 122 q 86 315 81 283 l 104 444 l 154 893 l 338 893 l 261 340 q 257 288 257 311 q 407 139 257 139 q 606 331 583 139 l 667 893 l 851 893 l 789 440 l 774 324 m 392 -78 q 458 -102 435 -78 q 482 -169 482 -126 q 456 -244 482 -217 q 385 -271 429 -271 q 317 -247 340 -271 q 293 -178 293 -222 q 319 -105 293 -132 q 392 -78 346 -78 z "},"ụ":{"ha":757,"x_min":69,"x_max":722,"o":"m 660 238 q 563 53 644 118 q 338 -11 481 -11 q 140 41 210 -11 q 69 190 69 93 q 74 238 69 213 l 89 347 l 129 701 l 299 701 l 236 263 q 233 232 233 240 q 354 126 233 126 q 504 263 490 126 l 551 701 l 722 701 l 674 344 l 660 238 m 343 -78 q 410 -102 386 -78 q 433 -169 433 -126 q 407 -244 433 -217 q 336 -271 381 -271 q 268 -247 292 -271 q 244 -178 244 -222 q 271 -105 244 -132 q 343 -78 297 -78 z "},"Ủ":{"ha":864,"x_min":81,"x_max":851,"o":"m 774 324 q 658 74 756 161 q 393 -12 561 -12 q 164 55 247 -12 q 81 247 81 122 q 86 315 81 283 l 104 444 l 154 893 l 338 893 l 261 340 q 257 288 257 311 q 407 139 257 139 q 606 331 583 139 l 667 893 l 851 893 l 789 440 l 774 324 m 504 1275 q 583 1248 551 1275 q 614 1178 614 1221 q 597 1125 614 1150 q 538 1063 581 1100 l 568 1010 l 503 972 l 446 1063 q 497 1114 478 1088 q 517 1160 517 1140 q 478 1190 517 1190 q 390 1157 432 1190 l 360 1206 q 504 1275 425 1275 z "},"ủ":{"ha":757,"x_min":69,"x_max":722,"o":"m 660 238 q 563 53 644 118 q 338 -11 481 -11 q 140 41 210 -11 q 69 190 69 93 q 74 238 69 213 l 89 347 l 129 701 l 299 701 l 236 263 q 233 232 233 240 q 354 126 233 126 q 504 263 490 126 l 551 701 l 722 701 l 674 344 l 660 238 m 425 1082 q 503 1055 472 1082 q 535 985 535 1028 q 518 932 535 957 q 458 869 501 907 l 489 817 l 424 779 l 367 869 q 418 921 399 894 q 438 967 438 947 q 399 997 438 997 q 311 964 353 997 l 281 1013 q 425 1082 346 1082 z "},"Ứ":{"ha":876,"x_min":81,"x_max":956,"o":"m 956 978 q 925 889 956 929 q 842 825 894 849 l 789 440 l 774 324 q 658 74 756 161 q 393 -12 561 -12 q 163 55 246 -12 q 81 247 81 122 q 86 315 81 283 l 104 444 l 154 893 l 336 893 l 260 340 q 257 288 257 301 q 407 139 257 139 q 606 331 583 139 l 667 893 l 733 893 q 817 963 817 893 q 775 1046 817 1006 l 779 1060 q 865 1094 829 1094 q 928 1061 901 1094 q 956 978 956 1028 m 696 1121 l 690 1104 q 393 996 567 1056 l 375 1001 l 346 1076 q 633 1232 496 1151 l 650 1228 l 696 1121 z "},"ứ":{"ha":774,"x_min":69,"x_max":828,"o":"m 828 781 q 797 699 828 736 q 714 640 765 661 l 674 344 l 660 238 q 563 53 644 118 q 338 -11 481 -11 q 140 41 210 -11 q 69 190 69 93 q 74 238 69 213 l 89 347 l 129 701 l 299 701 l 236 263 q 233 232 233 240 q 354 126 233 126 q 504 263 490 126 l 551 701 l 621 701 q 677 716 660 701 q 694 763 694 731 q 668 818 694 796 l 674 832 q 758 864 721 864 q 807 840 786 864 q 828 781 828 815 m 631 929 l 625 913 q 328 804 501 864 l 310 810 l 281 885 q 568 1040 431 960 l 585 1036 l 631 929 z "},"Ừ":{"ha":876,"x_min":81,"x_max":956,"o":"m 956 978 q 925 889 956 929 q 842 825 894 849 l 789 440 l 774 324 q 658 74 756 161 q 393 -12 561 -12 q 163 55 246 -12 q 81 247 81 122 q 86 315 81 283 l 104 444 l 154 893 l 336 893 l 260 340 q 257 288 257 301 q 407 139 257 139 q 606 331 583 139 l 667 893 l 733 893 q 817 963 817 893 q 775 1046 817 1006 l 779 1060 q 865 1094 829 1094 q 928 1061 901 1094 q 956 978 956 1028 m 397 1235 q 685 1079 522 1160 l 656 1003 l 638 997 q 340 1107 435 1069 l 335 1124 l 381 1231 l 397 1235 z "},"ừ":{"ha":774,"x_min":69,"x_max":828,"o":"m 828 781 q 797 699 828 736 q 714 640 765 661 l 674 344 l 660 238 q 563 53 644 118 q 338 -11 481 -11 q 140 41 210 -11 q 69 190 69 93 q 74 238 69 213 l 89 347 l 129 701 l 299 701 l 236 263 q 233 232 233 240 q 354 126 233 126 q 504 263 490 126 l 551 701 l 621 701 q 677 716 660 701 q 694 763 694 731 q 668 818 694 796 l 674 832 q 758 864 721 864 q 807 840 786 864 q 828 781 828 815 m 332 1043 q 619 888 457 968 l 590 811 l 572 806 q 275 915 369 878 l 269 932 l 315 1039 l 332 1043 z "},"Ử":{"ha":876,"x_min":81,"x_max":956,"o":"m 956 978 q 925 889 956 929 q 842 825 894 849 l 789 440 l 774 324 q 658 74 756 161 q 393 -12 561 -12 q 163 55 246 -12 q 81 247 81 122 q 86 315 81 283 l 104 444 l 154 893 l 336 893 l 260 340 q 257 288 257 301 q 407 139 257 139 q 606 331 583 139 l 667 893 l 733 893 q 817 963 817 893 q 775 1046 817 1006 l 779 1060 q 865 1094 829 1094 q 928 1061 901 1094 q 956 978 956 1028 m 485 1275 q 563 1248 532 1275 q 594 1178 594 1221 q 578 1125 594 1150 q 518 1063 561 1100 l 549 1010 l 483 972 l 426 1063 q 478 1114 458 1088 q 497 1160 497 1140 q 458 1190 497 1190 q 371 1157 413 1190 l 340 1206 q 485 1275 406 1275 z "},"ử":{"ha":774,"x_min":69,"x_max":828,"o":"m 828 781 q 797 699 828 736 q 714 640 765 661 l 674 344 l 660 238 q 563 53 644 118 q 338 -11 481 -11 q 140 41 210 -11 q 69 190 69 93 q 74 238 69 213 l 89 347 l 129 701 l 299 701 l 236 263 q 233 232 233 240 q 354 126 233 126 q 504 263 490 126 l 551 701 l 621 701 q 677 716 660 701 q 694 763 694 731 q 668 818 694 796 l 674 832 q 758 864 721 864 q 807 840 786 864 q 828 781 828 815 m 419 1083 q 498 1056 467 1083 q 529 986 529 1029 q 513 933 529 958 q 453 871 496 908 l 483 818 l 418 781 l 361 871 q 413 922 393 896 q 432 968 432 949 q 393 999 432 999 q 306 965 347 999 l 275 1014 q 419 1083 340 1083 z "},"Ữ":{"ha":876,"x_min":81,"x_max":956,"o":"m 956 978 q 925 889 956 929 q 842 825 894 849 l 789 440 l 774 324 q 658 74 756 161 q 393 -12 561 -12 q 163 55 246 -12 q 81 247 81 122 q 86 315 81 283 l 104 444 l 154 893 l 336 893 l 260 340 q 257 288 257 301 q 407 139 257 139 q 606 331 583 139 l 667 893 l 733 893 q 817 963 817 893 q 775 1046 817 1006 l 779 1060 q 865 1094 829 1094 q 928 1061 901 1094 q 956 978 956 1028 m 751 1151 l 654 1029 l 638 1022 q 521 1050 613 1025 q 422 1072 438 1072 q 392 1060 407 1072 q 362 1028 378 1047 q 338 1000 346 1010 l 321 1000 l 267 1054 l 267 1069 l 364 1192 l 381 1197 q 497 1171 397 1194 q 596 1149 571 1149 q 626 1160 611 1149 q 656 1191 640 1172 q 682 1219 672 1210 l 697 1219 l 751 1167 l 751 1151 z "},"ữ":{"ha":774,"x_min":69,"x_max":828,"o":"m 828 781 q 797 699 828 736 q 714 640 765 661 l 674 344 l 660 238 q 563 53 644 118 q 338 -11 481 -11 q 140 41 210 -11 q 69 190 69 93 q 74 238 69 213 l 89 347 l 129 701 l 299 701 l 236 263 q 233 232 233 240 q 354 126 233 126 q 504 263 490 126 l 551 701 l 621 701 q 677 716 660 701 q 694 763 694 731 q 668 818 694 796 l 674 832 q 758 864 721 864 q 807 840 786 864 q 828 781 828 815 m 686 960 l 589 838 l 572 831 q 456 858 547 833 q 357 881 372 881 q 327 868 342 881 q 297 837 313 856 q 272 808 281 818 l 256 808 l 201 863 l 201 878 l 299 1000 l 315 1006 q 432 979 332 1003 q 531 957 506 957 q 560 969 546 957 q 591 999 575 981 q 617 1028 607 1018 l 632 1028 l 686 975 l 686 960 z "},"Ự":{"ha":876,"x_min":81,"x_max":956,"o":"m 956 978 q 925 889 956 929 q 842 825 894 849 l 789 440 l 774 324 q 658 74 756 161 q 393 -12 561 -12 q 163 55 246 -12 q 81 247 81 122 q 86 315 81 283 l 104 444 l 154 893 l 336 893 l 260 340 q 257 288 257 301 q 407 139 257 139 q 606 331 583 139 l 667 893 l 733 893 q 817 963 817 893 q 775 1046 817 1006 l 779 1060 q 865 1094 829 1094 q 928 1061 901 1094 q 956 978 956 1028 m 394 -78 q 461 -102 438 -78 q 485 -169 485 -126 q 458 -244 485 -217 q 388 -271 432 -271 q 319 -247 343 -271 q 296 -178 296 -222 q 322 -105 296 -132 q 394 -78 349 -78 z "},"ự":{"ha":774,"x_min":69,"x_max":828,"o":"m 828 781 q 797 699 828 736 q 714 640 765 661 l 674 344 l 660 238 q 563 53 644 118 q 338 -11 481 -11 q 140 41 210 -11 q 69 190 69 93 q 74 238 69 213 l 89 347 l 129 701 l 299 701 l 236 263 q 233 232 233 240 q 354 126 233 126 q 504 263 490 126 l 551 701 l 621 701 q 677 716 660 701 q 694 763 694 731 q 668 818 694 796 l 674 832 q 758 864 721 864 q 807 840 786 864 q 828 781 828 815 m 342 -78 q 408 -102 385 -78 q 432 -169 432 -126 q 406 -244 432 -217 q 335 -271 379 -271 q 267 -247 290 -271 q 243 -178 243 -222 q 269 -105 243 -132 q 342 -78 296 -78 z "},"Ỳ":{"ha":754,"x_min":78,"x_max":828,"o":"m 440 250 l 417 0 l 233 0 l 275 250 l 281 307 l 78 893 l 268 893 l 279 833 l 385 489 l 397 489 l 603 828 l 636 893 l 828 893 l 450 306 l 440 250 m 363 1235 q 650 1079 488 1160 l 621 1003 l 603 997 q 306 1107 400 1069 l 300 1124 l 346 1231 l 363 1235 z "},"ỳ":{"ha":674,"x_min":64,"x_max":710,"o":"m 389 192 l 372 0 l 203 0 l 235 192 l 239 228 l 64 701 l 244 701 l 254 650 l 338 401 l 349 401 l 506 643 l 535 701 l 710 701 l 394 226 l 389 192 m 304 1058 q 556 847 428 947 l 511 779 l 494 778 q 226 943 376 846 l 222 960 l 288 1057 l 304 1058 z "},"Ỵ":{"ha":754,"x_min":78,"x_max":828,"o":"m 440 250 l 417 0 l 233 0 l 275 250 l 281 307 l 78 893 l 268 893 l 279 833 l 385 489 l 397 489 l 603 828 l 636 893 l 828 893 l 450 306 l 440 250 m 315 -78 q 382 -102 358 -78 q 406 -169 406 -126 q 379 -244 406 -217 q 308 -271 353 -271 q 240 -247 264 -271 q 217 -178 217 -222 q 243 -105 217 -132 q 315 -78 269 -78 z "},"ỵ":{"ha":674,"x_min":64,"x_max":710,"o":"m 389 192 l 372 0 l 203 0 l 235 192 l 239 228 l 64 701 l 244 701 l 254 650 l 338 401 l 349 401 l 506 643 l 535 701 l 710 701 l 394 226 l 389 192 m 279 -78 q 346 -102 322 -78 q 369 -169 369 -126 q 343 -244 369 -217 q 272 -271 317 -271 q 204 -247 228 -271 q 181 -178 181 -222 q 207 -105 181 -132 q 279 -78 233 -78 z "},"Ỷ":{"ha":754,"x_min":78,"x_max":828,"o":"m 440 250 l 417 0 l 233 0 l 275 250 l 281 307 l 78 893 l 268 893 l 279 833 l 385 489 l 397 489 l 603 828 l 636 893 l 828 893 l 450 306 l 440 250 m 450 1275 q 528 1248 497 1275 q 560 1178 560 1221 q 543 1125 560 1150 q 483 1063 526 1100 l 514 1010 l 449 972 l 392 1063 q 443 1114 424 1088 q 463 1160 463 1140 q 424 1190 463 1190 q 336 1157 378 1190 l 306 1206 q 450 1275 371 1275 z "},"ỷ":{"ha":674,"x_min":64,"x_max":710,"o":"m 389 192 l 372 0 l 203 0 l 235 192 l 239 228 l 64 701 l 244 701 l 254 650 l 338 401 l 349 401 l 506 643 l 535 701 l 710 701 l 394 226 l 389 192 m 382 1082 q 460 1055 429 1082 q 492 985 492 1028 q 475 932 492 957 q 415 869 458 907 l 446 817 l 381 779 l 324 869 q 375 921 356 894 q 394 967 394 947 q 356 997 394 997 q 268 964 310 997 l 238 1013 q 382 1082 303 1082 z "},"Ỹ":{"ha":754,"x_min":78,"x_max":828,"o":"m 440 250 l 417 0 l 233 0 l 275 250 l 281 307 l 78 893 l 268 893 l 279 833 l 385 489 l 397 489 l 603 828 l 636 893 l 828 893 l 450 306 l 440 250 m 717 1151 l 619 1029 l 603 1022 q 486 1050 578 1025 q 388 1072 403 1072 q 358 1060 372 1072 q 327 1028 343 1047 q 303 1000 311 1010 l 286 1000 l 232 1054 l 232 1069 l 329 1192 l 346 1197 q 463 1171 363 1194 q 561 1149 536 1149 q 591 1160 576 1149 q 622 1191 606 1172 q 647 1219 638 1210 l 663 1219 l 717 1167 l 717 1151 z "},"ỹ":{"ha":674,"x_min":64,"x_max":710,"o":"m 389 192 l 372 0 l 203 0 l 235 192 l 239 228 l 64 701 l 244 701 l 254 650 l 338 401 l 349 401 l 506 643 l 535 701 l 710 701 l 394 226 l 389 192 m 649 958 l 551 836 l 535 829 q 418 857 510 832 q 319 879 335 879 q 290 867 304 879 q 259 835 275 854 q 235 807 243 817 l 218 807 l 164 861 l 164 876 l 261 999 l 278 1004 q 394 978 294 1001 q 493 956 468 956 q 523 967 508 956 q 553 998 538 979 q 579 1026 569 1017 l 594 1026 l 649 974 l 649 958 z "},"–":{"ha":647,"x_min":-22,"x_max":679,"o":"m 657 296 l -12 296 l -22 310 l 0 419 l 669 419 l 679 406 l 657 296 z "},"—":{"ha":1238,"x_min":-25,"x_max":1272,"o":"m 1250 296 l -15 296 l -25 310 l -3 419 l 1261 419 l 1272 406 l 1250 296 z "},"‘":{"ha":283,"x_min":88,"x_max":279,"o":"m 167 547 q 88 675 88 588 q 214 901 88 779 l 278 860 l 279 847 q 224 728 224 783 q 279 632 224 661 l 279 617 q 167 547 224 572 z "},"’":{"ha":283,"x_min":90,"x_max":282,"o":"m 203 901 q 282 774 282 861 q 156 547 282 669 l 92 589 l 90 601 q 146 721 146 665 q 90 817 146 788 l 90 832 q 203 901 146 876 z "},"‚":{"ha":317,"x_min":-3,"x_max":222,"o":"m 161 179 q 222 63 222 131 q 57 -175 222 -58 l -1 -124 l -3 -110 q 74 25 74 -47 q 31 107 74 72 l 31 124 q 161 179 96 163 z "},"“":{"ha":503,"x_min":83,"x_max":501,"o":"m 389 549 q 310 676 310 589 q 436 903 310 781 l 500 861 l 501 849 q 446 729 446 785 q 501 633 446 663 l 501 618 q 389 549 446 574 m 163 549 q 83 676 83 589 q 210 903 83 781 l 274 861 l 275 849 q 219 729 219 785 q 275 633 219 663 l 275 618 q 163 549 219 574 z "},"”":{"ha":501,"x_min":89,"x_max":497,"o":"m 418 901 q 497 774 497 861 q 371 547 497 669 l 307 589 l 306 601 q 361 721 361 665 q 306 817 361 788 l 306 832 q 418 901 361 876 m 201 901 q 281 774 281 861 q 154 547 281 669 l 90 589 l 89 601 q 144 721 144 665 q 89 817 144 788 l 89 832 q 201 901 144 876 z "},"„":{"ha":544,"x_min":-3,"x_max":447,"o":"m 386 179 q 447 63 447 131 q 282 -175 447 -58 l 224 -124 l 222 -110 q 299 25 299 -47 q 256 107 299 72 l 256 124 q 386 179 321 163 m 161 179 q 222 63 222 131 q 57 -175 222 -58 l -1 -124 l -3 -110 q 74 25 74 -47 q 31 107 74 72 l 31 124 q 161 179 96 163 z "},"†":{"ha":696,"x_min":72,"x_max":669,"o":"m 422 450 l 415 401 l 351 -124 l 239 -131 l 229 -118 l 292 390 l 299 450 l 83 450 l 72 464 l 96 571 l 314 571 l 343 813 l 460 821 l 468 811 l 438 571 l 660 571 l 669 558 l 647 450 l 422 450 z "},"‡":{"ha":694,"x_min":29,"x_max":671,"o":"m 392 217 l 615 217 l 625 206 l 604 96 l 378 96 l 350 -124 l 239 -131 l 229 -118 l 256 96 l 39 96 l 29 110 l 51 217 l 269 217 l 290 390 l 300 465 l 85 465 l 74 478 l 97 586 l 315 586 l 343 813 l 460 821 l 468 811 l 439 586 l 660 586 l 671 574 l 649 465 l 424 465 l 415 401 l 392 217 z "},"•":{"ha":394,"x_min":90,"x_max":325,"o":"m 212 510 q 294 480 265 510 q 324 396 324 450 q 291 305 324 338 q 204 271 258 271 q 120 301 149 271 q 90 386 90 331 q 123 476 90 443 q 212 510 156 510 z "},"․":{"ha":319,"x_min":36,"x_max":225,"o":"m 135 183 q 201 159 178 183 q 225 92 225 135 q 199 17 225 44 q 128 -10 172 -10 q 60 15 83 -10 q 36 83 36 39 q 63 156 36 129 q 135 183 89 183 z "},"‥":{"ha":597,"x_min":31,"x_max":496,"o":"m 406 183 q 472 159 449 183 q 496 92 496 135 q 469 17 496 44 q 399 -10 443 -10 q 331 15 354 -10 q 307 83 307 39 q 333 156 307 129 q 406 183 360 183 m 129 183 q 196 159 172 183 q 219 92 219 135 q 193 17 219 44 q 122 -10 167 -10 q 54 15 78 -10 q 31 83 31 39 q 57 156 31 129 q 129 183 83 183 z "},"…":{"ha":874,"x_min":3,"x_max":744,"o":"m 378 183 q 444 159 421 183 q 468 92 468 135 q 442 17 468 44 q 371 -10 415 -10 q 303 15 326 -10 q 279 83 279 39 q 306 156 279 129 q 378 183 332 183 m 654 183 q 721 159 697 183 q 744 92 744 135 q 718 17 744 44 q 647 -10 692 -10 q 579 15 603 -10 q 556 83 556 39 q 582 156 556 129 q 654 183 608 183 m 101 183 q 168 159 144 183 q 192 92 192 135 q 165 17 192 44 q 94 -10 139 -10 q 26 15 50 -10 q 3 83 3 39 q 29 156 3 129 q 101 183 56 183 z "},"‰":{"ha":1714,"x_min":81,"x_max":1663,"o":"m 1006 882 l 232 -128 l 161 -82 l 156 -62 l 931 951 l 999 907 l 1006 882 m 343 901 q 477 850 431 901 q 524 704 524 799 q 456 478 524 560 q 263 397 388 397 q 127 449 174 397 q 81 594 81 500 q 150 819 81 738 q 343 901 219 901 m 318 785 q 194 614 194 785 q 282 506 194 506 q 408 678 408 506 q 318 785 408 785 m 963 496 q 1096 445 1050 496 q 1142 299 1142 394 q 1074 73 1142 154 q 881 -8 1006 -8 q 747 42 793 -8 q 700 189 700 93 q 769 415 700 333 q 963 496 838 496 m 1482 496 q 1616 444 1569 496 q 1663 299 1663 393 q 1594 73 1663 154 q 1401 -8 1526 -8 q 1266 43 1313 -8 q 1219 189 1219 94 q 1289 414 1219 332 q 1482 496 1358 496 m 936 379 q 813 208 813 379 q 900 100 813 100 q 1028 272 1028 100 q 936 379 1028 379 m 1457 379 q 1333 208 1333 379 q 1421 100 1333 100 q 1549 272 1549 100 q 1457 379 1549 379 z "},"′":{"ha":281,"x_min":110,"x_max":294,"o":"m 208 578 l 122 564 l 110 576 l 144 882 l 285 892 l 294 879 l 208 578 z "},"″":{"ha":490,"x_min":110,"x_max":503,"o":"m 417 578 l 331 564 l 318 576 l 353 882 l 493 892 l 503 879 l 417 578 m 208 578 l 122 564 l 110 576 l 144 882 l 285 892 l 294 879 l 208 578 z "},"‹":{"ha":338,"x_min":39,"x_max":342,"o":"m 43 335 l 261 575 l 340 529 l 342 511 l 172 315 l 294 119 l 289 103 l 199 57 l 39 306 l 43 335 z "},"›":{"ha":342,"x_min":11,"x_max":314,"o":"m 310 300 l 92 60 l 13 106 l 11 124 l 181 319 l 58 515 l 64 532 l 154 578 l 314 329 l 310 300 z "},"⁄":{"ha":143,"x_min":-368,"x_max":483,"o":"m 483 882 l -292 -128 l -362 -82 l -368 -62 l 407 951 l 475 907 l 483 882 z "},"⁰":{"ha":525,"x_min":88,"x_max":531,"o":"m 350 982 q 484 926 438 982 q 531 767 531 869 q 463 521 531 610 q 269 432 394 432 q 134 488 181 432 q 88 647 88 543 q 157 892 88 803 q 350 982 226 982 m 325 856 q 201 668 201 856 q 289 550 201 550 q 415 738 415 550 q 325 856 415 856 z "},"⁴":{"ha":507,"x_min":60,"x_max":511,"o":"m 418 561 l 411 449 l 401 439 l 289 433 l 283 440 l 301 563 l 157 563 l 67 558 l 60 569 l 69 657 l 339 974 l 469 974 l 429 667 l 504 667 l 511 654 l 493 558 l 418 561 m 315 667 l 335 822 l 326 822 l 193 667 l 315 667 z "},"⁵":{"ha":443,"x_min":51,"x_max":479,"o":"m 451 867 l 440 857 l 354 867 l 247 867 l 235 779 l 293 767 q 433 636 433 736 q 357 488 433 544 q 160 431 281 431 q 51 442 103 431 l 56 539 l 65 547 q 174 533 119 533 q 263 554 231 533 q 294 613 294 575 q 217 671 294 656 l 124 688 l 117 697 l 149 960 l 167 975 l 222 974 l 371 974 l 472 978 l 479 969 l 451 867 z "},"⁶":{"ha":485,"x_min":75,"x_max":485,"o":"m 336 772 q 446 731 407 772 q 485 628 485 690 q 460 530 485 575 q 384 458 435 485 q 263 431 333 431 q 124 478 174 431 q 75 610 75 525 q 156 824 75 728 q 383 982 238 921 l 392 982 l 475 922 l 474 910 q 323 840 378 875 q 240 757 268 804 l 247 749 q 336 772 292 772 m 356 610 q 288 676 356 676 q 210 657 249 676 l 207 638 q 206 607 206 626 q 272 517 206 517 q 334 541 313 517 q 356 610 356 565 z "},"⁷":{"ha":432,"x_min":92,"x_max":481,"o":"m 431 974 l 481 975 l 468 875 l 286 572 l 211 429 l 100 458 l 94 481 l 328 861 l 190 861 l 97 853 l 92 864 l 117 975 l 228 974 l 431 974 z "},"⁸":{"ha":500,"x_min":79,"x_max":499,"o":"m 332 981 q 453 947 408 981 q 499 857 499 914 q 472 782 499 813 q 394 725 446 751 l 393 719 q 460 671 438 697 q 482 603 482 644 q 422 478 482 525 q 260 431 361 431 q 127 466 175 431 q 79 561 79 501 q 203 696 79 651 l 203 700 q 126 815 126 740 q 183 935 126 890 q 332 981 239 981 m 322 889 q 265 872 286 889 q 244 825 244 854 q 263 786 244 801 q 317 756 282 771 q 367 792 350 774 q 383 839 383 811 q 367 876 383 863 q 322 889 351 889 m 281 661 q 199 579 199 635 q 217 535 199 551 q 272 519 236 519 q 340 540 315 519 q 364 589 364 560 q 342 629 364 614 q 281 661 321 644 z "},"⁹":{"ha":486,"x_min":97,"x_max":507,"o":"m 319 982 q 458 935 408 982 q 507 803 507 888 q 426 588 507 685 q 199 431 344 490 l 190 431 l 107 489 l 108 503 q 260 573 206 539 q 340 654 314 607 l 333 663 q 246 640 286 640 q 136 681 175 640 q 97 785 97 722 q 122 883 97 838 q 198 955 147 928 q 319 982 249 982 m 294 735 q 372 754 331 735 l 374 774 q 375 808 375 786 q 360 873 375 851 q 310 894 344 894 q 226 801 226 894 q 294 735 226 735 z "},"₣":{"ha":579,"x_min":-1,"x_max":615,"o":"m 265 404 l 376 404 l 511 407 l 518 394 l 494 286 l 250 288 l 240 222 l 238 193 l 393 193 l 399 185 l 386 121 l 231 121 l 219 0 l 67 0 l 85 121 l 3 121 l -1 128 l 11 193 l 96 193 l 99 208 l 153 699 l 608 699 l 615 686 l 592 578 l 410 583 l 290 583 l 265 404 z "}}}
